SplineFontDB: 3.0
FontName: Ruda
FullName: Ruda
FamilyName: Ruda
Weight: Book
Copyright: Copyright (c) 2011, Mariela Monsalve (marmonsalve@gmail.com), Copyright (c) 2011, Angelina Sanchez (ange_dg@yahoo.com.ar), With Reserved Font Name "Ruda"
Version: 1.002
ItalicAngle: 0
UnderlinePosition: -50
UnderlineWidth: 50
Ascent: 800
Descent: 200
sfntRevision: 0x00010083
LayerCount: 2
Layer: 0 1 "Back"  1
Layer: 1 1 "Fore"  0
XUID: [1021 618 1006601317 9065638]
FSType: 0
OS2Version: 2
OS2_WeightWidthSlopeOnly: 0
OS2_UseTypoMetrics: 1
CreationTime: 1325880222
ModificationTime: 1325881675
PfmFamily: 17
TTFWeight: 400
TTFWidth: 5
LineGap: 0
VLineGap: 0
Panose: 2 0 0 0 0 0 0 0 0 0
OS2TypoAscent: 122
OS2TypoAOffset: 1
OS2TypoDescent: -95
OS2TypoDOffset: 1
OS2TypoLinegap: 0
OS2WinAscent: 35
OS2WinAOffset: 1
OS2WinDescent: 62
OS2WinDOffset: 1
HheadAscent: 35
HheadAOffset: 1
HheadDescent: -62
HheadDOffset: 1
OS2SubXSize: 700
OS2SubYSize: 650
OS2SubXOff: 0
OS2SubYOff: 140
OS2SupXSize: 700
OS2SupYSize: 650
OS2SupXOff: 0
OS2SupYOff: 477
OS2StrikeYSize: 50
OS2StrikeYPos: 250
OS2Vendor: 'pyrs'
OS2CodePages: 00000001.00000000
OS2UnicodeRanges: 00000023.00000000.00000000.00000000
Lookup: 258 0 0 "'kern' Horizontal Kerning in Latin lookup 0"  {"'kern' Horizontal Kerning in Latin lookup 0 subtable"  } ['kern' ('DFLT' <'dflt' > 'latn' <'dflt' > ) ]
DEI: 91125
TtTable: prep
PUSHW_1
 511
SCANCTRL
PUSHB_1
 4
SCANTYPE
EndTTInstrs
ShortTable: maxp 16
  1
  0
  244
  59
  5
  0
  0
  2
  0
  1
  1
  0
  64
  0
  0
  0
EndShort
LangName: 1033 "" "" "Regular" "MarielaMonsalve,AngelinaSanchez: Ruda: 2011" "" "Version 1.002" "" "Ruda is a trademark of Mariela Monsalve and Angelina Sanchez" "Mariela Monsalve, Angelina Sanchez" "Mariela Monsalve, Angelina Sanchez" "" "www.angelinasanchez.com.ar" "www.mukamonsalve.com.ar" "This Font Software is licensed under the SIL Open Font License, Version 1.1. This license is available with a FAQ at: http://scripts.sil.org/OFL" "http://scripts.sil.org/OFL" 

StartChar: exclam
Encoding: 33 33 4
Width: 268
GlyphClass: 2
Flags: W
LayerCount: 2
Fore
SplineSet
166 190 m 1,0,-1
 102 190 l 1,1,-1
 88 695 l 1,2,-1
 181 695 l 1,3,-1
 166 190 l 1,0,-1
80 0 m 1,4,-1
 80 89 l 1,5,-1
 188 89 l 1,6,-1
 188 0 l 1,7,-1
 80 0 l 1,4,-1
EndSplineSet
EndChar

StartChar: quotedbl
Encoding: 34 34 5
Width: 339
GlyphClass: 2
Flags: W
LayerCount: 2
Fore
SplineSet
56 713 m 1,0,-1
 139 713 l 1,1,-1
 139 694 l 1,2,-1
 123 478 l 1,3,-1
 70 478 l 1,4,-1
 56 695 l 1,5,-1
 56 713 l 1,0,-1
199 713 m 1,6,-1
 283 713 l 1,7,-1
 283 694 l 1,8,-1
 266 478 l 1,9,-1
 213 478 l 1,10,-1
 199 695 l 1,11,-1
 199 713 l 1,6,-1
EndSplineSet
EndChar

StartChar: numbersign
Encoding: 35 35 6
Width: 546
GlyphClass: 2
Flags: W
LayerCount: 2
Fore
SplineSet
25 199 m 1,0,-1
 25 270 l 1,1,-1
 118 270 l 1,2,-1
 142 421 l 1,3,-1
 59 421 l 1,4,-1
 59 493 l 1,5,-1
 153 493 l 1,6,-1
 185 695 l 1,7,-1
 257 695 l 1,8,-1
 225 493 l 1,9,-1
 353 493 l 1,10,-1
 385 695 l 1,11,-1
 458 695 l 1,12,-1
 426 493 l 1,13,-1
 509 493 l 1,14,-1
 509 421 l 1,15,-1
 415 421 l 1,16,-1
 391 270 l 1,17,-1
 474 270 l 1,18,-1
 474 199 l 1,19,-1
 380 199 l 1,20,-1
 349 0 l 1,21,-1
 277 0 l 1,22,-1
 308 199 l 1,23,-1
 180 199 l 1,24,-1
 149 0 l 1,25,-1
 76 0 l 1,26,-1
 107 199 l 1,27,-1
 25 199 l 1,0,-1
214 421 m 1,28,-1
 191 270 l 1,29,-1
 319 270 l 1,30,-1
 342 421 l 1,31,-1
 214 421 l 1,28,-1
EndSplineSet
EndChar

StartChar: dollar
Encoding: 36 36 7
Width: 512
GlyphClass: 2
Flags: W
LayerCount: 2
Fore
SplineSet
36 51 m 1,0,-1
 66 119 l 1,1,2
 105 98 105 98 162.5 81 c 128,-1,3
 220 64 220 64 262.5 64 c 128,-1,4
 305 64 305 64 326 77 c 1,5,6
 368 106 368 106 368 179 c 0,7,8
 368 229 368 229 338 259 c 128,-1,9
 308 289 308 289 231.5 322.5 c 128,-1,10
 155 356 155 356 125 380 c 0,11,12
 58 431 58 431 58 525 c 0,13,14
 58 595 58 595 100 644 c 128,-1,15
 142 693 142 693 220 705 c 1,16,-1
 220 802 l 1,17,-1
 294 802 l 1,18,-1
 294 707 l 1,19,20
 364 703 364 703 427 686 c 1,21,-1
 413 614 l 1,22,23
 329 632 329 632 266.5 632 c 128,-1,24
 204 632 204 632 182 619 c 0,25,26
 146 599 146 599 146 533 c 0,27,28
 146 489 146 489 175 456 c 0,29,30
 196 433 196 433 248 410 c 0,31,32
 261 404 261 404 295.5 390 c 128,-1,33
 330 376 330 376 353 363 c 128,-1,34
 376 350 376 350 402 327 c 0,35,36
 455 281 455 281 455 195.5 c 128,-1,37
 455 110 455 110 410.5 57 c 128,-1,38
 366 4 366 4 291 -9 c 1,39,-1
 291 -117 l 1,40,-1
 218 -117 l 1,41,-1
 218 -11 l 1,42,43
 174 -7 174 -7 128.5 8.5 c 128,-1,44
 83 24 83 24 36 51 c 1,0,-1
EndSplineSet
EndChar

StartChar: percent
Encoding: 37 37 8
Width: 799
GlyphClass: 2
Flags: W
LayerCount: 2
Fore
SplineSet
203 707 m 128,-1,1
 266 707 266 707 309.5 670.5 c 128,-1,2
 353 634 353 634 353 557.5 c 128,-1,3
 353 481 353 481 309 444 c 128,-1,4
 265 407 265 407 202.5 407 c 128,-1,5
 140 407 140 407 96.5 444 c 128,-1,6
 53 481 53 481 53 557.5 c 128,-1,7
 53 634 53 634 96.5 670.5 c 128,-1,0
 140 707 140 707 203 707 c 128,-1,1
203 640 m 128,-1,9
 123 640 123 640 123 557 c 128,-1,10
 123 474 123 474 203 474 c 128,-1,11
 283 474 283 474 283 557 c 128,-1,8
 283 640 283 640 203 640 c 128,-1,9
488.5 256.5 m 128,-1,13
 532 293 532 293 595.5 293 c 128,-1,14
 659 293 659 293 702.5 256.5 c 128,-1,15
 746 220 746 220 746 143.5 c 128,-1,16
 746 67 746 67 702 30 c 128,-1,17
 658 -7 658 -7 595 -7 c 128,-1,18
 532 -7 532 -7 488.5 30 c 128,-1,19
 445 67 445 67 445 143.5 c 128,-1,12
 445 220 445 220 488.5 256.5 c 128,-1,13
595.5 226 m 128,-1,21
 516 226 516 226 516 143 c 128,-1,22
 516 60 516 60 595.5 60 c 128,-1,23
 675 60 675 60 675 143 c 128,-1,20
 675 226 675 226 595.5 226 c 128,-1,21
263 -9 m 1,24,-1
 188 -9 l 1,25,-1
 374 382 l 1,26,-1
 530 733 l 1,27,-1
 604 733 l 1,28,-1
 427 351 l 1,29,-1
 263 -9 l 1,24,-1
EndSplineSet
EndChar

StartChar: ampersand
Encoding: 38 38 9
Width: 646
GlyphClass: 2
Flags: W
LayerCount: 2
Fore
SplineSet
251 -13 m 0,0,1
 156 -13 156 -13 97.5 48 c 128,-1,2
 39 109 39 109 39 183 c 128,-1,3
 39 257 39 257 84.5 308.5 c 128,-1,4
 130 360 130 360 183 382 c 1,5,6
 89 440 89 440 89 540 c 0,7,8
 89 613 89 613 137 660.5 c 128,-1,9
 185 708 185 708 271 708 c 128,-1,10
 357 708 357 708 401.5 659.5 c 128,-1,11
 446 611 446 611 446 544 c 0,12,13
 446 436 446 436 334 379 c 1,14,15
 418 319 418 319 484 241 c 1,16,17
 523 308 523 308 547 375 c 1,18,-1
 618 352 l 1,19,20
 586 265 586 265 530 178 c 1,21,22
 579 101 579 101 619 -10 c 1,23,-1
 539 -13 l 1,24,25
 520 42 520 42 480 110 c 1,26,27
 375 -13 375 -13 251 -13 c 0,0,1
254 59 m 0,28,29
 351 59 351 59 439 174 c 1,30,31
 362 279 362 279 259 340 c 1,32,33
 203 320 203 320 165 276.5 c 128,-1,34
 127 233 127 233 127 181 c 128,-1,35
 127 129 127 129 162.5 94 c 128,-1,36
 198 59 198 59 254 59 c 0,28,29
266 639 m 0,37,38
 173 639 173 639 173 545 c 0,39,40
 173 460 173 460 264 414 c 1,41,42
 306 431 306 431 333.5 464.5 c 128,-1,43
 361 498 361 498 361 542.5 c 128,-1,44
 361 587 361 587 338 613 c 128,-1,45
 315 639 315 639 266 639 c 0,37,38
EndSplineSet
EndChar

StartChar: quotesingle
Encoding: 39 39 10
Width: 195
GlyphClass: 2
Flags: W
LayerCount: 2
Fore
SplineSet
56 713 m 1,0,-1
 139 713 l 1,1,-1
 139 694 l 1,2,-1
 123 478 l 1,3,-1
 70 478 l 1,4,-1
 56 695 l 1,5,-1
 56 713 l 1,0,-1
EndSplineSet
EndChar

StartChar: parenleft
Encoding: 40 40 11
Width: 316
GlyphClass: 2
Flags: W
LayerCount: 2
Fore
SplineSet
285 730 m 1,0,1
 154 647 154 647 154 329.5 c 128,-1,2
 154 12 154 12 285 -72 c 1,3,-1
 247 -124 l 1,4,5
 69 -17 69 -17 69 329.5 c 128,-1,6
 69 676 69 676 247 783 c 1,7,-1
 285 730 l 1,0,1
EndSplineSet
EndChar

StartChar: parenright
Encoding: 41 41 12
Width: 316
GlyphClass: 2
Flags: W
LayerCount: 2
Fore
SplineSet
68 783 m 1,0,1
 247 676 247 676 247 329.5 c 128,-1,2
 247 -17 247 -17 68 -124 c 1,3,-1
 31 -72 l 1,4,5
 162 12 162 12 162 329.5 c 128,-1,6
 162 647 162 647 31 730 c 1,7,-1
 68 783 l 1,0,1
EndSplineSet
EndChar

StartChar: asterisk
Encoding: 42 42 13
Width: 414
GlyphClass: 2
Flags: W
LayerCount: 2
Fore
SplineSet
164 707 m 1,0,-1
 250 707 l 1,1,-1
 250 688 l 1,2,-1
 233 578 l 1,3,-1
 333 628 l 1,4,-1
 351 635 l 1,5,-1
 378 552 l 1,6,-1
 359 546 l 1,7,-1
 245 527 l 1,8,-1
 347 429 l 1,9,-1
 282 374 l 1,10,-1
 271 389 l 1,11,-1
 206 493 l 1,12,-1
 140 389 l 1,13,-1
 129 374 l 1,14,-1
 65 429 l 1,15,-1
 78 443 l 1,16,-1
 167 527 l 1,17,-1
 54 546 l 1,18,-1
 36 552 l 1,19,-1
 62 635 l 1,20,-1
 81 628 l 1,21,-1
 180 578 l 1,22,-1
 164 688 l 1,23,-1
 164 707 l 1,0,-1
EndSplineSet
EndChar

StartChar: plus
Encoding: 43 43 14
Width: 621
GlyphClass: 2
Flags: W
LayerCount: 2
Fore
SplineSet
52 257 m 1,0,-1
 52 328 l 1,1,-1
 273 328 l 1,2,-1
 273 553 l 1,3,-1
 347 553 l 1,4,-1
 347 328 l 1,5,-1
 569 328 l 1,6,-1
 569 257 l 1,7,-1
 347 257 l 1,8,-1
 347 32 l 1,9,-1
 273 32 l 1,10,-1
 273 257 l 1,11,-1
 52 257 l 1,0,-1
EndSplineSet
EndChar

StartChar: comma
Encoding: 44 44 15
Width: 270
GlyphClass: 2
Flags: W
LayerCount: 2
Fore
SplineSet
94 -36 m 2,0,-1
 94 84 l 1,1,-1
 176 84 l 1,2,-1
 176 14 l 1,3,4
 175 -106 175 -106 102 -166 c 1,5,-1
 62 -137 l 1,6,7
 94 -98 94 -98 94 -36 c 2,0,-1
EndSplineSet
EndChar

StartChar: hyphen
Encoding: 45 45 16
Width: 321
GlyphClass: 2
Flags: W
LayerCount: 2
Fore
SplineSet
46 292 m 1,0,-1
 46 363 l 1,1,-1
 275 363 l 1,2,-1
 275 292 l 1,3,-1
 46 292 l 1,0,-1
EndSplineSet
EndChar

StartChar: period
Encoding: 46 46 17
Width: 254
GlyphClass: 2
Flags: W
LayerCount: 2
Fore
SplineSet
76 0 m 1,0,-1
 76 89 l 1,1,-1
 178 89 l 1,2,-1
 178 0 l 1,3,-1
 76 0 l 1,0,-1
EndSplineSet
EndChar

StartChar: slash
Encoding: 47 47 18
Width: 430
GlyphClass: 2
Flags: W
LayerCount: 2
Fore
SplineSet
92 -98 m 1,0,-1
 4 -98 l 1,1,-1
 174 319 l 1,2,-1
 319 695 l 1,3,-1
 408 695 l 1,4,-1
 242 288 l 1,5,-1
 92 -98 l 1,0,-1
EndSplineSet
EndChar

StartChar: zero
Encoding: 48 48 19
Width: 572
GlyphClass: 2
Flags: W
LayerCount: 2
Fore
SplineSet
376 3 m 128,-1,1
 338 -13 338 -13 286.5 -13 c 128,-1,2
 235 -13 235 -13 196.5 3 c 128,-1,3
 158 19 158 19 126 57.5 c 128,-1,4
 94 96 94 96 77 169.5 c 128,-1,5
 60 243 60 243 60 349 c 128,-1,6
 60 455 60 455 77 527.5 c 128,-1,7
 94 600 94 600 126 638 c 128,-1,8
 158 676 158 676 196.5 692 c 128,-1,9
 235 708 235 708 286.5 708 c 128,-1,10
 338 708 338 708 376 692.5 c 128,-1,11
 414 677 414 677 446.5 638.5 c 128,-1,12
 479 600 479 600 495.5 527.5 c 128,-1,13
 512 455 512 455 512 349 c 128,-1,14
 512 243 512 243 495.5 169.5 c 128,-1,15
 479 96 479 96 446.5 57.5 c 128,-1,0
 414 19 414 19 376 3 c 128,-1,1
147 351 m 0,16,17
 147 186 147 186 180 124.5 c 128,-1,18
 213 63 213 63 287 63 c 0,19,20
 335 63 335 63 364 86 c 0,21,22
 426 134 426 134 426 349 c 0,23,24
 426 567 426 567 362 612 c 1,25,26
 334 633 334 633 286 633 c 128,-1,27
 238 633 238 633 210 612 c 1,28,29
 147 568 147 568 147 351 c 0,16,17
EndSplineSet
EndChar

StartChar: one
Encoding: 49 49 20
Width: 507
GlyphClass: 2
Flags: W
LayerCount: 2
Fore
SplineSet
77 0 m 1,0,-1
 77 72 l 1,1,-1
 244 70 l 1,2,-1
 251 619 l 1,3,-1
 246 619 l 1,4,-1
 99 464 l 1,5,-1
 43 518 l 1,6,-1
 239 702 l 1,7,-1
 329 695 l 1,8,-1
 329 70 l 1,9,-1
 476 72 l 1,10,-1
 476 0 l 1,11,-1
 77 0 l 1,0,-1
EndSplineSet
EndChar

StartChar: two
Encoding: 50 50 21
Width: 540
GlyphClass: 2
Flags: W
LayerCount: 2
Fore
SplineSet
142 682 m 128,-1,1
 203 708 203 708 277.5 708 c 128,-1,2
 352 708 352 708 406.5 661 c 128,-1,3
 461 614 461 614 461 539 c 0,4,5
 461 442 461 442 344 288 c 1,6,-1
 178 75 l 1,7,-1
 178 70 l 1,8,-1
 476 75 l 1,9,-1
 476 0 l 1,10,-1
 56 0 l 1,11,-1
 56 65 l 1,12,13
 118 135 118 135 215 258.5 c 128,-1,14
 312 382 312 382 345.5 438.5 c 128,-1,15
 379 495 379 495 379 548 c 0,16,17
 379 633 379 633 285 633 c 128,-1,18
 191 633 191 633 86 565 c 1,19,-1
 51 628 l 1,20,0
 81 656 81 656 142 682 c 128,-1,1
EndSplineSet
EndChar

StartChar: three
Encoding: 51 51 22
Width: 503
GlyphClass: 2
Flags: W
LayerCount: 2
Fore
SplineSet
245 62 m 0,0,1
 305 62 305 62 328.5 91.5 c 128,-1,2
 352 121 352 121 352 195 c 128,-1,3
 352 269 352 269 320 302 c 128,-1,4
 288 335 288 335 216 335 c 2,5,-1
 123 335 l 1,6,-1
 123 401 l 1,7,8
 251 412 251 412 282 424 c 0,9,10
 325 441 325 441 332 491 c 0,11,12
 334 504 334 504 334 522 c 0,13,14
 334 586 334 586 311.5 611 c 128,-1,15
 289 636 289 636 200 636 c 0,16,17
 162 636 162 636 63 624 c 1,18,-1
 53 692 l 1,19,20
 115 708 115 708 207 708 c 0,21,22
 420 708 420 708 420 533 c 0,23,24
 420 487 420 487 406.5 454 c 128,-1,25
 393 421 393 421 372 406 c 0,26,27
 334 379 334 379 308 375 c 1,28,-1
 308 371 l 1,29,30
 355 365 355 365 394 332 c 0,31,32
 441 291 441 291 441 196.5 c 128,-1,33
 441 102 441 102 390.5 44.5 c 128,-1,34
 340 -13 340 -13 232 -13 c 0,35,36
 178 -13 178 -13 124 1.5 c 128,-1,37
 70 16 70 16 43 31 c 2,38,-1
 16 46 l 1,39,-1
 48 110 l 1,40,41
 154 62 154 62 245 62 c 0,0,1
EndSplineSet
EndChar

StartChar: four
Encoding: 52 52 23
Width: 537
GlyphClass: 2
Flags: W
LayerCount: 2
Fore
SplineSet
424 505 m 1,0,-1
 424 236 l 1,1,-1
 488 238 l 1,2,-1
 488 162 l 1,3,-1
 424 162 l 1,4,-1
 425 0 l 1,5,-1
 340 0 l 1,6,-1
 343 162 l 1,7,-1
 29 162 l 1,8,-1
 29 225 l 1,9,-1
 187 706 l 1,10,-1
 269 695 l 1,11,-1
 118 237 l 1,12,-1
 118 232 l 1,13,-1
 343 236 l 1,14,-1
 362 505 l 1,15,-1
 424 505 l 1,0,-1
EndSplineSet
EndChar

StartChar: five
Encoding: 53 53 24
Width: 509
GlyphClass: 2
Flags: W
LayerCount: 2
Fore
SplineSet
421 695 m 1,0,-1
 421 622 l 1,1,-1
 196 626 l 1,2,-1
 167 413 l 1,3,4
 337 407 337 407 399 350 c 0,5,6
 452 301 452 301 452 201.5 c 128,-1,7
 452 102 452 102 396 44.5 c 128,-1,8
 340 -13 340 -13 243 -13 c 0,9,10
 188 -13 188 -13 134 5.5 c 128,-1,11
 80 24 80 24 54 42 c 2,12,-1
 27 60 l 1,13,-1
 59 123 l 1,14,15
 99 99 99 99 157 80.5 c 128,-1,16
 215 62 215 62 259 62 c 128,-1,17
 303 62 303 62 323.5 75.5 c 128,-1,18
 344 89 344 89 354 124 c 128,-1,19
 364 159 364 159 364 197 c 0,20,21
 364 281 364 281 334.5 309.5 c 128,-1,22
 305 338 305 338 154 338 c 1,23,-1
 75 336 l 1,24,-1
 126 695 l 1,25,-1
 421 695 l 1,0,-1
EndSplineSet
EndChar

StartChar: six
Encoding: 54 54 25
Width: 552
GlyphClass: 2
Flags: W
LayerCount: 2
Fore
SplineSet
436 45 m 128,-1,1
 380 -13 380 -13 276 -13 c 128,-1,2
 172 -13 172 -13 116 66.5 c 128,-1,3
 60 146 60 146 60 330 c 0,4,5
 60 549 60 549 137 634 c 0,6,7
 174 674 174 674 218 691 c 128,-1,8
 262 708 262 708 308 708 c 0,9,10
 391 708 391 708 440 688 c 1,11,-1
 457 682 l 1,12,-1
 438 611 l 1,13,14
 368 632 368 632 301.5 632 c 128,-1,15
 235 632 235 632 202 599 c 1,16,17
 157 552 157 552 150 409 c 1,18,19
 203 416 203 416 256 416 c 0,20,21
 370 416 370 416 431 368 c 128,-1,22
 492 320 492 320 492 211.5 c 128,-1,0
 492 103 492 103 436 45 c 128,-1,1
189 86 m 1,23,24
 219 58 219 58 287.5 58 c 128,-1,25
 356 58 356 58 382.5 91 c 128,-1,26
 409 124 409 124 409 204.5 c 128,-1,27
 409 285 409 285 382 314.5 c 128,-1,28
 355 344 355 344 276 344 c 0,29,30
 216 344 216 344 148 330 c 1,31,-1
 148 250 l 2,32,33
 148 127 148 127 189 86 c 1,23,24
EndSplineSet
EndChar

StartChar: seven
Encoding: 55 55 26
Width: 471
GlyphClass: 2
Flags: W
LayerCount: 2
Fore
SplineSet
24 695 m 1,0,-1
 448 695 l 1,1,-1
 448 640 l 1,2,-1
 164 -7 l 1,3,-1
 75 1 l 1,4,-1
 363 619 l 1,5,-1
 363 625 l 1,6,-1
 24 619 l 1,7,-1
 24 695 l 1,0,-1
EndSplineSet
EndChar

StartChar: eight
Encoding: 56 56 27
Width: 540
GlyphClass: 2
Flags: W
LayerCount: 2
Fore
SplineSet
120.5 660 m 128,-1,1
 173 708 173 708 270 708 c 128,-1,2
 367 708 367 708 419 659 c 128,-1,3
 471 610 471 610 471 533 c 0,4,5
 471 419 471 419 366 359 c 1,6,7
 457 307 457 307 480 247 c 0,8,9
 492 218 492 218 492 182 c 0,10,11
 492 102 492 102 430.5 44.5 c 128,-1,12
 369 -13 369 -13 266.5 -13 c 128,-1,13
 164 -13 164 -13 105.5 47.5 c 128,-1,14
 47 108 47 108 47 190 c 0,15,16
 47 251 47 251 82 299 c 128,-1,17
 117 347 117 347 163 366 c 1,18,19
 68 434 68 434 68 534 c 0,20,0
 68 612 68 612 120.5 660 c 128,-1,1
401 170 m 0,21,22
 401 229 401 229 366 262 c 128,-1,23
 331 295 331 295 241 326 c 1,24,25
 187 306 187 306 162.5 275 c 128,-1,26
 138 244 138 244 138 182 c 0,27,28
 138 59 138 59 269.5 59 c 128,-1,29
 401 59 401 59 401 170 c 0,21,22
270 639 m 0,30,31
 205 639 205 639 178.5 614 c 128,-1,32
 152 589 152 589 152 540 c 128,-1,33
 152 491 152 491 183 456.5 c 128,-1,34
 214 422 214 422 287 393 c 1,35,36
 386 428 386 428 386 532 c 0,37,38
 386 639 386 639 270 639 c 0,30,31
EndSplineSet
EndChar

StartChar: nine
Encoding: 57 57 28
Width: 550
GlyphClass: 2
Flags: W
LayerCount: 2
Fore
SplineSet
267 280 m 0,0,1
 170 280 170 280 115 330.5 c 128,-1,2
 60 381 60 381 60 486 c 128,-1,3
 60 591 60 591 115 649.5 c 128,-1,4
 170 708 170 708 273 708 c 128,-1,5
 376 708 376 708 433 627.5 c 128,-1,6
 490 547 490 547 490 354 c 0,7,8
 490 -13 490 -13 269 -13 c 0,9,10
 223 -13 223 -13 175.5 2 c 128,-1,11
 128 17 128 17 104 32 c 2,12,-1
 79 48 l 1,13,-1
 110 111 l 1,14,15
 140 91 140 91 190 74.5 c 128,-1,16
 240 58 240 58 282 58 c 128,-1,17
 324 58 324 58 347 83 c 128,-1,18
 370 108 370 108 385.5 164.5 c 128,-1,19
 401 221 401 221 401 295 c 1,20,21
 328 280 328 280 267 280 c 0,0,1
349 620 m 0,22,23
 320 636 320 636 256 636 c 128,-1,24
 192 636 192 636 167.5 601 c 128,-1,25
 143 566 143 566 143 491.5 c 128,-1,26
 143 417 143 417 165 386.5 c 128,-1,27
 187 356 187 356 263 356 c 0,28,29
 329 356 329 356 401 380 c 1,30,31
 401 591 401 591 349 620 c 0,22,23
EndSplineSet
EndChar

StartChar: colon
Encoding: 58 58 29
Width: 314
GlyphClass: 2
Flags: W
LayerCount: 2
Fore
SplineSet
103 0 m 1,0,-1
 103 89 l 1,1,-1
 211 89 l 1,2,-1
 211 0 l 1,3,-1
 103 0 l 1,0,-1
103 459 m 1,4,-1
 103 548 l 1,5,-1
 211 548 l 1,6,-1
 211 459 l 1,7,-1
 103 459 l 1,4,-1
EndSplineSet
EndChar

StartChar: semicolon
Encoding: 59 59 30
Width: 312
GlyphClass: 2
Flags: W
LayerCount: 2
Fore
SplineSet
113 -36 m 2,0,-1
 113 84 l 1,1,-1
 195 84 l 1,2,-1
 195 14 l 1,3,4
 194 -106 194 -106 121 -166 c 1,5,-1
 81 -137 l 1,6,7
 113 -98 113 -98 113 -36 c 2,0,-1
101 459 m 1,8,-1
 101 548 l 1,9,-1
 209 548 l 1,10,-1
 209 459 l 1,11,-1
 101 459 l 1,8,-1
EndSplineSet
EndChar

StartChar: less
Encoding: 60 60 31
Width: 632
GlyphClass: 2
Flags: W
LayerCount: 2
Fore
SplineSet
75 257 m 1,0,-1
 75 328 l 1,1,-1
 580 568 l 1,2,-1
 580 484 l 1,3,-1
 160 296 l 1,4,-1
 160 290 l 1,5,-1
 580 99 l 1,6,-1
 580 16 l 1,7,-1
 75 257 l 1,0,-1
EndSplineSet
EndChar

StartChar: equal
Encoding: 61 61 32
Width: 618
GlyphClass: 2
Flags: W
LayerCount: 2
Fore
SplineSet
52 335 m 1,0,-1
 52 407 l 1,1,-1
 566 407 l 1,2,-1
 566 335 l 1,3,-1
 52 335 l 1,0,-1
52 179 m 1,4,-1
 52 251 l 1,5,-1
 566 251 l 1,6,-1
 566 179 l 1,7,-1
 52 179 l 1,4,-1
EndSplineSet
EndChar

StartChar: greater
Encoding: 62 62 33
Width: 635
GlyphClass: 2
Flags: W
LayerCount: 2
Fore
SplineSet
560 328 m 1,0,-1
 560 257 l 1,1,-1
 56 16 l 1,2,-1
 56 99 l 1,3,-1
 475 290 l 1,4,-1
 475 296 l 1,5,-1
 56 484 l 1,6,-1
 56 568 l 1,7,-1
 560 328 l 1,0,-1
EndSplineSet
EndChar

StartChar: question
Encoding: 63 63 34
Width: 462
GlyphClass: 2
Flags: W
LayerCount: 2
Fore
SplineSet
220 191 m 1,0,-1
 150 191 l 1,1,-1
 150 201 l 2,2,3
 150 256 150 256 170 296 c 128,-1,4
 190 336 190 336 218.5 359 c 128,-1,5
 247 382 247 382 276 404 c 0,6,7
 345 456 345 456 345 533 c 0,8,9
 345 593 345 593 305 618 c 1,10,11
 289 631 289 631 247.5 631 c 128,-1,12
 206 631 206 631 159 617.5 c 128,-1,13
 112 604 112 604 86 590 c 2,14,-1
 61 577 l 1,15,16
 46 611 46 611 31 645 c 1,17,18
 70 670 70 670 128 689 c 128,-1,19
 186 708 186 708 233 708 c 0,20,21
 321 708 321 708 376.5 656.5 c 128,-1,22
 432 605 432 605 432 525 c 0,23,24
 432 471 432 471 410 430.5 c 128,-1,25
 388 390 388 390 357 365 c 128,-1,26
 326 340 326 340 295 318 c 0,27,28
 220 263 220 263 220 191 c 1,0,-1
132 0 m 1,29,-1
 132 89 l 1,30,-1
 240 89 l 1,31,-1
 240 0 l 1,32,-1
 132 0 l 1,29,-1
EndSplineSet
EndChar

StartChar: at
Encoding: 64 64 35
Width: 835
GlyphClass: 2
Flags: W
LayerCount: 2
Fore
SplineSet
574 124 m 0,0,1
 533 124 533 124 516 154.5 c 128,-1,2
 499 185 499 185 497 243 c 1,3,-1
 493 243 l 1,4,5
 435 124 435 124 366 124 c 0,6,7
 322 124 322 124 287.5 173.5 c 128,-1,8
 253 223 253 223 253 339 c 128,-1,9
 253 455 253 455 292 503 c 128,-1,10
 331 551 331 551 411 551 c 0,11,12
 470 551 470 551 568 526 c 1,13,14
 566 393 566 393 566 329.5 c 128,-1,15
 566 266 566 266 566.5 244.5 c 128,-1,16
 567 223 567 223 569 210.5 c 128,-1,17
 571 198 571 198 574 195 c 128,-1,18
 577 192 577 192 583 192 c 0,19,20
 617 192 617 192 654.5 248 c 128,-1,21
 692 304 692 304 692 389 c 0,22,23
 692 499 692 499 622.5 563.5 c 128,-1,24
 553 628 553 628 427.5 628 c 128,-1,25
 302 628 302 628 221.5 553 c 128,-1,26
 141 478 141 478 141 337 c 128,-1,27
 141 196 141 196 221 115 c 128,-1,28
 301 34 301 34 416 34 c 0,29,30
 458 34 458 34 503 43 c 1,31,-1
 511 -24 l 1,32,33
 471 -38 471 -38 413 -38 c 0,34,35
 325 -38 325 -38 247.5 1.5 c 128,-1,36
 170 41 170 41 118 127 c 128,-1,37
 66 213 66 213 66 317.5 c 128,-1,38
 66 422 66 422 98 495 c 128,-1,39
 130 568 130 568 183 612 c 0,40,41
 291 702 291 702 429 702 c 128,-1,42
 567 702 567 702 666 618 c 128,-1,43
 765 534 765 534 765 392 c 0,44,45
 765 280 765 280 705 202 c 128,-1,46
 645 124 645 124 574 124 c 0,0,1
488 466 m 1,47,48
 455 475 455 475 412.5 475 c 128,-1,49
 370 475 370 475 359 465 c 0,50,51
 338 447 338 447 338 325.5 c 128,-1,52
 338 204 338 204 377 204 c 0,53,54
 412 204 412 204 450 295.5 c 128,-1,55
 488 387 488 387 488 466 c 1,47,48
EndSplineSet
EndChar

StartChar: A
Encoding: 65 65 36
Width: 515
GlyphClass: 2
Flags: W
LayerCount: 2
Fore
SplineSet
94 0 m 1,0,-1
 5 0 l 1,1,-1
 201 695 l 1,2,-1
 306 695 l 1,3,-1
 502 0 l 1,4,-1
 412 0 l 1,5,-1
 364 186 l 1,6,-1
 143 186 l 1,7,-1
 94 0 l 1,0,-1
348 256 m 1,8,-1
 256 627 l 1,9,-1
 250 627 l 1,10,-1
 158 256 l 1,11,-1
 348 256 l 1,8,-1
EndSplineSet
EndChar

StartChar: B
Encoding: 66 66 37
Width: 614
GlyphClass: 2
Flags: W
LayerCount: 2
Fore
SplineSet
316 708 m 0,0,1
 512 708 512 708 512 523 c 0,2,3
 512 482 512 482 500.5 450 c 128,-1,4
 489 418 489 418 472 402 c 0,5,6
 439 371 439 371 412 366 c 2,7,-1
 400 364 l 1,8,-1
 400 361 l 1,9,10
 438 359 438 359 479 329 c 0,11,12
 501 313 501 313 515.5 280 c 128,-1,13
 530 247 530 247 530 194 c 128,-1,14
 530 141 530 141 512.5 97 c 128,-1,15
 495 53 495 53 464 30 c 0,16,17
 407 -13 407 -13 323 -13 c 0,18,19
 237 -13 237 -13 105 3 c 1,20,-1
 110 323 l 1,21,-1
 105 696 l 1,22,23
 221 708 221 708 316 708 c 0,0,1
191 63 m 1,24,25
 269 52 269 52 332.5 52 c 128,-1,26
 396 52 396 52 418 85.5 c 128,-1,27
 440 119 440 119 440 194.5 c 128,-1,28
 440 270 440 270 407.5 299.5 c 128,-1,29
 375 329 375 329 312 329 c 2,30,-1
 189 329 l 1,31,-1
 191 63 l 1,24,25
189 395 m 1,32,33
 257 394 257 394 318.5 394 c 128,-1,34
 380 394 380 394 402.5 422.5 c 128,-1,35
 425 451 425 451 425 520.5 c 128,-1,36
 425 590 425 590 399.5 618 c 128,-1,37
 374 646 374 646 313 646 c 0,38,39
 255 646 255 646 189 638 c 1,40,-1
 189 395 l 1,32,33
EndSplineSet
EndChar

StartChar: C
Encoding: 67 67 38
Width: 583
GlyphClass: 2
Flags: W
LayerCount: 2
Fore
SplineSet
336 632 m 0,0,1
 236 632 236 632 214 605 c 0,2,3
 163 543 163 543 163 337 c 0,4,5
 163 239 163 239 181.5 172.5 c 128,-1,6
 200 106 200 106 224.5 82 c 128,-1,7
 249 58 249 58 298 58 c 128,-1,8
 347 58 347 58 395.5 72 c 128,-1,9
 444 86 444 86 470 100 c 2,10,-1
 497 114 l 1,11,-1
 526 48 l 1,12,13
 516 41 516 41 498.5 31 c 128,-1,14
 481 21 481 21 425 4 c 128,-1,15
 369 -13 369 -13 312 -13 c 0,16,17
 72 -13 72 -13 72 340 c 0,18,19
 72 590 72 590 176 666 c 0,20,21
 209 690 209 690 245.5 699 c 128,-1,22
 282 708 282 708 356.5 708 c 128,-1,23
 431 708 431 708 497 692 c 1,24,-1
 487 620 l 1,25,26
 395 632 395 632 336 632 c 0,0,1
EndSplineSet
EndChar

StartChar: D
Encoding: 68 68 39
Width: 631
GlyphClass: 2
Flags: W
LayerCount: 2
Fore
SplineSet
105 696 m 1,0,1
 237 708 237 708 305 708 c 128,-1,2
 373 708 373 708 417.5 689 c 128,-1,3
 462 670 462 670 488.5 638.5 c 128,-1,4
 515 607 515 607 532 560 c 0,5,6
 559 482 559 482 559 356 c 0,7,8
 559 -13 559 -13 302 -13 c 1,9,-1
 105 0 l 1,10,-1
 105 696 l 1,0,1
291 61 m 0,11,12
 382 61 382 61 410 89 c 0,13,14
 465 144 465 144 465 356.5 c 128,-1,15
 465 569 465 569 412 615 c 0,16,17
 389 635 389 635 315 635 c 1,18,-1
 188 628 l 1,19,-1
 189 71 l 1,20,21
 253 61 253 61 291 61 c 0,11,12
EndSplineSet
EndChar

StartChar: E
Encoding: 69 69 40
Width: 514
GlyphClass: 2
Flags: W
LayerCount: 2
Fore
SplineSet
105 0 m 1,0,-1
 105 695 l 1,1,-1
 446 695 l 1,2,-1
 446 620 l 1,3,-1
 189 623 l 1,4,-1
 184 389 l 1,5,-1
 422 389 l 1,6,-1
 422 318 l 1,7,-1
 184 318 l 1,8,-1
 189 73 l 1,9,-1
 446 75 l 1,10,-1
 446 0 l 1,11,-1
 105 0 l 1,0,-1
EndSplineSet
EndChar

StartChar: F
Encoding: 70 70 41
Width: 500
GlyphClass: 2
Flags: W
LayerCount: 2
Fore
SplineSet
415 318 m 1,0,-1
 184 318 l 1,1,-1
 189 0 l 1,2,-1
 105 0 l 1,3,-1
 105 695 l 1,4,-1
 446 695 l 1,5,-1
 446 619 l 1,6,-1
 188 622 l 1,7,-1
 184 388 l 1,8,-1
 415 389 l 1,9,-1
 415 318 l 1,0,-1
EndSplineSet
EndChar

StartChar: G
Encoding: 71 71 42
Width: 612
GlyphClass: 2
Flags: W
LayerCount: 2
Fore
SplineSet
215 92 m 0,0,1
 243 60 243 60 322.5 60 c 128,-1,2
 402 60 402 60 439 75 c 1,3,-1
 439 295 l 1,4,-1
 333 300 l 1,5,-1
 333 362 l 1,6,-1
 519 362 l 1,7,-1
 519 26 l 1,8,9
 443 -13 443 -13 331 -13 c 0,10,11
 286 -13 286 -13 250 -4.5 c 128,-1,12
 214 4 214 4 179.5 28 c 128,-1,13
 145 52 145 52 122 92 c 0,14,15
 72 180 72 180 72 350 c 0,16,17
 72 565 72 565 148 641 c 0,18,19
 186 679 186 679 232 693.5 c 128,-1,20
 278 708 278 708 362.5 708 c 128,-1,21
 447 708 447 708 515 691 c 1,22,-1
 505 619 l 1,23,24
 392 632 392 632 338 632 c 0,25,26
 239 632 239 632 213 605 c 0,27,28
 163 553 163 553 162 352 c 1,29,30
 163 150 163 150 215 92 c 0,0,1
EndSplineSet
EndChar

StartChar: H
Encoding: 72 72 43
Width: 665
GlyphClass: 2
Flags: W
LayerCount: 2
Fore
SplineSet
105 0 m 1,0,-1
 105 695 l 1,1,-1
 189 695 l 1,2,-1
 186 391 l 1,3,-1
 479 391 l 1,4,-1
 477 695 l 1,5,-1
 560 695 l 1,6,-1
 560 0 l 1,7,-1
 477 0 l 1,8,-1
 480 317 l 1,9,-1
 186 317 l 1,10,-1
 189 0 l 1,11,-1
 105 0 l 1,0,-1
EndSplineSet
EndChar

StartChar: I
Encoding: 73 73 44
Width: 295
GlyphClass: 2
Flags: W
LayerCount: 2
Fore
SplineSet
185 388 m 1,0,-1
 190 0 l 1,1,-1
 105 -1 l 1,2,-1
 109 318 l 1,3,-1
 105 695 l 1,4,-1
 190 695 l 1,5,-1
 185 388 l 1,0,-1
EndSplineSet
EndChar

StartChar: J
Encoding: 74 74 45
Width: 316
GlyphClass: 2
Flags: W
LayerCount: 2
Fore
SplineSet
220 695 m 1,0,-1
 220 236 l 2,1,2
 220 -13 220 -13 56 -13 c 1,3,-1
 -7 -6 l 1,4,-1
 2 66 l 1,5,6
 50 60 50 60 72.5 60 c 128,-1,7
 95 60 95 60 108 69 c 0,8,9
 136 90 136 90 136 223 c 2,10,-1
 136 695 l 1,11,-1
 220 695 l 1,0,-1
EndSplineSet
EndChar

StartChar: K
Encoding: 75 75 46
Width: 578
GlyphClass: 2
Flags: W
LayerCount: 2
Fore
SplineSet
472 0 m 1,0,-1
 191 352 l 1,1,-1
 455 695 l 1,2,-1
 553 695 l 1,3,-1
 283 357 l 1,4,-1
 283 351 l 1,5,-1
 579 0 l 1,6,-1
 472 0 l 1,0,-1
190 695 m 1,7,-1
 190 0 l 1,8,-1
 105 0 l 1,9,-1
 110 353 l 1,10,-1
 105 695 l 1,11,-1
 190 695 l 1,7,-1
EndSplineSet
EndChar

StartChar: L
Encoding: 76 76 47
Width: 446
GlyphClass: 2
Flags: W
LayerCount: 2
Fore
SplineSet
105 0 m 1,0,-1
 105 695 l 1,1,-1
 189 695 l 1,2,-1
 184 75 l 1,3,-1
 435 77 l 1,4,-1
 435 0 l 1,5,-1
 105 0 l 1,0,-1
EndSplineSet
EndChar

StartChar: M
Encoding: 77 77 48
Width: 794
GlyphClass: 2
Flags: W
LayerCount: 2
Fore
SplineSet
445 181 m 1,0,-1
 350 181 l 1,1,-1
 195 630 l 1,2,-1
 189 630 l 1,3,-1
 185 0 l 1,4,-1
 101 0 l 1,5,-1
 122 695 l 1,6,-1
 246 695 l 1,7,-1
 394 246 l 1,8,-1
 399 246 l 1,9,-1
 546 695 l 1,10,-1
 670 695 l 1,11,-1
 693 0 l 1,12,-1
 609 0 l 1,13,-1
 603 630 l 1,14,-1
 598 630 l 1,15,-1
 445 181 l 1,0,-1
EndSplineSet
EndChar

StartChar: N
Encoding: 78 78 49
Width: 677
GlyphClass: 2
Flags: W
LayerCount: 2
Fore
SplineSet
105 695 m 1,0,-1
 222 695 l 1,1,-1
 500 79 l 1,2,-1
 505 79 l 1,3,-1
 490 695 l 1,4,-1
 572 695 l 1,5,-1
 572 0 l 1,6,-1
 455 0 l 1,7,-1
 178 616 l 1,8,-1
 174 616 l 1,9,-1
 187 0 l 1,10,-1
 105 0 l 1,11,-1
 105 695 l 1,0,-1
EndSplineSet
EndChar

StartChar: O
Encoding: 79 79 50
Width: 656
GlyphClass: 2
Flags: W
LayerCount: 2
Fore
SplineSet
328 -13 m 128,-1,1
 271 -13 271 -13 228 3 c 128,-1,2
 185 19 185 19 148 58 c 0,3,4
 72 137 72 137 72 349 c 0,5,6
 72 560 72 560 148 638 c 0,7,8
 185 676 185 676 228 692 c 128,-1,9
 271 708 271 708 328 708 c 128,-1,10
 385 708 385 708 428 692 c 128,-1,11
 471 676 471 676 508 638 c 0,12,13
 584 560 584 560 584 349 c 0,14,15
 584 137 584 137 508 58 c 0,16,17
 471 19 471 19 428 3 c 128,-1,0
 385 -13 385 -13 328 -13 c 128,-1,1
180 531.5 m 128,-1,19
 162 469 162 469 162 361 c 128,-1,20
 162 253 162 253 171 197 c 128,-1,21
 180 141 180 141 202.5 111.5 c 128,-1,22
 225 82 225 82 253 73 c 128,-1,23
 281 64 281 64 336 64 c 128,-1,24
 391 64 391 64 424 82 c 0,25,26
 495 121 495 121 495 346 c 0,27,28
 495 573 495 573 425 613 c 0,29,30
 392 632 392 632 328 632 c 128,-1,31
 264 632 264 632 231 613 c 128,-1,18
 198 594 198 594 180 531.5 c 128,-1,19
EndSplineSet
EndChar

StartChar: P
Encoding: 80 80 51
Width: 581
GlyphClass: 2
Flags: W
LayerCount: 2
Fore
SplineSet
189 0 m 1,0,-1
 105 0 l 1,1,-1
 109 322 l 1,2,-1
 105 694 l 1,3,4
 228 708 228 708 326 708 c 0,5,6
 522 708 522 708 522 475 c 0,7,8
 522 231 522 231 314 231 c 1,9,-1
 189 237 l 1,10,-1
 189 0 l 1,0,-1
189 314 m 1,11,12
 260 302 260 302 322.5 302 c 128,-1,13
 385 302 385 302 404 321 c 0,14,15
 433 351 433 351 433 478 c 128,-1,16
 433 605 433 605 399 628 c 0,17,18
 376 644 376 644 309 644 c 128,-1,19
 242 644 242 644 189 633 c 1,20,-1
 189 314 l 1,11,12
EndSplineSet
EndChar

StartChar: Q
Encoding: 81 81 52
Width: 663
GlyphClass: 2
Flags: W
LayerCount: 2
Fore
SplineSet
415 -2 m 1,0,1
 378 -13 378 -13 324.5 -13 c 128,-1,2
 271 -13 271 -13 228 3 c 128,-1,3
 185 19 185 19 148 58 c 0,4,5
 72 137 72 137 72 349 c 0,6,7
 72 560 72 560 148 638 c 0,8,9
 185 676 185 676 228 692 c 128,-1,10
 271 708 271 708 328 708 c 128,-1,11
 385 708 385 708 428 692 c 128,-1,12
 471 676 471 676 508 638 c 0,13,14
 584 560 584 560 584 339.5 c 128,-1,15
 584 119 584 119 482 37 c 1,16,-1
 482 31 l 1,17,-1
 619 -14 l 1,18,-1
 586 -92 l 1,19,-1
 415 -2 l 1,0,1
180 531.5 m 128,-1,21
 162 469 162 469 162 361 c 128,-1,22
 162 253 162 253 171 197 c 128,-1,23
 180 141 180 141 202.5 111.5 c 128,-1,24
 225 82 225 82 253 73 c 128,-1,25
 281 64 281 64 336 64 c 128,-1,26
 391 64 391 64 424 82 c 0,27,28
 495 121 495 121 495 346 c 0,29,30
 495 573 495 573 425 613 c 0,31,32
 392 632 392 632 328 632 c 128,-1,33
 264 632 264 632 231 613 c 128,-1,20
 198 594 198 594 180 531.5 c 128,-1,21
EndSplineSet
EndChar

StartChar: R
Encoding: 82 82 53
Width: 635
GlyphClass: 2
Flags: W
LayerCount: 2
Fore
SplineSet
190 0 m 1,0,-1
 105 0 l 1,1,-1
 110 329 l 1,2,-1
 107 695 l 1,3,4
 204 708 204 708 328 708 c 0,5,6
 550 708 550 708 550 492 c 0,7,8
 550 321 550 321 402 286 c 1,9,-1
 402 282 l 1,10,-1
 559 0 l 1,11,-1
 459 0 l 1,12,-1
 316 276 l 1,13,-1
 190 281 l 1,14,-1
 190 0 l 1,0,-1
189 356 m 1,15,16
 283 346 283 346 346 346 c 128,-1,17
 409 346 409 346 435 379.5 c 128,-1,18
 461 413 461 413 461 493 c 0,19,20
 461 607 461 607 422 630 c 0,21,22
 399 644 399 644 336.5 644 c 128,-1,23
 274 644 274 644 191 633 c 1,24,-1
 189 356 l 1,15,16
EndSplineSet
EndChar

StartChar: S
Encoding: 83 83 54
Width: 511
GlyphClass: 2
Flags: W
LayerCount: 2
Fore
SplineSet
36 51 m 1,0,-1
 66 119 l 1,1,2
 105 98 105 98 162.5 81 c 128,-1,3
 220 64 220 64 262.5 64 c 128,-1,4
 305 64 305 64 326 77 c 1,5,6
 368 106 368 106 368 179 c 0,7,8
 368 230 368 230 337.5 260 c 128,-1,9
 307 290 307 290 261 309.5 c 128,-1,10
 215 329 215 329 199.5 335.5 c 128,-1,11
 184 342 184 342 155 357.5 c 128,-1,12
 126 373 126 373 113.5 386.5 c 128,-1,13
 101 400 101 400 86 420 c 0,14,15
 58 457 58 457 58 531 c 128,-1,16
 58 605 58 605 111.5 656.5 c 128,-1,17
 165 708 165 708 264 708 c 0,18,19
 341 708 341 708 427 686 c 1,20,-1
 413 614 l 1,21,22
 329 632 329 632 266.5 632 c 128,-1,23
 204 632 204 632 182 619 c 0,24,25
 146 599 146 599 146 533 c 0,26,27
 146 489 146 489 175 456 c 0,28,29
 196 433 196 433 248 410 c 0,30,31
 261 404 261 404 295.5 390 c 128,-1,32
 330 376 330 376 353 363 c 128,-1,33
 376 350 376 350 402 327 c 0,34,35
 455 281 455 281 455 190 c 128,-1,36
 455 99 455 99 397 43 c 128,-1,37
 339 -13 339 -13 246 -13 c 0,38,39
 197 -13 197 -13 144.5 3 c 128,-1,40
 92 19 92 19 64 35 c 2,41,-1
 36 51 l 1,0,-1
EndSplineSet
EndChar

StartChar: T
Encoding: 84 84 55
Width: 474
GlyphClass: 2
Flags: W
LayerCount: 2
Fore
SplineSet
2 695 m 1,0,-1
 472 695 l 1,1,-1
 472 619 l 1,2,-1
 277 622 l 1,3,-1
 279 0 l 1,4,-1
 196 0 l 1,5,-1
 198 622 l 1,6,-1
 2 619 l 1,7,-1
 2 695 l 1,0,-1
EndSplineSet
EndChar

StartChar: U
Encoding: 85 85 56
Width: 661
GlyphClass: 2
Flags: W
LayerCount: 2
Fore
SplineSet
472 695 m 1,0,-1
 556 695 l 1,1,-1
 556 311 l 2,2,3
 556 128 556 128 501 57.5 c 128,-1,4
 446 -13 446 -13 330.5 -13 c 128,-1,5
 215 -13 215 -13 160 56.5 c 128,-1,6
 105 126 105 126 105 302 c 2,7,-1
 105 695 l 1,8,-1
 189 695 l 1,9,-1
 189 329 l 2,10,11
 189 207 189 207 201 152.5 c 128,-1,12
 213 98 213 98 240 80.5 c 128,-1,13
 267 63 267 63 317.5 63 c 128,-1,14
 368 63 368 63 390.5 68.5 c 128,-1,15
 413 74 413 74 431 88.5 c 128,-1,16
 449 103 449 103 456 134 c 0,17,18
 472 198 472 198 472 329 c 2,19,-1
 472 695 l 1,0,-1
EndSplineSet
EndChar

StartChar: V
Encoding: 86 86 57
Width: 528
GlyphClass: 2
Flags: W
LayerCount: 2
Fore
SplineSet
264 67 m 1,0,-1
 413 695 l 1,1,-1
 503 695 l 1,2,-1
 315 0 l 1,3,-1
 206 0 l 1,4,-1
 19 695 l 1,5,-1
 108 695 l 1,6,-1
 258 67 l 1,7,-1
 264 67 l 1,0,-1
EndSplineSet
EndChar

StartChar: W
Encoding: 87 87 58
Width: 748
GlyphClass: 2
Flags: W
LayerCount: 2
Fore
SplineSet
312 527 m 1,0,-1
 426 527 l 1,1,-1
 541 74 l 1,2,-1
 547 74 l 1,3,-1
 619 695 l 1,4,-1
 705 695 l 1,5,-1
 603 0 l 1,6,-1
 489 0 l 1,7,-1
 372 455 l 1,8,-1
 367 455 l 1,9,-1
 252 0 l 1,10,-1
 132 0 l 1,11,-1
 33 695 l 1,12,-1
 119 695 l 1,13,-1
 192 74 l 1,14,-1
 197 74 l 1,15,-1
 312 527 l 1,0,-1
EndSplineSet
EndChar

StartChar: X
Encoding: 88 88 59
Width: 536
GlyphClass: 2
Flags: W
LayerCount: 2
Fore
SplineSet
10 0 m 1,0,-1
 210 344 l 1,1,-1
 15 695 l 1,2,-1
 113 695 l 1,3,-1
 257 400 l 1,4,-1
 263 400 l 1,5,-1
 411 695 l 1,6,-1
 508 695 l 1,7,-1
 314 341 l 1,8,-1
 514 0 l 1,9,-1
 417 0 l 1,10,-1
 266 284 l 1,11,-1
 261 284 l 1,12,-1
 107 0 l 1,13,-1
 10 0 l 1,0,-1
EndSplineSet
EndChar

StartChar: Y
Encoding: 89 89 60
Width: 511
GlyphClass: 2
Flags: W
LayerCount: 2
Fore
SplineSet
207 0 m 1,0,-1
 209 259 l 1,1,-1
 5 695 l 1,2,-1
 99 695 l 1,3,-1
 248 329 l 1,4,-1
 252 329 l 1,5,-1
 402 695 l 1,6,-1
 496 695 l 1,7,-1
 291 258 l 1,8,-1
 293 0 l 1,9,-1
 207 0 l 1,0,-1
EndSplineSet
EndChar

StartChar: Z
Encoding: 90 90 61
Width: 531
GlyphClass: 2
Flags: W
LayerCount: 2
Fore
SplineSet
29 0 m 1,0,-1
 29 76 l 1,1,-1
 391 617 l 1,2,-1
 391 623 l 1,3,-1
 49 619 l 1,4,-1
 49 695 l 1,5,-1
 485 695 l 1,6,-1
 485 617 l 1,7,-1
 127 78 l 1,8,-1
 127 73 l 1,9,-1
 489 76 l 1,10,-1
 489 0 l 1,11,-1
 29 0 l 1,0,-1
EndSplineSet
EndChar

StartChar: bracketleft
Encoding: 91 91 62
Width: 311
GlyphClass: 2
Flags: W
LayerCount: 2
Fore
SplineSet
270 -124 m 1,0,-1
 106 -124 l 1,1,-1
 106 783 l 1,2,-1
 270 783 l 1,3,-1
 270 715 l 1,4,-1
 181 718 l 1,5,-1
 181 -59 l 1,6,-1
 270 -56 l 1,7,-1
 270 -124 l 1,0,-1
EndSplineSet
EndChar

StartChar: backslash
Encoding: 92 92 63
Width: 432
GlyphClass: 2
Flags: W
LayerCount: 2
Fore
SplineSet
426 -98 m 1,0,-1
 338 -98 l 1,1,-1
 188 288 l 1,2,-1
 22 695 l 1,3,-1
 111 695 l 1,4,-1
 256 319 l 1,5,-1
 426 -98 l 1,0,-1
EndSplineSet
EndChar

StartChar: bracketright
Encoding: 93 93 64
Width: 311
GlyphClass: 2
Flags: W
LayerCount: 2
Fore
SplineSet
205 783 m 1,0,-1
 205 -124 l 1,1,-1
 41 -124 l 1,2,-1
 41 -56 l 1,3,-1
 131 -59 l 1,4,-1
 131 718 l 1,5,-1
 41 715 l 1,6,-1
 41 783 l 1,7,-1
 205 783 l 1,0,-1
EndSplineSet
EndChar

StartChar: asciicircum
Encoding: 94 94 65
Width: 506
GlyphClass: 2
Flags: W
LayerCount: 2
Fore
SplineSet
133 316 m 1,0,-1
 58 325 l 1,1,-1
 204 695 l 1,2,-1
 302 695 l 1,3,-1
 448 325 l 1,4,-1
 374 316 l 1,5,-1
 257 630 l 1,6,-1
 250 630 l 1,7,-1
 133 316 l 1,0,-1
EndSplineSet
EndChar

StartChar: underscore
Encoding: 95 95 66
Width: 536
GlyphClass: 2
Flags: W
LayerCount: 2
Fore
SplineSet
16 -161 m 1,0,-1
 16 -91 l 1,1,-1
 520 -91 l 1,2,-1
 520 -161 l 1,3,-1
 16 -161 l 1,0,-1
EndSplineSet
EndChar

StartChar: grave
Encoding: 96 96 67
Width: 597
GlyphClass: 2
Flags: W
LayerCount: 2
Fore
SplineSet
170 735 m 1,0,-1
 200 802 l 1,1,-1
 422 707 l 1,2,-1
 402 657 l 1,3,-1
 170 735 l 1,0,-1
EndSplineSet
EndChar

StartChar: a
Encoding: 97 97 68
Width: 568
GlyphClass: 2
Flags: W
LayerCount: 2
Fore
SplineSet
284 358 m 2,0,-1
 390 358 l 1,1,2
 390 475 390 475 372.5 499 c 128,-1,3
 355 523 355 523 308 523 c 128,-1,4
 261 523 261 523 208.5 510.5 c 128,-1,5
 156 498 156 498 96 473 c 1,6,-1
 67 538 l 1,7,8
 80 544 80 544 101.5 553.5 c 128,-1,9
 123 563 123 563 182 579 c 128,-1,10
 241 595 241 595 290 595 c 0,11,12
 473 595 473 595 473 383 c 2,13,-1
 473 0 l 1,14,-1
 419 0 l 1,15,-1
 407 61 l 1,16,-1
 401 61 l 1,17,18
 391 53 391 53 373 40.5 c 128,-1,19
 355 28 355 28 305 7.5 c 128,-1,20
 255 -13 255 -13 211 -13 c 0,21,22
 140 -13 140 -13 97 35.5 c 128,-1,23
 54 84 54 84 54 178.5 c 128,-1,24
 54 273 54 273 113 315.5 c 128,-1,25
 172 358 172 358 284 358 c 2,0,-1
390 281 m 1,26,27
 347 288 347 288 268.5 288 c 128,-1,28
 190 288 190 288 168 269 c 1,29,30
 141 248 141 248 141 180.5 c 128,-1,31
 141 113 141 113 160.5 87 c 128,-1,32
 180 61 180 61 219.5 61 c 128,-1,33
 259 61 259 61 300 74.5 c 128,-1,34
 341 88 341 88 390 115 c 1,35,-1
 390 281 l 1,26,27
EndSplineSet
EndChar

StartChar: b
Encoding: 98 98 69
Width: 576
GlyphClass: 2
Flags: W
LayerCount: 2
Fore
SplineSet
90 753 m 1,0,-1
 173 753 l 1,1,-1
 173 573 l 1,2,3
 266 595 266 595 324 595 c 0,4,5
 506 595 506 595 506 301 c 0,6,7
 506 -13 506 -13 305 -13 c 0,8,9
 264 -13 264 -13 198.5 -1.5 c 128,-1,10
 133 10 133 10 90 25 c 1,11,-1
 90 753 l 1,0,-1
173 77 m 1,12,13
 236 60 236 60 295 60 c 128,-1,14
 354 60 354 60 373 76 c 1,15,16
 419 119 419 119 419 299 c 128,-1,17
 419 479 419 479 387 505 c 0,18,19
 366 521 366 521 326 521 c 0,20,21
 255 521 255 521 173 495 c 1,22,-1
 173 77 l 1,12,13
EndSplineSet
EndChar

StartChar: c
Encoding: 99 99 70
Width: 518
GlyphClass: 2
Flags: W
LayerCount: 2
Fore
SplineSet
305 522 m 0,0,1
 229 522 229 522 203 496 c 1,2,3
 183 474 183 474 170 417.5 c 128,-1,4
 157 361 157 361 157 287 c 0,5,6
 157 119 157 119 221 75 c 0,7,8
 243 59 243 59 279.5 59 c 128,-1,9
 316 59 316 59 358.5 70.5 c 128,-1,10
 401 82 401 82 451 105 c 1,11,-1
 477 40 l 1,12,13
 469 34 469 34 454.5 25 c 128,-1,14
 440 16 440 16 393.5 1.5 c 128,-1,15
 347 -13 347 -13 300 -13 c 0,16,17
 192 -13 192 -13 131 61.5 c 128,-1,18
 70 136 70 136 70 297.5 c 128,-1,19
 70 459 70 459 137 527 c 128,-1,20
 204 595 204 595 321 595 c 0,21,22
 397 595 397 595 463 579 c 1,23,-1
 453 509 l 1,24,25
 345 522 345 522 305 522 c 0,0,1
EndSplineSet
EndChar

StartChar: d
Encoding: 100 100 71
Width: 581
GlyphClass: 2
Flags: W
LayerCount: 2
Fore
SplineSet
491 753 m 1,0,-1
 491 0 l 1,1,-1
 436 0 l 1,2,-1
 425 60 l 1,3,-1
 419 60 l 1,4,5
 411 52 411 52 396 40 c 128,-1,6
 381 28 381 28 337.5 7.5 c 128,-1,7
 294 -13 294 -13 254 -13 c 0,8,9
 169 -13 169 -13 119.5 60.5 c 128,-1,10
 70 134 70 134 70 280 c 0,11,12
 70 595 70 595 277 595 c 0,13,14
 330 595 330 595 408 574 c 1,15,-1
 408 753 l 1,16,-1
 491 753 l 1,0,-1
408 494 m 1,17,18
 344 521 344 521 278.5 521 c 128,-1,19
 213 521 213 521 193 497 c 1,20,21
 157 450 157 450 157 279.5 c 128,-1,22
 157 109 157 109 202 74 c 1,23,24
 215 62 215 62 252.5 62 c 128,-1,25
 290 62 290 62 327.5 75 c 128,-1,26
 365 88 365 88 408 114 c 1,27,-1
 408 494 l 1,17,18
EndSplineSet
EndChar

StartChar: e
Encoding: 101 101 72
Width: 569
GlyphClass: 2
Flags: W
LayerCount: 2
Fore
SplineSet
302 -13 m 0,0,1
 70 -13 70 -13 70 291 c 128,-1,2
 70 595 70 595 300 595 c 0,3,4
 402 595 402 595 453 531.5 c 128,-1,5
 504 468 504 468 504 321 c 2,6,-1
 504 259 l 1,7,-1
 158 259 l 1,8,9
 158 124 158 124 201 84 c 0,10,11
 228 60 228 60 275 60 c 0,12,13
 359 60 359 60 440 88 c 1,14,-1
 467 98 l 1,15,-1
 488 30 l 1,16,17
 404 -13 404 -13 302 -13 c 0,0,1
396 493 m 1,18,19
 376 523 376 523 298 523 c 128,-1,20
 220 523 220 523 189 482 c 128,-1,21
 158 441 158 441 158 325 c 1,22,-1
 419 330 l 1,23,24
 419 455 419 455 396 493 c 1,18,19
EndSplineSet
EndChar

StartChar: f
Encoding: 102 102 73
Width: 338
GlyphClass: 2
Flags: W
LayerCount: 2
Fore
SplineSet
198 548 m 1,0,-1
 325 548 l 1,1,-1
 325 481 l 1,2,-1
 198 481 l 1,3,-1
 198 0 l 1,4,-1
 115 0 l 1,5,-1
 115 484 l 1,6,-1
 50 484 l 1,7,-1
 50 535 l 1,8,-1
 115 548 l 1,9,10
 119 668 119 668 163 717 c 128,-1,11
 207 766 207 766 287 766 c 1,12,-1
 343 764 l 1,13,-1
 337 694 l 1,14,15
 286 696 286 696 263 696 c 128,-1,16
 240 696 240 696 226 688 c 0,17,18
 198 670 198 670 198 548 c 1,0,-1
EndSplineSet
EndChar

StartChar: g
Encoding: 103 103 74
Width: 521
GlyphClass: 2
Flags: W
LayerCount: 2
Fore
SplineSet
456 385 m 0,0,1
 456 297 456 297 399.5 242.5 c 128,-1,2
 343 188 343 188 245 188 c 1,3,4
 235 129 235 129 235 125.5 c 128,-1,5
 235 122 235 122 256.5 113 c 128,-1,6
 278 104 278 104 284 102 c 0,7,8
 314 89 314 89 325 84 c 0,9,10
 406 50 406 50 437.5 17 c 128,-1,11
 469 -16 469 -16 469 -52 c 0,12,13
 469 -112 469 -112 410 -145.5 c 128,-1,14
 351 -179 351 -179 253 -179 c 0,15,16
 205 -179 205 -179 157 -172.5 c 128,-1,17
 109 -166 109 -166 61 -152 c 1,18,-1
 71 -77 l 1,19,20
 215 -102 215 -102 284.5 -102 c 128,-1,21
 354 -102 354 -102 374 -93.5 c 128,-1,22
 394 -85 394 -85 394 -64 c 128,-1,23
 394 -43 394 -43 371 -27 c 0,24,25
 339 -5 339 -5 242.5 34.5 c 128,-1,26
 146 74 146 74 146 79 c 1,27,-1
 193 194 l 1,28,29
 125 210 125 210 86 261 c 128,-1,30
 47 312 47 312 47 382 c 0,31,32
 47 496 47 496 110.5 545.5 c 128,-1,33
 174 595 174 595 277 595 c 0,34,35
 338 595 338 595 488 583 c 1,36,-1
 488 530 l 1,37,-1
 422 520 l 1,38,39
 456 445 456 445 456 385 c 0,0,1
158 493.5 m 128,-1,41
 128 466 128 466 128 391 c 128,-1,42
 128 316 128 316 155.5 289 c 128,-1,43
 183 262 183 262 251.5 262 c 128,-1,44
 320 262 320 262 348 288.5 c 128,-1,45
 376 315 376 315 376 387 c 0,46,47
 376 457 376 457 368 484.5 c 128,-1,48
 360 512 360 512 356 514 c 1,49,50
 350 519 350 519 261 521 c 1,51,40
 188 521 188 521 158 493.5 c 128,-1,41
EndSplineSet
EndChar

StartChar: h
Encoding: 104 104 75
Width: 584
GlyphClass: 2
Flags: W
LayerCount: 2
Fore
SplineSet
168 0 m 1,0,-1
 85 0 l 1,1,-1
 85 753 l 1,2,-1
 168 753 l 1,3,-1
 168 546 l 1,4,5
 281 595 281 595 344 595 c 0,6,7
 429 595 429 595 462.5 544.5 c 128,-1,8
 496 494 496 494 496 387 c 2,9,-1
 496 0 l 1,10,-1
 413 0 l 1,11,-1
 413 358 l 2,12,13
 413 467 413 467 393 496 c 0,14,15
 378 517 378 517 340 517 c 0,16,17
 268 517 268 517 193 486 c 1,18,-1
 168 475 l 1,19,-1
 168 0 l 1,0,-1
EndSplineSet
EndChar

StartChar: i
Encoding: 105 105 76
Width: 295
GlyphClass: 2
Flags: W
LayerCount: 2
Fore
SplineSet
189 0 m 1,0,-1
 106 0 l 1,1,-1
 106 582 l 1,2,-1
 189 582 l 1,3,-1
 189 0 l 1,0,-1
199 668 m 1,4,-1
 97 668 l 1,5,-1
 97 753 l 1,6,-1
 199 753 l 1,7,-1
 199 668 l 1,4,-1
EndSplineSet
EndChar

StartChar: j
Encoding: 106 106 77
Width: 307
GlyphClass: 2
Flags: W
LayerCount: 2
Fore
SplineSet
201 582 m 1,0,-1
 201 55 l 2,1,2
 201 -178 201 -178 43 -178 c 1,3,-1
 -17 -173 l 1,4,-1
 -8 -99 l 1,5,6
 20 -103 20 -103 51 -103 c 128,-1,7
 82 -103 82 -103 94 -94 c 0,8,9
 118 -78 118 -78 118 52 c 2,10,-1
 118 582 l 1,11,-1
 201 582 l 1,0,-1
211 668 m 1,12,-1
 109 668 l 1,13,-1
 109 753 l 1,14,-1
 211 753 l 1,15,-1
 211 668 l 1,12,-1
EndSplineSet
EndChar

StartChar: k
Encoding: 107 107 78
Width: 522
GlyphClass: 2
Flags: W
LayerCount: 2
Fore
SplineSet
173 753 m 1,0,-1
 173 0 l 1,1,-1
 90 0 l 1,2,-1
 95 321 l 1,3,-1
 90 753 l 1,4,-1
 173 753 l 1,0,-1
174 314 m 1,5,-1
 406 582 l 1,6,-1
 513 582 l 1,7,-1
 266 319 l 1,8,-1
 266 314 l 1,9,-1
 531 0 l 1,10,-1
 423 0 l 1,11,-1
 174 314 l 1,5,-1
EndSplineSet
EndChar

StartChar: l
Encoding: 108 108 79
Width: 263
GlyphClass: 2
Flags: W
LayerCount: 2
Fore
SplineSet
173 0 m 1,0,-1
 90 0 l 1,1,-1
 90 753 l 1,2,-1
 173 753 l 1,3,-1
 173 0 l 1,0,-1
EndSplineSet
EndChar

StartChar: m
Encoding: 109 109 80
Width: 917
GlyphClass: 2
Flags: W
LayerCount: 2
Fore
SplineSet
354 516 m 0,0,1
 288 516 288 516 184 464 c 1,2,-1
 184 0 l 1,3,-1
 101 0 l 1,4,-1
 101 582 l 1,5,-1
 157 582 l 1,6,-1
 166 525 l 1,7,-1
 171 525 l 1,8,9
 288 595 288 595 369 595 c 0,10,11
 412 595 412 595 443 575 c 128,-1,12
 474 555 474 555 488 520 c 1,13,14
 526 543 526 543 550 556 c 128,-1,15
 574 569 574 569 614.5 582 c 128,-1,16
 655 595 655 595 691 595 c 0,17,18
 768 595 768 595 798.5 541.5 c 128,-1,19
 829 488 829 488 829 383 c 2,20,-1
 829 0 l 1,21,-1
 746 0 l 1,22,-1
 746 355 l 2,23,24
 746 470 746 470 731.5 493 c 128,-1,25
 717 516 717 516 675 516 c 0,26,27
 603 516 603 516 503 459 c 1,28,29
 507 415 507 415 507 387 c 2,30,-1
 507 0 l 1,31,-1
 424 0 l 1,32,-1
 424 358 l 2,33,34
 424 422 424 422 421 450 c 128,-1,35
 418 478 418 478 405.5 497 c 128,-1,36
 393 516 393 516 354 516 c 0,0,1
EndSplineSet
EndChar

StartChar: n
Encoding: 110 110 81
Width: 601
GlyphClass: 2
Flags: W
LayerCount: 2
Fore
SplineSet
184 0 m 1,0,-1
 101 0 l 1,1,-1
 101 582 l 1,2,-1
 157 582 l 1,3,-1
 166 525 l 1,4,-1
 171 525 l 1,5,6
 291 595 291 595 379 595 c 0,7,8
 458 595 458 595 488 534 c 0,9,10
 513 483 513 483 513 387 c 2,11,-1
 513 0 l 1,12,-1
 429 0 l 1,13,-1
 429 358 l 2,14,15
 429 472 429 472 414.5 494 c 128,-1,16
 400 516 400 516 360 516 c 0,17,18
 284 516 284 516 184 463 c 1,19,-1
 184 0 l 1,0,-1
EndSplineSet
EndChar

StartChar: o
Encoding: 111 111 82
Width: 576
GlyphClass: 2
Flags: W
LayerCount: 2
Fore
SplineSet
119.5 517.5 m 128,-1,1
 169 595 169 595 287.5 595 c 128,-1,2
 406 595 406 595 456 517.5 c 128,-1,3
 506 440 506 440 506 291 c 128,-1,4
 506 142 506 142 456 64.5 c 128,-1,5
 406 -13 406 -13 287.5 -13 c 128,-1,6
 169 -13 169 -13 119.5 64 c 128,-1,7
 70 141 70 141 70 290.5 c 128,-1,0
 70 440 70 440 119.5 517.5 c 128,-1,1
288 523 m 128,-1,9
 234 523 234 523 207.5 506 c 128,-1,10
 181 489 181 489 167.5 439.5 c 128,-1,11
 154 390 154 390 154 291 c 128,-1,12
 154 192 154 192 167 142 c 128,-1,13
 180 92 180 92 207 75 c 128,-1,14
 234 58 234 58 288 58 c 128,-1,15
 342 58 342 58 368.5 75 c 128,-1,16
 395 92 395 92 408 142 c 128,-1,17
 421 192 421 192 421 291 c 128,-1,18
 421 390 421 390 408 439.5 c 128,-1,19
 395 489 395 489 368.5 506 c 128,-1,8
 342 523 342 523 288 523 c 128,-1,9
EndSplineSet
EndChar

StartChar: p
Encoding: 112 112 83
Width: 577
GlyphClass: 2
Flags: W
LayerCount: 2
Fore
SplineSet
168 -166 m 1,0,-1
 85 -166 l 1,1,-1
 85 582 l 1,2,-1
 141 582 l 1,3,-1
 152 523 l 1,4,-1
 157 523 l 1,5,6
 159 524 159 524 179 538 c 128,-1,7
 199 552 199 552 217.5 563 c 128,-1,8
 236 574 236 574 268 584.5 c 128,-1,9
 300 595 300 595 331 595 c 0,10,11
 415 595 415 595 461 523 c 128,-1,12
 507 451 507 451 507 302 c 0,13,14
 507 -13 507 -13 296 -13 c 0,15,16
 250 -13 250 -13 168 1 c 1,17,-1
 168 -166 l 1,0,-1
168 81 m 1,18,19
 253 60 253 60 303 60 c 128,-1,20
 353 60 353 60 372 76 c 0,21,22
 419 115 419 115 419 318 c 0,23,24
 419 474 419 474 390 503 c 0,25,26
 373 520 373 520 336 520 c 128,-1,27
 299 520 299 520 257.5 506.5 c 128,-1,28
 216 493 216 493 168 466 c 1,29,-1
 168 81 l 1,18,19
EndSplineSet
EndChar

StartChar: q
Encoding: 113 113 84
Width: 577
GlyphClass: 2
Flags: W
LayerCount: 2
Fore
SplineSet
487 -166 m 1,0,-1
 404 -166 l 1,1,-1
 404 20 l 1,2,3
 330 -13 330 -13 260 -13 c 0,4,5
 70 -13 70 -13 70 302 c 0,6,7
 70 463 70 463 121.5 529 c 128,-1,8
 173 595 173 595 281 595 c 0,9,10
 323 595 323 595 374.5 586.5 c 128,-1,11
 426 578 426 578 487 561 c 1,12,-1
 487 -166 l 1,0,-1
404 506 m 1,13,14
 346 522 346 522 277 522 c 128,-1,15
 208 522 208 522 190 501 c 0,16,17
 157 463 157 463 157 292 c 128,-1,18
 157 121 157 121 197 79 c 0,19,20
 215 61 215 61 250 61 c 0,21,22
 318 61 318 61 382 85 c 2,23,-1
 404 93 l 1,24,-1
 404 506 l 1,13,14
EndSplineSet
EndChar

StartChar: r
Encoding: 114 114 85
Width: 395
GlyphClass: 2
Flags: W
LayerCount: 2
Fore
SplineSet
368 510 m 1,0,1
 345 512 345 512 318.5 512 c 128,-1,2
 292 512 292 512 250 496 c 128,-1,3
 208 480 208 480 184 461 c 1,4,-1
 184 0 l 1,5,-1
 101 0 l 1,6,-1
 101 582 l 1,7,-1
 154 582 l 1,8,-1
 165 523 l 1,9,-1
 171 523 l 1,10,11
 212 553 212 553 258 574 c 128,-1,12
 304 595 304 595 334 595 c 1,13,-1
 375 590 l 1,14,-1
 368 510 l 1,0,1
EndSplineSet
EndChar

StartChar: s
Encoding: 115 115 86
Width: 492
GlyphClass: 2
Flags: W
LayerCount: 2
Fore
SplineSet
393 501 m 1,0,1
 314 523 314 523 244 523 c 128,-1,2
 174 523 174 523 154 508 c 128,-1,3
 134 493 134 493 134 450 c 0,4,5
 134 412 134 412 148.5 397.5 c 128,-1,6
 163 383 163 383 171 376 c 128,-1,7
 179 369 179 369 198 361.5 c 128,-1,8
 217 354 217 354 226 351 c 0,9,10
 263 340 263 340 293 332 c 0,11,12
 360 313 360 313 397 278 c 128,-1,13
 434 243 434 243 434 164.5 c 128,-1,14
 434 86 434 86 384.5 36.5 c 128,-1,15
 335 -13 335 -13 245 -13 c 0,16,17
 201 -13 201 -13 153.5 -1 c 128,-1,18
 106 11 106 11 55 35 c 1,19,-1
 76 106 l 1,20,21
 167 59 167 59 260 59 c 0,22,23
 305 59 305 59 324 75 c 0,24,25
 353 100 353 100 353 153 c 0,26,27
 353 219 353 219 292 246 c 0,28,29
 268 257 268 257 225 269.5 c 128,-1,30
 182 282 182 282 166.5 287 c 128,-1,31
 151 292 151 292 125.5 305.5 c 128,-1,32
 100 319 100 319 88 334 c 0,33,34
 56 374 56 374 56 437 c 0,35,36
 56 595 56 595 246 595 c 0,37,38
 334 595 334 595 406 571 c 1,39,-1
 393 501 l 1,0,1
EndSplineSet
EndChar

StartChar: t
Encoding: 116 116 87
Width: 364
GlyphClass: 2
Flags: W
LayerCount: 2
Fore
SplineSet
194 548 m 1,0,-1
 310 548 l 1,1,-1
 310 481 l 1,2,-1
 194 481 l 1,3,-1
 194 179 l 2,4,5
 194 95 194 95 202.5 78 c 128,-1,6
 211 61 211 61 255 61 c 1,7,-1
 309 63 l 1,8,-1
 309 -4 l 1,9,10
 288 -9 288 -9 253 -9 c 0,11,12
 181 -9 181 -9 146 30.5 c 128,-1,13
 111 70 111 70 111 185 c 2,14,-1
 111 483 l 1,15,-1
 45 483 l 1,16,-1
 45 535 l 1,17,-1
 114 549 l 1,18,-1
 136 685 l 1,19,-1
 194 685 l 1,20,-1
 194 548 l 1,0,-1
EndSplineSet
EndChar

StartChar: u
Encoding: 117 117 88
Width: 600
GlyphClass: 2
Flags: W
LayerCount: 2
Fore
SplineSet
416 582 m 1,0,-1
 499 582 l 1,1,-1
 499 0 l 1,2,-1
 443 0 l 1,3,-1
 433 56 l 1,4,-1
 428 56 l 2,5,6
 427 56 427 56 397.5 39.5 c 128,-1,7
 368 23 368 23 349 14 c 0,8,9
 288 -13 288 -13 234 -13 c 0,10,11
 88 -13 88 -13 88 195 c 2,12,-1
 88 582 l 1,13,-1
 171 582 l 1,14,-1
 171 224 l 2,15,16
 171 109 171 109 184.5 86.5 c 128,-1,17
 198 64 198 64 249.5 64 c 128,-1,18
 301 64 301 64 416 117 c 1,19,-1
 416 582 l 1,0,-1
EndSplineSet
EndChar

StartChar: v
Encoding: 118 118 89
Width: 474
GlyphClass: 2
Flags: W
LayerCount: 2
Fore
SplineSet
459 582 m 1,0,-1
 286 0 l 1,1,-1
 183 0 l 1,2,-1
 14 582 l 1,3,-1
 104 582 l 1,4,-1
 232 68 l 1,5,-1
 238 68 l 1,6,-1
 369 582 l 1,7,-1
 459 582 l 1,0,-1
EndSplineSet
EndChar

StartChar: w
Encoding: 119 119 90
Width: 727
GlyphClass: 2
Flags: W
LayerCount: 2
Fore
SplineSet
702 582 m 1,0,-1
 585 0 l 1,1,-1
 462 0 l 1,2,-1
 364 458 l 1,3,-1
 358 458 l 1,4,-1
 260 0 l 1,5,-1
 138 0 l 1,6,-1
 21 582 l 1,7,-1
 105 582 l 1,8,-1
 196 48 l 1,9,-1
 201 48 l 1,10,-1
 300 505 l 1,11,-1
 423 505 l 1,12,-1
 521 48 l 1,13,-1
 527 48 l 1,14,-1
 617 582 l 1,15,-1
 702 582 l 1,0,-1
EndSplineSet
EndChar

StartChar: x
Encoding: 120 120 91
Width: 491
GlyphClass: 2
Flags: W
LayerCount: 2
Fore
SplineSet
291 301 m 1,0,-1
 466 0 l 1,1,-1
 369 0 l 1,2,-1
 242 251 l 1,3,-1
 237 251 l 1,4,-1
 113 0 l 1,5,-1
 17 0 l 1,6,-1
 191 303 l 1,7,-1
 19 582 l 1,8,-1
 113 582 l 1,9,-1
 240 349 l 1,10,-1
 246 349 l 1,11,-1
 369 582 l 1,12,-1
 463 582 l 1,13,-1
 291 301 l 1,0,-1
EndSplineSet
EndChar

StartChar: y
Encoding: 121 121 92
Width: 479
GlyphClass: 2
Flags: W
LayerCount: 2
Fore
SplineSet
125 -166 m 1,0,-1
 204 57 l 1,1,-1
 3 582 l 1,2,-1
 101 582 l 1,3,-1
 238 155 l 1,4,-1
 243 155 l 1,5,-1
 379 582 l 1,6,-1
 469 582 l 1,7,-1
 267 37 l 1,8,-1
 213 -166 l 1,9,-1
 125 -166 l 1,0,-1
EndSplineSet
EndChar

StartChar: z
Encoding: 122 122 93
Width: 471
GlyphClass: 2
Flags: W
LayerCount: 2
Fore
SplineSet
34 0 m 1,0,-1
 34 67 l 1,1,-1
 333 512 l 1,2,-1
 333 518 l 1,3,-1
 47 513 l 1,4,-1
 47 582 l 1,5,-1
 429 582 l 1,6,-1
 429 515 l 1,7,-1
 131 70 l 1,8,-1
 131 64 l 1,9,-1
 435 69 l 1,10,-1
 435 0 l 1,11,-1
 34 0 l 1,0,-1
EndSplineSet
EndChar

StartChar: braceleft
Encoding: 123 123 94
Width: 417
GlyphClass: 2
Flags: W
LayerCount: 2
Fore
SplineSet
176 493 m 2,0,-1
 176 592 l 2,1,2
 176 784 176 784 330 784 c 1,3,-1
 383 781 l 1,4,-1
 379 716 l 1,5,6
 339 719 339 719 319 719 c 0,7,8
 285 719 285 719 272 695 c 128,-1,9
 259 671 259 671 259 590 c 2,10,-1
 259 492 l 2,11,12
 259 447 259 447 247.5 415 c 128,-1,13
 236 383 236 383 218 368 c 0,14,15
 186 343 186 343 166 341 c 1,16,-1
 165 341 l 1,17,-1
 165 335 l 1,18,19
 185 333 185 333 216 308 c 1,20,21
 235 294 235 294 247 261 c 128,-1,22
 259 228 259 228 259 182 c 2,23,-1
 259 77 l 2,24,25
 259 -7 259 -7 273 -33 c 128,-1,26
 287 -59 287 -59 321 -59 c 1,27,-1
 379 -56 l 1,28,-1
 383 -122 l 1,29,30
 351 -124 351 -124 333 -124 c 0,31,32
 176 -124 176 -124 176 77 c 2,33,-1
 176 186 l 2,34,35
 176 251 176 251 154 270.5 c 128,-1,36
 132 290 132 290 56 302 c 1,37,-1
 56 376 l 1,38,39
 130 387 130 387 153 408 c 128,-1,40
 176 429 176 429 176 493 c 2,0,-1
EndSplineSet
EndChar

StartChar: bar
Encoding: 124 124 95
Width: 280
GlyphClass: 2
Flags: W
LayerCount: 2
Fore
SplineSet
177 -81 m 1,0,-1
 103 -81 l 1,1,-1
 103 753 l 1,2,-1
 177 753 l 1,3,-1
 177 -81 l 1,0,-1
EndSplineSet
EndChar

StartChar: braceright
Encoding: 125 125 96
Width: 417
GlyphClass: 2
Flags: W
LayerCount: 2
Fore
SplineSet
241 186 m 2,0,-1
 241 77 l 2,1,2
 241 -124 241 -124 84 -124 c 1,3,-1
 34 -122 l 1,4,-1
 38 -56 l 1,5,6
 78 -59 78 -59 96 -59 c 0,7,8
 130 -59 130 -59 144 -33 c 128,-1,9
 158 -7 158 -7 158 77 c 2,10,-1
 158 182 l 2,11,12
 158 228 158 228 170 261 c 128,-1,13
 182 294 182 294 200 308 c 0,14,15
 232 333 232 333 252 335 c 1,16,-1
 252 341 l 1,17,-1
 251 341 l 1,18,19
 231 343 231 343 199 368 c 0,20,21
 181 383 181 383 169.5 415 c 128,-1,22
 158 447 158 447 158 492 c 2,23,-1
 158 589 l 2,24,25
 158 670 158 670 145 694.5 c 128,-1,26
 132 719 132 719 98 719 c 1,27,-1
 38 716 l 1,28,-1
 34 781 l 1,29,30
 65 784 65 784 87 784 c 0,31,32
 241 784 241 784 241 591 c 2,33,-1
 241 493 l 2,34,35
 241 429 241 429 264 408 c 128,-1,36
 287 387 287 387 361 376 c 1,37,-1
 361 302 l 1,38,39
 285 290 285 290 263 270.5 c 128,-1,40
 241 251 241 251 241 186 c 2,0,-1
EndSplineSet
EndChar

StartChar: asciitilde
Encoding: 126 126 97
Width: 524
GlyphClass: 2
Flags: W
LayerCount: 2
Fore
SplineSet
380 215 m 0,0,1
 358 215 358 215 264.5 252 c 128,-1,2
 171 289 171 289 140 289 c 128,-1,3
 109 289 109 289 57 247 c 1,4,-1
 27 289 l 1,5,6
 97 363 97 363 145 363 c 0,7,8
 182 363 182 363 270 326.5 c 128,-1,9
 358 290 358 290 387 290 c 128,-1,10
 416 290 416 290 464 319 c 1,11,-1
 490 278 l 1,12,13
 443 215 443 215 380 215 c 0,0,1
EndSplineSet
EndChar

StartChar: exclamdown
Encoding: 161 161 98
Width: 268
GlyphClass: 2
Flags: W
LayerCount: 2
Fore
SplineSet
103 393 m 1,0,-1
 168 393 l 1,1,-1
 182 -112 l 1,2,-1
 89 -112 l 1,3,-1
 103 393 l 1,0,-1
80 493 m 1,4,-1
 80 582 l 1,5,-1
 188 582 l 1,6,-1
 188 493 l 1,7,-1
 80 493 l 1,4,-1
EndSplineSet
EndChar

StartChar: cent
Encoding: 162 162 99
Width: 518
GlyphClass: 2
Flags: W
LayerCount: 2
Fore
SplineSet
305 522 m 0,0,1
 229 522 229 522 203 496 c 1,2,3
 183 474 183 474 170 417.5 c 128,-1,4
 157 361 157 361 157 287 c 0,5,6
 157 119 157 119 221 75 c 0,7,8
 243 59 243 59 279.5 59 c 128,-1,9
 316 59 316 59 358.5 70.5 c 128,-1,10
 401 82 401 82 451 105 c 1,11,-1
 477 40 l 1,12,13
 424 0 424 0 342 -10 c 1,14,-1
 342 -118 l 1,15,-1
 269 -118 l 1,16,-1
 269 -11 l 1,17,18
 175 -2 175 -2 122.5 73 c 128,-1,19
 70 148 70 148 70 293 c 0,20,21
 70 564 70 564 269 592 c 1,22,-1
 269 694 l 1,23,-1
 342 694 l 1,24,-1
 342 595 l 1,25,26
 409 592 409 592 463 579 c 1,27,-1
 453 509 l 1,28,29
 345 522 345 522 305 522 c 0,0,1
EndSplineSet
EndChar

StartChar: sterling
Encoding: 163 163 100
Width: 557
GlyphClass: 2
Flags: W
LayerCount: 2
Fore
SplineSet
72 346 m 1,0,-1
 72 411 l 1,1,-1
 160 411 l 1,2,3
 162 575 162 575 221.5 641.5 c 128,-1,4
 281 708 281 708 383 708 c 0,5,6
 447 708 447 708 503 692 c 1,7,-1
 494 622 l 1,8,9
 411 635 411 635 372 635 c 0,10,11
 306 635 306 635 284 609 c 0,12,13
 247 564 247 564 244 411 c 1,14,-1
 424 411 l 1,15,-1
 424 346 l 1,16,-1
 244 346 l 1,17,-1
 244 75 l 1,18,-1
 488 77 l 1,19,-1
 488 0 l 1,20,-1
 72 0 l 1,21,-1
 72 74 l 1,22,-1
 160 74 l 1,23,-1
 160 346 l 1,24,-1
 72 346 l 1,0,-1
EndSplineSet
EndChar

StartChar: currency
Encoding: 164 164 101
Width: 649
GlyphClass: 2
Flags: W
LayerCount: 2
Fore
SplineSet
191 544 m 1,0,1
 256 586 256 586 328.5 586 c 128,-1,2
 401 586 401 586 463 546 c 1,3,-1
 521 603 l 1,4,-1
 577 548 l 1,5,-1
 520 492 l 1,6,7
 565 431 565 431 565 351.5 c 128,-1,8
 565 272 565 272 523 211 c 1,9,-1
 580 154 l 1,10,-1
 524 100 l 1,11,-1
 467 155 l 1,12,13
 402 113 402 113 327.5 113 c 128,-1,14
 253 113 253 113 186 158 c 1,15,-1
 129 101 l 1,16,-1
 75 157 l 1,17,-1
 132 214 l 1,18,19
 92 273 92 273 92 350.5 c 128,-1,20
 92 428 92 428 134 489 c 1,21,-1
 78 546 l 1,22,-1
 133 602 l 1,23,-1
 191 544 l 1,0,1
329 512 m 128,-1,25
 256 512 256 512 214 472.5 c 128,-1,26
 172 433 172 433 172 349.5 c 128,-1,27
 172 266 172 266 214 226.5 c 128,-1,28
 256 187 256 187 333.5 187 c 128,-1,29
 411 187 411 187 448 225 c 128,-1,30
 485 263 485 263 485 348 c 128,-1,31
 485 433 485 433 443.5 472.5 c 128,-1,24
 402 512 402 512 329 512 c 128,-1,25
EndSplineSet
EndChar

StartChar: yen
Encoding: 165 165 102
Width: 544
GlyphClass: 2
Flags: W
LayerCount: 2
Fore
SplineSet
47 270 m 1,0,-1
 47 336 l 1,1,-1
 196 335 l 1,2,-1
 25 695 l 1,3,-1
 119 695 l 1,4,-1
 268 336 l 1,5,-1
 274 336 l 1,6,-1
 422 695 l 1,7,-1
 516 695 l 1,8,-1
 344 335 l 1,9,-1
 494 336 l 1,10,-1
 494 270 l 1,11,-1
 47 270 l 1,0,-1
47 146 m 1,12,-1
 47 212 l 1,13,-1
 494 212 l 1,14,-1
 494 146 l 1,15,-1
 311 146 l 1,16,-1
 311 0 l 1,17,-1
 228 0 l 1,18,-1
 228 146 l 1,19,-1
 47 146 l 1,12,-1
EndSplineSet
EndChar

StartChar: brokenbar
Encoding: 166 166 103
Width: 280
GlyphClass: 2
Flags: W
LayerCount: 2
Fore
SplineSet
177 403 m 1,0,-1
 103 403 l 1,1,-1
 103 753 l 1,2,-1
 177 753 l 1,3,-1
 177 403 l 1,0,-1
177 -81 m 1,4,-1
 103 -81 l 1,5,-1
 103 269 l 1,6,-1
 177 269 l 1,7,-1
 177 -81 l 1,4,-1
EndSplineSet
EndChar

StartChar: section
Encoding: 167 167 104
Width: 521
GlyphClass: 2
Flags: W
LayerCount: 2
Fore
SplineSet
470 302 m 0,0,1
 470 234 470 234 402 170 c 1,2,3
 439 133 439 133 439 65.5 c 128,-1,4
 439 -2 439 -2 389.5 -47.5 c 128,-1,5
 340 -93 340 -93 259 -93 c 0,6,7
 209 -93 209 -93 159 -81 c 128,-1,8
 109 -69 109 -69 84 -57 c 2,9,-1
 60 -45 l 1,10,-1
 81 26 l 1,11,12
 175 -21 175 -21 261 -21 c 0,13,14
 312 -21 312 -21 332 -6 c 0,15,16
 361 14 361 14 361 70 c 0,17,18
 361 107 361 107 330 129 c 128,-1,19
 299 151 299 151 254.5 163 c 128,-1,20
 210 175 210 175 165.5 189.5 c 128,-1,21
 121 204 121 204 90 238.5 c 128,-1,22
 59 273 59 273 59 328 c 0,23,24
 59 398 59 398 121 447 c 1,25,26
 79 486 79 486 79 555 c 128,-1,27
 79 624 79 624 121 666 c 128,-1,28
 163 708 163 708 249 708 c 128,-1,29
 335 708 335 708 407 685 c 1,30,-1
 394 615 l 1,31,32
 322 637 322 637 238 637 c 0,33,34
 194 637 194 637 175.5 621.5 c 128,-1,35
 157 606 157 606 157 565 c 128,-1,36
 157 524 157 524 189 500 c 128,-1,37
 221 476 221 476 267.5 462.5 c 128,-1,38
 314 449 314 449 360 433.5 c 128,-1,39
 406 418 406 418 438 385.5 c 128,-1,40
 470 353 470 353 470 302 c 0,0,1
343 208 m 1,41,42
 394 259 394 259 394 292.5 c 128,-1,43
 394 326 394 326 363.5 344 c 128,-1,44
 333 362 333 362 270 379.5 c 128,-1,45
 207 397 207 397 178 410 c 1,46,47
 137 374 137 374 137 326 c 0,48,49
 137 298 137 298 158 279 c 128,-1,50
 179 260 179 260 205 252 c 128,-1,51
 231 244 231 244 274.5 231.5 c 128,-1,52
 318 219 318 219 343 208 c 1,41,42
EndSplineSet
EndChar

StartChar: dieresis
Encoding: 168 168 105
Width: 555
GlyphClass: 2
Flags: W
LayerCount: 2
Fore
SplineSet
234 684 m 1,0,-1
 135 684 l 1,1,-1
 135 766 l 1,2,-1
 234 766 l 1,3,-1
 234 684 l 1,0,-1
420 684 m 1,4,-1
 322 684 l 1,5,-1
 322 766 l 1,6,-1
 420 766 l 1,7,-1
 420 684 l 1,4,-1
EndSplineSet
EndChar

StartChar: copyright
Encoding: 169 169 106
Width: 836
GlyphClass: 2
Flags: W
LayerCount: 2
Fore
SplineSet
512 460 m 1,0,1
 456 468 456 468 411.5 468 c 128,-1,2
 367 468 367 468 355 453 c 0,3,4
 327 421 327 421 327 318 c 128,-1,5
 327 215 327 215 358 188 c 1,6,7
 371 175 371 175 399 175 c 0,8,9
 454 175 454 175 502 195 c 2,10,-1
 518 202 l 1,11,-1
 536 141 l 1,12,13
 484 104 484 104 409.5 104 c 128,-1,14
 335 104 335 104 291.5 155.5 c 128,-1,15
 248 207 248 207 248 316 c 0,16,17
 248 449 248 449 299 496 c 0,18,19
 344 537 344 537 414 537 c 128,-1,20
 484 537 484 537 517 525 c 1,21,-1
 512 460 l 1,0,1
168.5 71 m 128,-1,23
 72 169 72 169 72 321 c 128,-1,24
 72 473 72 473 171.5 572 c 128,-1,25
 271 671 271 671 420 671 c 128,-1,26
 569 671 569 671 666.5 572.5 c 128,-1,27
 764 474 764 474 764 322 c 128,-1,28
 764 170 764 170 666.5 71.5 c 128,-1,29
 569 -27 569 -27 417 -27 c 128,-1,22
 265 -27 265 -27 168.5 71 c 128,-1,23
219 525.5 m 128,-1,31
 144 450 144 450 144 321 c 128,-1,32
 144 192 144 192 216.5 117.5 c 128,-1,33
 289 43 289 43 417.5 43 c 128,-1,34
 546 43 546 43 619 118 c 128,-1,35
 692 193 692 193 692 322 c 128,-1,36
 692 451 692 451 619 526 c 128,-1,37
 546 601 546 601 420 601 c 128,-1,30
 294 601 294 601 219 525.5 c 128,-1,31
EndSplineSet
EndChar

StartChar: ordfeminine
Encoding: 170 170 107
Width: 424
GlyphClass: 2
Flags: W
LayerCount: 2
Fore
SplineSet
208 546 m 2,0,-1
 278 546 l 1,1,2
 278 605 278 605 266.5 622.5 c 128,-1,3
 255 640 255 640 220 640 c 0,4,5
 155 640 155 640 97 614 c 2,6,-1
 77 605 l 1,7,-1
 59 663 l 1,8,9
 144 702 144 702 214 702 c 128,-1,10
 284 702 284 702 315 666 c 128,-1,11
 346 630 346 630 346 557 c 2,12,-1
 346 298 l 1,13,-1
 300 298 l 1,14,-1
 290 336 l 1,15,-1
 286 336 l 1,16,17
 220 289 220 289 164 289 c 0,18,19
 50 289 50 289 50 422 c 0,20,21
 50 546 50 546 208 546 c 2,0,-1
278 483 m 1,22,23
 251 486 251 486 202.5 486 c 128,-1,24
 154 486 154 486 141 473 c 1,25,26
 121 456 121 456 121 418.5 c 128,-1,27
 121 381 121 381 134.5 366.5 c 128,-1,28
 148 352 148 352 172 352 c 0,29,30
 214 352 214 352 262 378 c 1,31,-1
 278 386 l 1,32,-1
 278 483 l 1,22,23
EndSplineSet
EndChar

StartChar: guillemotleft
Encoding: 171 171 108
Width: 460
GlyphClass: 2
Flags: W
LayerCount: 2
Fore
SplineSet
243 127 m 1,0,-1
 181 88 l 1,1,-1
 40 330 l 1,2,-1
 181 572 l 1,3,-1
 243 534 l 1,4,-1
 121 334 l 1,5,-1
 121 327 l 1,6,-1
 243 127 l 1,0,-1
421 127 m 1,7,-1
 360 88 l 1,8,-1
 219 330 l 1,9,-1
 360 572 l 1,10,-1
 421 534 l 1,11,-1
 300 334 l 1,12,-1
 300 327 l 1,13,-1
 421 127 l 1,7,-1
EndSplineSet
EndChar

StartChar: logicalnot
Encoding: 172 172 109
Width: 587
GlyphClass: 2
Flags: W
LayerCount: 2
Fore
SplineSet
543 117 m 1,0,-1
 470 117 l 1,1,-1
 470 257 l 1,2,-1
 28 257 l 1,3,-1
 28 330 l 1,4,-1
 543 330 l 1,5,-1
 543 117 l 1,0,-1
EndSplineSet
EndChar

StartChar: uni00AD
Encoding: 173 173 110
Width: 389
GlyphClass: 2
Flags: W
LayerCount: 2
Fore
SplineSet
80 258 m 1,0,-1
 80 329 l 1,1,-1
 309 329 l 1,2,-1
 309 258 l 1,3,-1
 80 258 l 1,0,-1
EndSplineSet
EndChar

StartChar: registered
Encoding: 174 174 111
Width: 836
GlyphClass: 2
Flags: W
LayerCount: 2
Fore
SplineSet
168.5 71 m 128,-1,1
 72 169 72 169 72 321 c 128,-1,2
 72 473 72 473 171.5 572 c 128,-1,3
 271 671 271 671 420 671 c 128,-1,4
 569 671 569 671 666.5 572.5 c 128,-1,5
 764 474 764 474 764 322 c 128,-1,6
 764 170 764 170 666.5 71.5 c 128,-1,7
 569 -27 569 -27 417 -27 c 128,-1,0
 265 -27 265 -27 168.5 71 c 128,-1,1
219 525.5 m 128,-1,9
 144 450 144 450 144 321 c 128,-1,10
 144 192 144 192 216.5 117.5 c 128,-1,11
 289 43 289 43 417.5 43 c 128,-1,12
 546 43 546 43 619 118 c 128,-1,13
 692 193 692 193 692 322 c 128,-1,14
 692 451 692 451 619 526 c 128,-1,15
 546 601 546 601 420 601 c 128,-1,8
 294 601 294 601 219 525.5 c 128,-1,9
353 118 m 1,16,-1
 281 118 l 1,17,-1
 284 311 l 1,18,-1
 282 524 l 1,19,20
 358 532 358 532 426 532 c 0,21,22
 564 532 564 532 564 402 c 0,23,24
 564 348 564 348 540.5 316 c 128,-1,25
 517 284 517 284 485 276 c 1,26,-1
 485 273 l 1,27,-1
 565 118 l 1,28,-1
 484 118 l 1,29,-1
 413 267 l 1,30,-1
 353 268 l 1,31,-1
 353 118 l 1,16,-1
352 335 m 1,32,33
 384 331 384 331 423.5 331 c 128,-1,34
 463 331 463 331 476 347.5 c 128,-1,35
 489 364 489 364 489 402 c 128,-1,36
 489 440 489 440 476.5 454.5 c 128,-1,37
 464 469 464 469 427 469 c 1,38,-1
 354 464 l 1,39,-1
 352 335 l 1,32,33
EndSplineSet
EndChar

StartChar: macron
Encoding: 175 175 112
Width: 564
GlyphClass: 2
Flags: W
LayerCount: 2
Fore
SplineSet
145 693 m 1,0,-1
 145 753 l 1,1,-1
 425 753 l 1,2,-1
 425 693 l 1,3,-1
 145 693 l 1,0,-1
EndSplineSet
EndChar

StartChar: degree
Encoding: 176 176 113
Width: 347
GlyphClass: 2
Flags: W
LayerCount: 2
Fore
SplineSet
174 707 m 128,-1,1
 237 707 237 707 280.5 670.5 c 128,-1,2
 324 634 324 634 324 557.5 c 128,-1,3
 324 481 324 481 280 444 c 128,-1,4
 236 407 236 407 173.5 407 c 128,-1,5
 111 407 111 407 67 444 c 128,-1,6
 23 481 23 481 23 557.5 c 128,-1,7
 23 634 23 634 67 670.5 c 128,-1,0
 111 707 111 707 174 707 c 128,-1,1
173.5 640 m 128,-1,9
 94 640 94 640 94 557 c 128,-1,10
 94 474 94 474 173.5 474 c 128,-1,11
 253 474 253 474 253 557 c 128,-1,8
 253 640 253 640 173.5 640 c 128,-1,9
EndSplineSet
EndChar

StartChar: plusminus
Encoding: 177 177 114
Width: 559
GlyphClass: 2
Flags: W
LayerCount: 2
Fore
SplineSet
52 327 m 1,0,-1
 52 397 l 1,1,-1
 242 397 l 1,2,-1
 242 568 l 1,3,-1
 316 568 l 1,4,-1
 316 397 l 1,5,-1
 507 397 l 1,6,-1
 507 327 l 1,7,-1
 316 327 l 1,8,-1
 316 155 l 1,9,-1
 242 155 l 1,10,-1
 242 327 l 1,11,-1
 52 327 l 1,0,-1
52 17 m 1,12,-1
 52 89 l 1,13,-1
 507 89 l 1,14,-1
 507 17 l 1,15,-1
 52 17 l 1,12,-1
EndSplineSet
EndChar

StartChar: twosuperior
Encoding: 178 178 115
Width: 370
GlyphClass: 2
Flags: W
LayerCount: 2
Fore
SplineSet
105 688 m 128,-1,1
 142 703 142 703 187 703 c 128,-1,2
 232 703 232 703 265 676.5 c 128,-1,3
 298 650 298 650 298 600 c 128,-1,4
 298 550 298 550 234 465 c 1,5,-1
 144 357 l 1,6,-1
 144 353 l 1,7,-1
 305 357 l 1,8,-1
 305 298 l 1,9,-1
 55 298 l 1,10,-1
 55 349 l 1,11,12
 188 492 188 492 220 556 c 0,13,14
 234 583 234 583 234 602 c 0,15,16
 234 643 234 643 192 643 c 0,17,18
 137 643 137 643 76 606 c 1,19,-1
 50 658 l 1,20,0
 68 673 68 673 105 688 c 128,-1,1
EndSplineSet
EndChar

StartChar: threesuperior
Encoding: 179 179 116
Width: 355
GlyphClass: 2
Flags: W
LayerCount: 2
Fore
SplineSet
61 376 m 1,0,1
 117 348 117 348 159.5 348 c 128,-1,2
 202 348 202 348 215 363 c 128,-1,3
 228 378 228 378 228 414.5 c 128,-1,4
 228 451 228 451 210 466 c 128,-1,5
 192 481 192 481 154 481 c 2,6,-1
 104 481 l 1,7,-1
 104 535 l 1,8,9
 184 541 184 541 200.5 551.5 c 128,-1,10
 217 562 217 562 217 591 c 128,-1,11
 217 620 217 620 205 632 c 1,12,13
 189 645 189 645 153 645 c 128,-1,14
 117 645 117 645 69 639 c 1,15,-1
 64 694 l 1,16,17
 111 703 111 703 156 703 c 0,18,19
 283 703 283 703 283 601 c 0,20,21
 283 568 283 568 268.5 547 c 128,-1,22
 254 526 254 526 241.5 521 c 128,-1,23
 229 516 229 516 218 515 c 1,24,-1
 218 511 l 1,25,26
 248 507 248 507 271.5 484 c 128,-1,27
 295 461 295 461 295 410 c 0,28,29
 295 290 295 290 169 290 c 0,30,31
 137 290 137 290 105.5 298.5 c 128,-1,32
 74 307 74 307 42 324 c 1,33,-1
 61 376 l 1,0,1
EndSplineSet
EndChar

StartChar: acute
Encoding: 180 180 117
Width: 598
GlyphClass: 2
Flags: W
LayerCount: 2
Fore
SplineSet
397 802 m 1,0,-1
 428 735 l 1,1,-1
 195 657 l 1,2,-1
 175 707 l 1,3,-1
 397 802 l 1,0,-1
EndSplineSet
EndChar

StartChar: mu
Encoding: 181 181 118
AltUni2: 0003bc.ffffffff.0
Width: 601
GlyphClass: 2
Flags: W
LayerCount: 2
Fore
SplineSet
88 -166 m 1,0,-1
 88 582 l 1,1,-1
 172 582 l 1,2,-1
 172 225 l 2,3,4
 172 113 172 113 185 89 c 1,5,6
 201 64 201 64 255.5 64 c 128,-1,7
 310 64 310 64 416 117 c 1,8,-1
 416 582 l 1,9,-1
 500 582 l 1,10,-1
 500 0 l 1,11,-1
 444 0 l 1,12,-1
 434 56 l 1,13,-1
 428 56 l 1,14,15
 311 -13 311 -13 244 -13 c 0,16,17
 200 -13 200 -13 168 5 c 1,18,-1
 164 2 l 1,19,-1
 172 -166 l 1,20,-1
 88 -166 l 1,0,-1
EndSplineSet
EndChar

StartChar: paragraph
Encoding: 182 182 119
Width: 658
GlyphClass: 2
Flags: W
LayerCount: 2
Fore
SplineSet
560 -154 m 1,0,-1
 476 -154 l 1,1,-1
 476 621 l 1,2,-1
 349 621 l 1,3,-1
 349 -154 l 1,4,-1
 265 -154 l 1,5,-1
 265 194 l 1,6,7
 159 194 159 194 104 251 c 128,-1,8
 49 308 49 308 49 445 c 128,-1,9
 49 582 49 582 103.5 638.5 c 128,-1,10
 158 695 158 695 265 695 c 2,11,-1
 560 695 l 1,12,-1
 560 -154 l 1,0,-1
EndSplineSet
EndChar

StartChar: periodcentered
Encoding: 183 183 120
Width: 300
GlyphClass: 2
Flags: W
LayerCount: 2
Fore
SplineSet
154 387 m 0,0,1
 177 387 177 387 193.5 374 c 128,-1,2
 210 361 210 361 210 331.5 c 128,-1,3
 210 302 210 302 193.5 288 c 128,-1,4
 177 274 177 274 153.5 274 c 128,-1,5
 130 274 130 274 113.5 288 c 128,-1,6
 97 302 97 302 97 331 c 0,7,8
 97 387 97 387 154 387 c 0,0,1
EndSplineSet
EndChar

StartChar: cedilla
Encoding: 184 184 121
Width: 508
GlyphClass: 2
Flags: W
LayerCount: 2
Fore
SplineSet
362 10 m 1,0,1
 381 -39 381 -39 381 -82 c 128,-1,2
 381 -125 381 -125 350.5 -152 c 128,-1,3
 320 -179 320 -179 272 -179 c 0,4,5
 244 -179 244 -179 199 -170 c 1,6,-1
 199 -108 l 1,7,8
 243 -113 243 -113 269 -113 c 128,-1,9
 295 -113 295 -113 306 -107 c 128,-1,10
 317 -101 317 -101 317 -74 c 128,-1,11
 317 -47 317 -47 303 6 c 1,12,-1
 362 10 l 1,0,1
EndSplineSet
EndChar

StartChar: onesuperior
Encoding: 185 185 122
Width: 371
GlyphClass: 2
Flags: W
LayerCount: 2
Fore
SplineSet
64 298 m 1,0,-1
 64 356 l 1,1,-1
 165 356 l 1,2,-1
 165 636 l 1,3,-1
 161 636 l 1,4,-1
 75 563 l 1,5,-1
 39 609 l 1,6,-1
 161 702 l 1,7,-1
 233 697 l 1,8,-1
 233 356 l 1,9,-1
 321 356 l 1,10,-1
 321 298 l 1,11,-1
 64 298 l 1,0,-1
EndSplineSet
EndChar

StartChar: ordmasculine
Encoding: 186 186 123
Width: 357
GlyphClass: 2
Flags: W
LayerCount: 2
Fore
SplineSet
58.5 649.5 m 128,-1,1
 94 702 94 702 178.5 702 c 128,-1,2
 263 702 263 702 298.5 649.5 c 128,-1,3
 334 597 334 597 334 495.5 c 128,-1,4
 334 394 334 394 298.5 341.5 c 128,-1,5
 263 289 263 289 178.5 289 c 128,-1,6
 94 289 94 289 58.5 341.5 c 128,-1,7
 23 394 23 394 23 495.5 c 128,-1,0
 23 597 23 597 58.5 649.5 c 128,-1,1
178 641 m 128,-1,9
 129 641 129 641 111 612.5 c 128,-1,10
 93 584 93 584 93 495.5 c 128,-1,11
 93 407 93 407 111.5 378.5 c 128,-1,12
 130 350 130 350 178.5 350 c 128,-1,13
 227 350 227 350 246 378.5 c 128,-1,14
 265 407 265 407 265 495.5 c 128,-1,15
 265 584 265 584 246 612.5 c 128,-1,8
 227 641 227 641 178 641 c 128,-1,9
EndSplineSet
EndChar

StartChar: guillemotright
Encoding: 187 187 124
Width: 460
GlyphClass: 2
Flags: W
LayerCount: 2
Fore
SplineSet
279 88 m 1,0,-1
 218 127 l 1,1,-1
 339 327 l 1,2,-1
 339 334 l 1,3,-1
 218 534 l 1,4,-1
 279 572 l 1,5,-1
 420 330 l 1,6,-1
 279 88 l 1,0,-1
101 88 m 1,7,-1
 39 127 l 1,8,-1
 161 327 l 1,9,-1
 161 334 l 1,10,-1
 39 534 l 1,11,-1
 101 572 l 1,12,-1
 242 330 l 1,13,-1
 101 88 l 1,7,-1
EndSplineSet
EndChar

StartChar: onequarter
Encoding: 188 188 125
Width: 881
GlyphClass: 2
Flags: W
LayerCount: 2
Fore
SplineSet
323 -9 m 1,0,-1
 248 -9 l 1,1,-1
 434 382 l 1,2,-1
 590 733 l 1,3,-1
 664 733 l 1,4,-1
 487 351 l 1,5,-1
 323 -9 l 1,0,-1
787 293 m 1,6,-1
 787 141 l 1,7,-1
 824 142 l 1,8,-1
 824 82 l 1,9,-1
 787 82 l 1,10,-1
 787 0 l 1,11,-1
 722 0 l 1,12,-1
 724 82 l 1,13,-1
 546 82 l 1,14,-1
 546 134 l 1,15,-1
 641 406 l 1,16,-1
 702 399 l 1,17,-1
 608 140 l 1,18,-1
 608 136 l 1,19,-1
 724 141 l 1,20,-1
 735 293 l 1,21,-1
 787 293 l 1,6,-1
64 298 m 1,22,-1
 64 356 l 1,23,-1
 165 356 l 1,24,-1
 165 636 l 1,25,-1
 161 636 l 1,26,-1
 75 563 l 1,27,-1
 39 609 l 1,28,-1
 161 702 l 1,29,-1
 233 697 l 1,30,-1
 233 356 l 1,31,-1
 321 356 l 1,32,-1
 321 298 l 1,33,-1
 64 298 l 1,22,-1
EndSplineSet
EndChar

StartChar: onehalf
Encoding: 189 189 126
Width: 909
GlyphClass: 2
Flags: W
LayerCount: 2
Fore
SplineSet
327 -9 m 1,0,-1
 252 -9 l 1,1,-1
 438 382 l 1,2,-1
 594 733 l 1,3,-1
 668 733 l 1,4,-1
 491 351 l 1,5,-1
 327 -9 l 1,0,-1
644.5 390 m 128,-1,7
 682 405 682 405 726.5 405 c 128,-1,8
 771 405 771 405 804 378.5 c 128,-1,9
 837 352 837 352 837 302 c 128,-1,10
 837 252 837 252 773 167 c 1,11,-1
 683 59 l 1,12,-1
 683 55 l 1,13,-1
 844 59 l 1,14,-1
 844 0 l 1,15,-1
 594 0 l 1,16,-1
 594 51 l 1,17,18
 727 194 727 194 760 258 c 0,19,20
 773 285 773 285 773 304 c 0,21,22
 773 345 773 345 731 345 c 0,23,24
 676 345 676 345 615 308 c 1,25,-1
 589 360 l 1,26,6
 607 375 607 375 644.5 390 c 128,-1,7
64 298 m 1,27,-1
 64 356 l 1,28,-1
 165 356 l 1,29,-1
 165 636 l 1,30,-1
 161 636 l 1,31,-1
 75 563 l 1,32,-1
 39 609 l 1,33,-1
 161 702 l 1,34,-1
 233 697 l 1,35,-1
 233 356 l 1,36,-1
 321 356 l 1,37,-1
 321 298 l 1,38,-1
 64 298 l 1,27,-1
EndSplineSet
EndChar

StartChar: threequarters
Encoding: 190 190 127
Width: 857
GlyphClass: 2
Flags: W
LayerCount: 2
Fore
SplineSet
303 -9 m 1,0,-1
 228 -9 l 1,1,-1
 414 382 l 1,2,-1
 570 733 l 1,3,-1
 644 733 l 1,4,-1
 467 351 l 1,5,-1
 303 -9 l 1,0,-1
61 376 m 1,6,7
 117 348 117 348 159.5 348 c 128,-1,8
 202 348 202 348 215 363 c 128,-1,9
 228 378 228 378 228 414.5 c 128,-1,10
 228 451 228 451 210 466 c 128,-1,11
 192 481 192 481 154 481 c 2,12,-1
 104 481 l 1,13,-1
 104 535 l 1,14,15
 184 541 184 541 200.5 551.5 c 128,-1,16
 217 562 217 562 217 591 c 128,-1,17
 217 620 217 620 205 632 c 1,18,19
 189 645 189 645 153 645 c 128,-1,20
 117 645 117 645 69 639 c 1,21,-1
 64 694 l 1,22,23
 111 703 111 703 156 703 c 0,24,25
 283 703 283 703 283 601 c 0,26,27
 283 568 283 568 268.5 546.5 c 128,-1,28
 254 525 254 525 241 519.5 c 128,-1,29
 228 514 228 514 218 513 c 1,30,-1
 218 509 l 1,31,32
 295 498 295 498 295 410 c 0,33,34
 295 290 295 290 169 290 c 0,35,36
 137 290 137 290 105.5 298.5 c 128,-1,37
 74 307 74 307 42 324 c 1,38,-1
 61 376 l 1,6,7
763 293 m 1,39,-1
 763 141 l 1,40,-1
 800 142 l 1,41,-1
 800 82 l 1,42,-1
 763 82 l 1,43,-1
 763 0 l 1,44,-1
 698 0 l 1,45,-1
 700 82 l 1,46,-1
 522 82 l 1,47,-1
 522 134 l 1,48,-1
 617 406 l 1,49,-1
 678 399 l 1,50,-1
 584 140 l 1,51,-1
 584 136 l 1,52,-1
 700 141 l 1,53,-1
 711 293 l 1,54,-1
 763 293 l 1,39,-1
EndSplineSet
EndChar

StartChar: questiondown
Encoding: 191 191 128
Width: 463
GlyphClass: 2
Flags: W
LayerCount: 2
Fore
SplineSet
432 -63 m 1,0,-1
 405 -79 l 2,1,2
 378 -95 378 -95 327 -110.5 c 128,-1,3
 276 -126 276 -126 229 -126 c 0,4,5
 141 -126 141 -126 85.5 -74.5 c 128,-1,6
 30 -23 30 -23 30 57 c 0,7,8
 30 111 30 111 52 151.5 c 128,-1,9
 74 192 74 192 105 217 c 128,-1,10
 136 242 136 242 167 264 c 0,11,12
 242 319 242 319 242 391 c 1,13,-1
 313 391 l 1,14,-1
 313 382 l 2,15,16
 313 301 313 301 274 256 c 0,17,18
 257 235 257 235 236.5 217.5 c 128,-1,19
 216 200 216 200 195 184.5 c 128,-1,20
 174 169 174 169 157 152 c 0,21,22
 118 111 118 111 118 50 c 0,23,24
 118 -9 118 -9 157 -36 c 0,25,26
 176 -49 176 -49 216.5 -49 c 128,-1,27
 257 -49 257 -49 312 -32 c 128,-1,28
 367 -15 367 -15 401 5 c 1,29,30
 425 -49 425 -49 432 -63 c 1,0,-1
223 493 m 1,31,-1
 223 582 l 1,32,-1
 331 582 l 1,33,-1
 331 493 l 1,34,-1
 223 493 l 1,31,-1
EndSplineSet
EndChar

StartChar: Agrave
Encoding: 192 192 129
Width: 515
GlyphClass: 2
Flags: W
LayerCount: 2
Fore
SplineSet
94 0 m 1,0,-1
 5 0 l 1,1,-1
 201 695 l 1,2,-1
 306 695 l 1,3,-1
 502 0 l 1,4,-1
 412 0 l 1,5,-1
 364 186 l 1,6,-1
 143 186 l 1,7,-1
 94 0 l 1,0,-1
348 256 m 1,8,-1
 256 627 l 1,9,-1
 250 627 l 1,10,-1
 158 256 l 1,11,-1
 348 256 l 1,8,-1
122 797 m 1,12,-1
 148 868 l 1,13,-1
 374 787 l 1,14,-1
 354 736 l 1,15,-1
 122 797 l 1,12,-1
EndSplineSet
EndChar

StartChar: Aacute
Encoding: 193 193 130
Width: 515
GlyphClass: 2
Flags: W
LayerCount: 2
Fore
SplineSet
94 0 m 1,0,-1
 5 0 l 1,1,-1
 201 695 l 1,2,-1
 306 695 l 1,3,-1
 502 0 l 1,4,-1
 412 0 l 1,5,-1
 364 186 l 1,6,-1
 143 186 l 1,7,-1
 94 0 l 1,0,-1
348 256 m 1,8,-1
 256 627 l 1,9,-1
 250 627 l 1,10,-1
 158 256 l 1,11,-1
 348 256 l 1,8,-1
365 869 m 1,12,-1
 393 796 l 1,13,-1
 158 736 l 1,14,-1
 140 787 l 1,15,-1
 365 869 l 1,12,-1
EndSplineSet
EndChar

StartChar: Acircumflex
Encoding: 194 194 131
Width: 515
GlyphClass: 2
Flags: W
LayerCount: 2
Fore
SplineSet
94 0 m 1,0,-1
 5 0 l 1,1,-1
 201 695 l 1,2,-1
 306 695 l 1,3,-1
 502 0 l 1,4,-1
 412 0 l 1,5,-1
 364 186 l 1,6,-1
 143 186 l 1,7,-1
 94 0 l 1,0,-1
348 256 m 1,8,-1
 256 627 l 1,9,-1
 250 627 l 1,10,-1
 158 256 l 1,11,-1
 348 256 l 1,8,-1
399 771 m 1,12,-1
 371 733 l 1,13,-1
 256 794 l 1,14,-1
 249 794 l 1,15,-1
 134 733 l 1,16,-1
 106 771 l 1,17,-1
 227 866 l 1,18,-1
 278 866 l 1,19,-1
 399 771 l 1,12,-1
EndSplineSet
EndChar

StartChar: Atilde
Encoding: 195 195 132
Width: 515
GlyphClass: 2
Flags: W
LayerCount: 2
Fore
SplineSet
94 0 m 1,0,-1
 5 0 l 1,1,-1
 201 695 l 1,2,-1
 306 695 l 1,3,-1
 502 0 l 1,4,-1
 412 0 l 1,5,-1
 364 186 l 1,6,-1
 143 186 l 1,7,-1
 94 0 l 1,0,-1
348 256 m 1,8,-1
 256 627 l 1,9,-1
 250 627 l 1,10,-1
 158 256 l 1,11,-1
 348 256 l 1,8,-1
83 756 m 1,12,13
 83 857 83 857 151 857 c 0,14,15
 182 857 182 857 262.5 834 c 128,-1,16
 343 811 343 811 350 811 c 0,17,18
 362 811 362 811 376 854 c 1,19,-1
 429 847 l 1,20,21
 429 793 429 793 411 769.5 c 128,-1,22
 393 746 393 746 362.5 746 c 128,-1,23
 332 746 332 746 250 770 c 128,-1,24
 168 794 168 794 162 794 c 0,25,26
 151 794 151 794 135 750 c 1,27,-1
 83 756 l 1,12,13
EndSplineSet
EndChar

StartChar: Adieresis
Encoding: 196 196 133
Width: 515
GlyphClass: 2
Flags: W
LayerCount: 2
Fore
SplineSet
94 0 m 1,0,-1
 5 0 l 1,1,-1
 201 695 l 1,2,-1
 306 695 l 1,3,-1
 502 0 l 1,4,-1
 412 0 l 1,5,-1
 364 186 l 1,6,-1
 143 186 l 1,7,-1
 94 0 l 1,0,-1
348 256 m 1,8,-1
 256 627 l 1,9,-1
 250 627 l 1,10,-1
 158 256 l 1,11,-1
 348 256 l 1,8,-1
211 762 m 1,12,-1
 112 762 l 1,13,-1
 112 844 l 1,14,-1
 211 844 l 1,15,-1
 211 762 l 1,12,-1
397 762 m 1,16,-1
 299 762 l 1,17,-1
 299 844 l 1,18,-1
 397 844 l 1,19,-1
 397 762 l 1,16,-1
EndSplineSet
EndChar

StartChar: Aring
Encoding: 197 197 134
Width: 515
GlyphClass: 2
Flags: W
LayerCount: 2
Fore
SplineSet
94 0 m 1,0,-1
 5 0 l 1,1,-1
 201 695 l 1,2,-1
 306 695 l 1,3,-1
 502 0 l 1,4,-1
 412 0 l 1,5,-1
 364 186 l 1,6,-1
 143 186 l 1,7,-1
 94 0 l 1,0,-1
348 256 m 1,8,-1
 256 627 l 1,9,-1
 250 627 l 1,10,-1
 158 256 l 1,11,-1
 348 256 l 1,8,-1
253 887 m 128,-1,13
 289 887 289 887 313 867.5 c 128,-1,14
 337 848 337 848 337 804.5 c 128,-1,15
 337 761 337 761 313 741.5 c 128,-1,16
 289 722 289 722 253 722 c 128,-1,17
 217 722 217 722 193 741.5 c 128,-1,18
 169 761 169 761 169 804.5 c 128,-1,19
 169 848 169 848 193 867.5 c 128,-1,12
 217 887 217 887 253 887 c 128,-1,13
253 841 m 128,-1,21
 234 841 234 841 225.5 833.5 c 128,-1,22
 217 826 217 826 217 804.5 c 128,-1,23
 217 783 217 783 225.5 775.5 c 128,-1,24
 234 768 234 768 253 768 c 128,-1,25
 272 768 272 768 279.5 775 c 128,-1,26
 287 782 287 782 287 804 c 128,-1,27
 287 826 287 826 279.5 833.5 c 128,-1,20
 272 841 272 841 253 841 c 128,-1,21
EndSplineSet
EndChar

StartChar: AE
Encoding: 198 198 135
Width: 765
GlyphClass: 2
Flags: W
LayerCount: 2
Fore
SplineSet
356 0 m 1,0,-1
 356 183 l 1,1,-1
 164 183 l 1,2,-1
 86 0 l 1,3,-1
 -3 0 l 1,4,-1
 296 695 l 1,5,-1
 697 695 l 1,6,-1
 697 619 l 1,7,-1
 439 622 l 1,8,-1
 435 389 l 1,9,-1
 673 389 l 1,10,-1
 673 318 l 1,11,-1
 435 318 l 1,12,-1
 439 73 l 1,13,-1
 697 75 l 1,14,-1
 697 0 l 1,15,-1
 356 0 l 1,0,-1
356 256 m 1,16,-1
 356 627 l 1,17,-1
 338 627 l 1,18,-1
 185 256 l 1,19,-1
 356 256 l 1,16,-1
EndSplineSet
EndChar

StartChar: Ccedilla
Encoding: 199 199 136
Width: 583
GlyphClass: 2
Flags: W
LayerCount: 2
Fore
SplineSet
336 632 m 0,0,1
 236 632 236 632 214 605 c 0,2,3
 163 543 163 543 163 337 c 0,4,5
 163 239 163 239 181.5 172.5 c 128,-1,6
 200 106 200 106 224.5 82 c 128,-1,7
 249 58 249 58 298 58 c 128,-1,8
 347 58 347 58 395.5 72 c 128,-1,9
 444 86 444 86 470 100 c 2,10,-1
 497 114 l 1,11,-1
 526 48 l 1,12,13
 470 8 470 8 381 -7 c 1,14,15
 394 -50 394 -50 394 -79 c 0,16,17
 394 -125 394 -125 363.5 -152 c 128,-1,18
 333 -179 333 -179 285 -179 c 0,19,20
 257 -179 257 -179 212 -170 c 1,21,-1
 212 -108 l 1,22,23
 256 -113 256 -113 282 -113 c 128,-1,24
 308 -113 308 -113 319 -107 c 128,-1,25
 330 -101 330 -101 330 -73 c 128,-1,26
 330 -45 330 -45 322 -13 c 1,27,-1
 312 -13 l 2,28,29
 72 -13 72 -13 72 340 c 0,30,31
 72 590 72 590 176 666 c 0,32,33
 209 690 209 690 245.5 699 c 128,-1,34
 282 708 282 708 356.5 708 c 128,-1,35
 431 708 431 708 497 692 c 1,36,-1
 487 620 l 1,37,38
 395 632 395 632 336 632 c 0,0,1
EndSplineSet
EndChar

StartChar: Egrave
Encoding: 200 200 137
Width: 514
GlyphClass: 2
Flags: W
LayerCount: 2
Fore
SplineSet
105 0 m 1,0,-1
 105 695 l 1,1,-1
 446 695 l 1,2,-1
 446 620 l 1,3,-1
 189 623 l 1,4,-1
 184 389 l 1,5,-1
 422 389 l 1,6,-1
 422 318 l 1,7,-1
 184 318 l 1,8,-1
 189 73 l 1,9,-1
 446 75 l 1,10,-1
 446 0 l 1,11,-1
 105 0 l 1,0,-1
144 797 m 1,12,-1
 170 868 l 1,13,-1
 396 787 l 1,14,-1
 376 736 l 1,15,-1
 144 797 l 1,12,-1
EndSplineSet
EndChar

StartChar: Eacute
Encoding: 201 201 138
Width: 514
GlyphClass: 2
Flags: W
LayerCount: 2
Fore
SplineSet
105 0 m 1,0,-1
 105 695 l 1,1,-1
 446 695 l 1,2,-1
 446 620 l 1,3,-1
 189 623 l 1,4,-1
 184 389 l 1,5,-1
 422 389 l 1,6,-1
 422 318 l 1,7,-1
 184 318 l 1,8,-1
 189 73 l 1,9,-1
 446 75 l 1,10,-1
 446 0 l 1,11,-1
 105 0 l 1,0,-1
404 869 m 1,12,-1
 432 796 l 1,13,-1
 197 736 l 1,14,-1
 179 787 l 1,15,-1
 404 869 l 1,12,-1
EndSplineSet
EndChar

StartChar: Ecircumflex
Encoding: 202 202 139
Width: 514
GlyphClass: 2
Flags: W
LayerCount: 2
Fore
SplineSet
105 0 m 1,0,-1
 105 695 l 1,1,-1
 446 695 l 1,2,-1
 446 620 l 1,3,-1
 189 623 l 1,4,-1
 184 389 l 1,5,-1
 422 389 l 1,6,-1
 422 318 l 1,7,-1
 184 318 l 1,8,-1
 189 73 l 1,9,-1
 446 75 l 1,10,-1
 446 0 l 1,11,-1
 105 0 l 1,0,-1
427 771 m 1,12,-1
 399 733 l 1,13,-1
 284 794 l 1,14,-1
 277 794 l 1,15,-1
 162 733 l 1,16,-1
 134 771 l 1,17,-1
 255 866 l 1,18,-1
 306 866 l 1,19,-1
 427 771 l 1,12,-1
EndSplineSet
EndChar

StartChar: Edieresis
Encoding: 203 203 140
Width: 514
GlyphClass: 2
Flags: W
LayerCount: 2
Fore
SplineSet
105 0 m 1,0,-1
 105 695 l 1,1,-1
 446 695 l 1,2,-1
 446 620 l 1,3,-1
 189 623 l 1,4,-1
 184 389 l 1,5,-1
 422 389 l 1,6,-1
 422 318 l 1,7,-1
 184 318 l 1,8,-1
 189 73 l 1,9,-1
 446 75 l 1,10,-1
 446 0 l 1,11,-1
 105 0 l 1,0,-1
236 762 m 1,12,-1
 137 762 l 1,13,-1
 137 844 l 1,14,-1
 236 844 l 1,15,-1
 236 762 l 1,12,-1
422 762 m 1,16,-1
 324 762 l 1,17,-1
 324 844 l 1,18,-1
 422 844 l 1,19,-1
 422 762 l 1,16,-1
EndSplineSet
EndChar

StartChar: Igrave
Encoding: 204 204 141
Width: 295
GlyphClass: 2
Flags: W
LayerCount: 2
Fore
SplineSet
7 795 m 1,0,-1
 33 868 l 1,1,-1
 247 789 l 1,2,-1
 227 736 l 1,3,-1
 7 795 l 1,0,-1
185 388 m 1,4,-1
 190 0 l 1,5,-1
 105 -1 l 1,6,-1
 109 318 l 1,7,-1
 105 695 l 1,8,-1
 190 695 l 1,9,-1
 185 388 l 1,4,-1
EndSplineSet
EndChar

StartChar: Iacute
Encoding: 205 205 142
Width: 295
GlyphClass: 2
Flags: W
LayerCount: 2
Fore
SplineSet
264 869 m 1,0,-1
 292 794 l 1,1,-1
 71 736 l 1,2,-1
 53 789 l 1,3,-1
 264 869 l 1,0,-1
185 388 m 1,4,-1
 190 0 l 1,5,-1
 105 -1 l 1,6,-1
 109 318 l 1,7,-1
 105 695 l 1,8,-1
 190 695 l 1,9,-1
 185 388 l 1,4,-1
EndSplineSet
EndChar

StartChar: Icircumflex
Encoding: 206 206 143
Width: 295
GlyphClass: 2
Flags: W
LayerCount: 2
Fore
SplineSet
287 773 m 1,0,-1
 261 733 l 1,1,-1
 151 794 l 1,2,-1
 144 794 l 1,3,-1
 34 733 l 1,4,-1
 8 773 l 1,5,-1
 122 866 l 1,6,-1
 173 866 l 1,7,-1
 287 773 l 1,0,-1
185 388 m 1,8,-1
 190 0 l 1,9,-1
 105 -1 l 1,10,-1
 109 318 l 1,11,-1
 105 695 l 1,12,-1
 190 695 l 1,13,-1
 185 388 l 1,8,-1
EndSplineSet
EndChar

StartChar: Idieresis
Encoding: 207 207 144
Width: 295
GlyphClass: 2
Flags: W
LayerCount: 2
Fore
SplineSet
116 762 m 1,0,-1
 17 762 l 1,1,-1
 17 844 l 1,2,-1
 116 844 l 1,3,-1
 116 762 l 1,0,-1
278 762 m 1,4,-1
 180 762 l 1,5,-1
 180 844 l 1,6,-1
 278 844 l 1,7,-1
 278 762 l 1,4,-1
185 388 m 1,8,-1
 190 0 l 1,9,-1
 105 -1 l 1,10,-1
 109 318 l 1,11,-1
 105 695 l 1,12,-1
 190 695 l 1,13,-1
 185 388 l 1,8,-1
EndSplineSet
EndChar

StartChar: Eth
Encoding: 208 208 145
Width: 643
GlyphClass: 2
Flags: W
LayerCount: 2
Fore
SplineSet
52 321 m 1,0,-1
 52 391 l 1,1,-1
 118 391 l 1,2,-1
 118 696 l 1,3,4
 249 708 249 708 317 708 c 128,-1,5
 385 708 385 708 429.5 689 c 128,-1,6
 474 670 474 670 500.5 638.5 c 128,-1,7
 527 607 527 607 544 560 c 0,8,9
 571 482 571 482 571 356 c 0,10,11
 571 -13 571 -13 314 -13 c 0,12,13
 280 -13 280 -13 118 0 c 1,14,-1
 118 321 l 1,15,-1
 52 321 l 1,0,-1
200 391 m 1,16,-1
 308 391 l 1,17,-1
 308 321 l 1,18,-1
 200 321 l 1,19,-1
 200 71 l 1,20,21
 265 61 265 61 303 61 c 0,22,23
 394 61 394 61 422 89 c 0,24,25
 477 144 477 144 477 357.5 c 128,-1,26
 477 571 477 571 424 615 c 1,27,28
 402 635 402 635 327 635 c 1,29,-1
 200 628 l 1,30,-1
 200 391 l 1,16,-1
EndSplineSet
EndChar

StartChar: Ntilde
Encoding: 209 209 146
Width: 677
GlyphClass: 2
Flags: W
LayerCount: 2
Fore
SplineSet
105 695 m 1,0,-1
 222 695 l 1,1,-1
 500 79 l 1,2,-1
 505 79 l 1,3,-1
 490 695 l 1,4,-1
 572 695 l 1,5,-1
 572 0 l 1,6,-1
 455 0 l 1,7,-1
 178 616 l 1,8,-1
 174 616 l 1,9,-1
 187 0 l 1,10,-1
 105 0 l 1,11,-1
 105 695 l 1,0,-1
172 756 m 1,12,13
 172 857 172 857 240 857 c 0,14,15
 271 857 271 857 351.5 834 c 128,-1,16
 432 811 432 811 438 811 c 0,17,18
 451 811 451 811 465 854 c 1,19,-1
 518 847 l 1,20,21
 518 793 518 793 500 769.5 c 128,-1,22
 482 746 482 746 451.5 746 c 128,-1,23
 421 746 421 746 339 770 c 128,-1,24
 257 794 257 794 251 794 c 0,25,26
 240 794 240 794 224 750 c 1,27,-1
 172 756 l 1,12,13
EndSplineSet
EndChar

StartChar: Ograve
Encoding: 210 210 147
Width: 656
GlyphClass: 2
Flags: W
LayerCount: 2
Fore
SplineSet
328 -13 m 128,-1,1
 271 -13 271 -13 228 3 c 128,-1,2
 185 19 185 19 148 58 c 0,3,4
 72 137 72 137 72 349 c 0,5,6
 72 560 72 560 148 638 c 0,7,8
 185 676 185 676 228 692 c 128,-1,9
 271 708 271 708 328 708 c 128,-1,10
 385 708 385 708 428 692 c 128,-1,11
 471 676 471 676 508 638 c 0,12,13
 584 560 584 560 584 349 c 0,14,15
 584 137 584 137 508 58 c 0,16,17
 471 19 471 19 428 3 c 128,-1,0
 385 -13 385 -13 328 -13 c 128,-1,1
180 531.5 m 128,-1,19
 162 469 162 469 162 361 c 128,-1,20
 162 253 162 253 171 197 c 128,-1,21
 180 141 180 141 202.5 111.5 c 128,-1,22
 225 82 225 82 253 73 c 128,-1,23
 281 64 281 64 336 64 c 128,-1,24
 391 64 391 64 424 82 c 0,25,26
 495 121 495 121 495 346 c 0,27,28
 495 573 495 573 425 613 c 0,29,30
 392 632 392 632 328 632 c 128,-1,31
 264 632 264 632 231 613 c 128,-1,18
 198 594 198 594 180 531.5 c 128,-1,19
211 797 m 1,32,-1
 237 868 l 1,33,-1
 463 787 l 1,34,-1
 443 736 l 1,35,-1
 211 797 l 1,32,-1
EndSplineSet
EndChar

StartChar: Oacute
Encoding: 211 211 148
Width: 656
GlyphClass: 2
Flags: W
LayerCount: 2
Fore
SplineSet
328 -13 m 128,-1,1
 271 -13 271 -13 228 3 c 128,-1,2
 185 19 185 19 148 58 c 0,3,4
 72 137 72 137 72 349 c 0,5,6
 72 560 72 560 148 638 c 0,7,8
 185 676 185 676 228 692 c 128,-1,9
 271 708 271 708 328 708 c 128,-1,10
 385 708 385 708 428 692 c 128,-1,11
 471 676 471 676 508 638 c 0,12,13
 584 560 584 560 584 349 c 0,14,15
 584 137 584 137 508 58 c 0,16,17
 471 19 471 19 428 3 c 128,-1,0
 385 -13 385 -13 328 -13 c 128,-1,1
171 197 m 128,-1,19
 180 141 180 141 202.5 111.5 c 128,-1,20
 225 82 225 82 253 73 c 128,-1,21
 281 64 281 64 336 64 c 128,-1,22
 391 64 391 64 424 82 c 0,23,24
 495 121 495 121 495 346 c 0,25,26
 495 573 495 573 425 613 c 0,27,28
 392 632 392 632 328 632 c 128,-1,29
 264 632 264 632 231 613 c 128,-1,30
 198 594 198 594 180 531.5 c 128,-1,31
 162 469 162 469 162 361 c 128,-1,18
 162 253 162 253 171 197 c 128,-1,19
472 869 m 1,32,-1
 500 796 l 1,33,-1
 265 736 l 1,34,-1
 247 787 l 1,35,-1
 472 869 l 1,32,-1
EndSplineSet
EndChar

StartChar: Ocircumflex
Encoding: 212 212 149
Width: 656
GlyphClass: 2
Flags: W
LayerCount: 2
Fore
SplineSet
328 -13 m 128,-1,1
 271 -13 271 -13 228 3 c 128,-1,2
 185 19 185 19 148 58 c 0,3,4
 72 137 72 137 72 349 c 0,5,6
 72 560 72 560 148 638 c 0,7,8
 185 676 185 676 228 692 c 128,-1,9
 271 708 271 708 328 708 c 128,-1,10
 385 708 385 708 428 692 c 128,-1,11
 471 676 471 676 508 638 c 0,12,13
 584 560 584 560 584 349 c 0,14,15
 584 137 584 137 508 58 c 0,16,17
 471 19 471 19 428 3 c 128,-1,0
 385 -13 385 -13 328 -13 c 128,-1,1
171 197 m 128,-1,19
 180 141 180 141 202.5 111.5 c 128,-1,20
 225 82 225 82 253 73 c 128,-1,21
 281 64 281 64 336 64 c 128,-1,22
 391 64 391 64 424 82 c 0,23,24
 495 121 495 121 495 346 c 0,25,26
 495 573 495 573 425 613 c 0,27,28
 392 632 392 632 328 632 c 128,-1,29
 264 632 264 632 231 613 c 128,-1,30
 198 594 198 594 180 531.5 c 128,-1,31
 162 469 162 469 162 361 c 128,-1,18
 162 253 162 253 171 197 c 128,-1,19
481 771 m 1,32,-1
 453 733 l 1,33,-1
 338 794 l 1,34,-1
 331 794 l 1,35,-1
 216 733 l 1,36,-1
 188 771 l 1,37,-1
 309 866 l 1,38,-1
 360 866 l 1,39,-1
 481 771 l 1,32,-1
EndSplineSet
EndChar

StartChar: Otilde
Encoding: 213 213 150
Width: 656
GlyphClass: 2
Flags: W
LayerCount: 2
Fore
SplineSet
328 -13 m 128,-1,1
 271 -13 271 -13 228 3 c 128,-1,2
 185 19 185 19 148 58 c 0,3,4
 72 137 72 137 72 349 c 0,5,6
 72 560 72 560 148 638 c 0,7,8
 185 676 185 676 228 692 c 128,-1,9
 271 708 271 708 328 708 c 128,-1,10
 385 708 385 708 428 692 c 128,-1,11
 471 676 471 676 508 638 c 0,12,13
 584 560 584 560 584 349 c 0,14,15
 584 137 584 137 508 58 c 0,16,17
 471 19 471 19 428 3 c 128,-1,0
 385 -13 385 -13 328 -13 c 128,-1,1
171 197 m 128,-1,19
 180 141 180 141 202.5 111.5 c 128,-1,20
 225 82 225 82 253 73 c 128,-1,21
 281 64 281 64 336 64 c 128,-1,22
 391 64 391 64 424 82 c 0,23,24
 495 121 495 121 495 346 c 0,25,26
 495 573 495 573 425 613 c 0,27,28
 392 632 392 632 328 632 c 128,-1,29
 264 632 264 632 231 613 c 128,-1,30
 198 594 198 594 180 531.5 c 128,-1,31
 162 469 162 469 162 361 c 128,-1,18
 162 253 162 253 171 197 c 128,-1,19
157 756 m 1,32,33
 157 857 157 857 225 857 c 0,34,35
 256 857 256 857 336.5 834 c 128,-1,36
 417 811 417 811 424 811 c 0,37,38
 436 811 436 811 450 854 c 1,39,-1
 503 847 l 1,40,41
 503 793 503 793 485 769.5 c 128,-1,42
 467 746 467 746 436.5 746 c 128,-1,43
 406 746 406 746 324 770 c 128,-1,44
 242 794 242 794 236 794 c 0,45,46
 225 794 225 794 209 750 c 1,47,-1
 157 756 l 1,32,33
EndSplineSet
EndChar

StartChar: Odieresis
Encoding: 214 214 151
Width: 656
GlyphClass: 2
Flags: W
LayerCount: 2
Fore
SplineSet
328 -13 m 128,-1,1
 271 -13 271 -13 228 3 c 128,-1,2
 185 19 185 19 148 58 c 0,3,4
 72 137 72 137 72 349 c 0,5,6
 72 560 72 560 148 638 c 0,7,8
 185 676 185 676 228 692 c 128,-1,9
 271 708 271 708 328 708 c 128,-1,10
 385 708 385 708 428 692 c 128,-1,11
 471 676 471 676 508 638 c 0,12,13
 584 560 584 560 584 349 c 0,14,15
 584 137 584 137 508 58 c 0,16,17
 471 19 471 19 428 3 c 128,-1,0
 385 -13 385 -13 328 -13 c 128,-1,1
180 531.5 m 128,-1,19
 162 469 162 469 162 361 c 128,-1,20
 162 253 162 253 171 197 c 128,-1,21
 180 141 180 141 202.5 111.5 c 128,-1,22
 225 82 225 82 253 73 c 128,-1,23
 281 64 281 64 336 64 c 128,-1,24
 391 64 391 64 424 82 c 0,25,26
 495 121 495 121 495 346 c 0,27,28
 495 573 495 573 425 613 c 0,29,30
 392 632 392 632 328 632 c 128,-1,31
 264 632 264 632 231 613 c 128,-1,18
 198 594 198 594 180 531.5 c 128,-1,19
289 762 m 1,32,-1
 190 762 l 1,33,-1
 190 844 l 1,34,-1
 289 844 l 1,35,-1
 289 762 l 1,32,-1
475 762 m 1,36,-1
 377 762 l 1,37,-1
 377 844 l 1,38,-1
 475 844 l 1,39,-1
 475 762 l 1,36,-1
EndSplineSet
EndChar

StartChar: multiply
Encoding: 215 215 152
Width: 575
GlyphClass: 2
Flags: W
LayerCount: 2
Fore
SplineSet
106 63 m 1,0,-1
 54 116 l 1,1,-1
 236 298 l 1,2,-1
 56 478 l 1,3,-1
 106 529 l 1,4,-1
 286 348 l 1,5,-1
 469 531 l 1,6,-1
 521 478 l 1,7,-1
 339 296 l 1,8,-1
 519 116 l 1,9,-1
 469 65 l 1,10,-1
 288 245 l 1,11,-1
 106 63 l 1,0,-1
EndSplineSet
EndChar

StartChar: Oslash
Encoding: 216 216 153
Width: 656
GlyphClass: 2
Flags: W
LayerCount: 2
Fore
SplineSet
428 3 m 128,-1,1
 385 -13 385 -13 324 -13 c 128,-1,2
 263 -13 263 -13 214 8 c 1,3,-1
 193 -39 l 1,4,-1
 113 -39 l 1,5,-1
 156 49 l 1,6,7
 72 133 72 133 72 349 c 0,8,9
 72 560 72 560 148 638 c 0,10,11
 185 676 185 676 228 692 c 128,-1,12
 271 708 271 708 335.5 708 c 128,-1,13
 400 708 400 708 451 682 c 1,14,-1
 472 729 l 1,15,-1
 551 729 l 1,16,-1
 508 638 l 1,17,18
 584 552 584 552 584 349 c 0,19,20
 584 137 584 137 508 58 c 0,21,0
 471 19 471 19 428 3 c 128,-1,1
180 531.5 m 128,-1,23
 162 469 162 469 162 328 c 128,-1,24
 162 187 162 187 193 126 c 1,25,-1
 306 359 l 1,26,-1
 421 615 l 1,27,28
 388 632 388 632 326 632 c 128,-1,29
 264 632 264 632 231 613 c 128,-1,22
 198 594 198 594 180 531.5 c 128,-1,23
245 76 m 1,30,31
 276 64 276 64 333.5 64 c 128,-1,32
 391 64 391 64 424 82 c 0,33,34
 495 121 495 121 495 346 c 0,35,36
 495 495 495 495 469 557 c 1,37,-1
 360 328 l 1,38,-1
 245 76 l 1,30,31
EndSplineSet
EndChar

StartChar: Ugrave
Encoding: 217 217 154
Width: 661
GlyphClass: 2
Flags: W
LayerCount: 2
Fore
SplineSet
472 695 m 1,0,-1
 556 695 l 1,1,-1
 556 311 l 2,2,3
 556 128 556 128 501 57.5 c 128,-1,4
 446 -13 446 -13 330.5 -13 c 128,-1,5
 215 -13 215 -13 160 56.5 c 128,-1,6
 105 126 105 126 105 302 c 2,7,-1
 105 695 l 1,8,-1
 189 695 l 1,9,-1
 189 329 l 2,10,11
 189 207 189 207 201 152.5 c 128,-1,12
 213 98 213 98 240 80.5 c 128,-1,13
 267 63 267 63 317.5 63 c 128,-1,14
 368 63 368 63 390.5 68.5 c 128,-1,15
 413 74 413 74 431 88.5 c 128,-1,16
 449 103 449 103 456 134 c 0,17,18
 472 198 472 198 472 329 c 2,19,-1
 472 695 l 1,0,-1
170 797 m 1,20,-1
 196 868 l 1,21,-1
 422 787 l 1,22,-1
 402 736 l 1,23,-1
 170 797 l 1,20,-1
EndSplineSet
EndChar

StartChar: Uacute
Encoding: 218 218 155
Width: 661
GlyphClass: 2
Flags: W
LayerCount: 2
Fore
SplineSet
556 695 m 1,0,-1
 556 311 l 2,1,2
 556 128 556 128 501 57.5 c 128,-1,3
 446 -13 446 -13 330.5 -13 c 128,-1,4
 215 -13 215 -13 160 56.5 c 128,-1,5
 105 126 105 126 105 302 c 2,6,-1
 105 695 l 1,7,-1
 189 695 l 1,8,-1
 189 329 l 2,9,10
 189 207 189 207 201 152.5 c 128,-1,11
 213 98 213 98 240 80.5 c 128,-1,12
 267 63 267 63 317.5 63 c 128,-1,13
 368 63 368 63 390 68 c 0,14,15
 444 82 444 82 456 134 c 0,16,17
 472 198 472 198 472 329 c 2,18,-1
 472 695 l 1,19,-1
 556 695 l 1,0,-1
468 869 m 1,20,-1
 496 796 l 1,21,-1
 261 736 l 1,22,-1
 243 787 l 1,23,-1
 468 869 l 1,20,-1
EndSplineSet
EndChar

StartChar: Ucircumflex
Encoding: 219 219 156
Width: 661
GlyphClass: 2
Flags: W
LayerCount: 2
Fore
SplineSet
556 695 m 1,0,-1
 556 311 l 2,1,2
 556 128 556 128 501 57.5 c 128,-1,3
 446 -13 446 -13 330.5 -13 c 128,-1,4
 215 -13 215 -13 160 56.5 c 128,-1,5
 105 126 105 126 105 302 c 2,6,-1
 105 695 l 1,7,-1
 189 695 l 1,8,-1
 189 329 l 2,9,10
 189 207 189 207 201 152.5 c 128,-1,11
 213 98 213 98 240 80.5 c 128,-1,12
 267 63 267 63 317.5 63 c 128,-1,13
 368 63 368 63 390 68 c 0,14,15
 444 82 444 82 456 134 c 0,16,17
 472 198 472 198 472 329 c 2,18,-1
 472 695 l 1,19,-1
 556 695 l 1,0,-1
478 771 m 1,20,-1
 450 733 l 1,21,-1
 335 794 l 1,22,-1
 328 794 l 1,23,-1
 213 733 l 1,24,-1
 185 771 l 1,25,-1
 306 866 l 1,26,-1
 357 866 l 1,27,-1
 478 771 l 1,20,-1
EndSplineSet
EndChar

StartChar: Udieresis
Encoding: 220 220 157
Width: 661
GlyphClass: 2
Flags: W
LayerCount: 2
Fore
SplineSet
472 695 m 1,0,-1
 556 695 l 1,1,-1
 556 311 l 2,2,3
 556 128 556 128 501 57.5 c 128,-1,4
 446 -13 446 -13 330.5 -13 c 128,-1,5
 215 -13 215 -13 160 56.5 c 128,-1,6
 105 126 105 126 105 302 c 2,7,-1
 105 695 l 1,8,-1
 189 695 l 1,9,-1
 189 329 l 2,10,11
 189 207 189 207 201 152.5 c 128,-1,12
 213 98 213 98 240 80.5 c 128,-1,13
 267 63 267 63 317.5 63 c 128,-1,14
 368 63 368 63 390.5 68.5 c 128,-1,15
 413 74 413 74 431 88.5 c 128,-1,16
 449 103 449 103 456 134 c 0,17,18
 472 198 472 198 472 329 c 2,19,-1
 472 695 l 1,0,-1
287 759 m 1,20,-1
 188 759 l 1,21,-1
 188 841 l 1,22,-1
 287 841 l 1,23,-1
 287 759 l 1,20,-1
473 759 m 1,24,-1
 375 759 l 1,25,-1
 375 841 l 1,26,-1
 473 841 l 1,27,-1
 473 759 l 1,24,-1
EndSplineSet
EndChar

StartChar: Yacute
Encoding: 221 221 158
Width: 511
GlyphClass: 2
Flags: W
LayerCount: 2
Fore
SplineSet
207 0 m 1,0,-1
 209 259 l 1,1,-1
 5 695 l 1,2,-1
 99 695 l 1,3,-1
 248 329 l 1,4,-1
 252 329 l 1,5,-1
 402 695 l 1,6,-1
 496 695 l 1,7,-1
 291 258 l 1,8,-1
 293 0 l 1,9,-1
 207 0 l 1,0,-1
392 869 m 1,10,-1
 420 796 l 1,11,-1
 185 736 l 1,12,-1
 167 787 l 1,13,-1
 392 869 l 1,10,-1
EndSplineSet
EndChar

StartChar: Thorn
Encoding: 222 222 159
Width: 595
GlyphClass: 2
Flags: W
LayerCount: 2
Fore
SplineSet
337 611 m 0,0,1
 431 611 431 611 481.5 552.5 c 128,-1,2
 532 494 532 494 532 379 c 0,3,4
 532 239 532 239 462 184 c 0,5,6
 402 137 402 137 313 137 c 1,7,-1
 186 143 l 1,8,-1
 187 0 l 1,9,-1
 103 0 l 1,10,-1
 106 325 l 1,11,-1
 103 695 l 1,12,-1
 187 695 l 1,13,-1
 186 604 l 1,14,15
 291 611 291 611 337 611 c 0,0,1
185 220 m 1,16,17
 259 208 259 208 325.5 208 c 128,-1,18
 392 208 392 208 412 227 c 0,19,20
 443 257 443 257 443 383 c 128,-1,21
 443 509 443 509 407 531 c 0,22,23
 380 547 380 547 313.5 547 c 128,-1,24
 247 547 247 547 185 536 c 1,25,-1
 185 220 l 1,16,17
EndSplineSet
EndChar

StartChar: germandbls
Encoding: 223 223 160
Width: 615
GlyphClass: 2
Flags: W
LayerCount: 2
Fore
SplineSet
189 491 m 2,0,-1
 189 0 l 1,1,-1
 105 0 l 1,2,-1
 105 490 l 2,3,4
 105 598 105 598 160.5 653 c 128,-1,5
 216 708 216 708 300 708 c 128,-1,6
 384 708 384 708 441 660.5 c 128,-1,7
 498 613 498 613 498 530 c 0,8,9
 498 493 498 493 486 462 c 128,-1,10
 474 431 474 431 457 414 c 0,11,12
 422 377 422 377 401 377 c 1,13,14
 447 371 447 371 488 337 c 0,15,16
 511 318 511 318 525 281 c 128,-1,17
 539 244 539 244 539 195 c 0,18,19
 539 100 539 100 487 43.5 c 128,-1,20
 435 -13 435 -13 340 -13 c 0,21,22
 304 -13 304 -13 257 -3 c 1,23,-1
 267 60 l 1,24,25
 299 53 299 53 335 53 c 0,26,27
 396 53 396 53 423.5 84 c 128,-1,28
 451 115 451 115 451 190.5 c 128,-1,29
 451 266 451 266 420.5 302.5 c 128,-1,30
 390 339 390 339 311 339 c 2,31,-1
 285 339 l 1,32,-1
 285 398 l 1,33,34
 352 405 352 405 382 434 c 128,-1,35
 412 463 412 463 412 525 c 0,36,37
 412 645 412 645 302 645 c 0,38,39
 239 645 239 645 214 608.5 c 128,-1,40
 189 572 189 572 189 491 c 2,0,-1
EndSplineSet
EndChar

StartChar: agrave
Encoding: 224 224 161
Width: 568
GlyphClass: 2
Flags: W
LayerCount: 2
Fore
SplineSet
284 358 m 2,0,-1
 390 358 l 1,1,2
 390 475 390 475 372.5 499 c 128,-1,3
 355 523 355 523 308 523 c 128,-1,4
 261 523 261 523 208.5 510.5 c 128,-1,5
 156 498 156 498 96 473 c 1,6,-1
 67 538 l 1,7,8
 80 544 80 544 101.5 553.5 c 128,-1,9
 123 563 123 563 182 579 c 128,-1,10
 241 595 241 595 290 595 c 0,11,12
 473 595 473 595 473 383 c 2,13,-1
 473 0 l 1,14,-1
 419 0 l 1,15,-1
 407 61 l 1,16,-1
 401 61 l 1,17,18
 391 53 391 53 373 40.5 c 128,-1,19
 355 28 355 28 305 7.5 c 128,-1,20
 255 -13 255 -13 211 -13 c 0,21,22
 140 -13 140 -13 97 35.5 c 128,-1,23
 54 84 54 84 54 178.5 c 128,-1,24
 54 273 54 273 113 315.5 c 128,-1,25
 172 358 172 358 284 358 c 2,0,-1
390 281 m 1,26,27
 347 288 347 288 268.5 288 c 128,-1,28
 190 288 190 288 168 269 c 1,29,30
 141 248 141 248 141 180.5 c 128,-1,31
 141 113 141 113 160.5 87 c 128,-1,32
 180 61 180 61 219.5 61 c 128,-1,33
 259 61 259 61 300 74.5 c 128,-1,34
 341 88 341 88 390 115 c 1,35,-1
 390 281 l 1,26,27
151 735 m 1,36,-1
 181 802 l 1,37,-1
 403 707 l 1,38,-1
 383 657 l 1,39,-1
 151 735 l 1,36,-1
EndSplineSet
EndChar

StartChar: aacute
Encoding: 225 225 162
Width: 568
GlyphClass: 2
Flags: W
LayerCount: 2
Fore
SplineSet
390 358 m 1,0,1
 390 475 390 475 372.5 499 c 128,-1,2
 355 523 355 523 307 523 c 0,3,4
 204 523 204 523 96 473 c 1,5,-1
 67 538 l 1,6,-1
 98 552 l 2,7,8
 129 566 129 566 185 580.5 c 128,-1,9
 241 595 241 595 290 595 c 0,10,11
 473 595 473 595 473 383 c 2,12,-1
 473 0 l 1,13,-1
 419 0 l 1,14,-1
 407 61 l 1,15,-1
 401 61 l 1,16,-1
 376 42 l 1,17,18
 350 24 350 24 302.5 5.5 c 128,-1,19
 255 -13 255 -13 211 -13 c 0,20,21
 140 -13 140 -13 97 35.5 c 128,-1,22
 54 84 54 84 54 178.5 c 128,-1,23
 54 273 54 273 113 315.5 c 128,-1,24
 172 358 172 358 284 358 c 2,25,-1
 390 358 l 1,0,1
225 61 m 0,26,27
 301 61 301 61 390 115 c 1,28,-1
 390 281 l 1,29,30
 332 288 332 288 283 288 c 0,31,32
 190 288 190 288 168 269 c 1,33,34
 141 248 141 248 141 180.5 c 128,-1,35
 141 113 141 113 160.5 87 c 128,-1,36
 180 61 180 61 225 61 c 0,26,27
371 802 m 1,37,-1
 402 735 l 1,38,-1
 169 657 l 1,39,-1
 149 707 l 1,40,-1
 371 802 l 1,37,-1
EndSplineSet
EndChar

StartChar: acircumflex
Encoding: 226 226 163
Width: 568
GlyphClass: 2
Flags: W
LayerCount: 2
Fore
SplineSet
390 358 m 1,0,1
 390 475 390 475 372.5 499 c 128,-1,2
 355 523 355 523 307 523 c 0,3,4
 204 523 204 523 96 473 c 1,5,-1
 67 538 l 1,6,-1
 98 552 l 2,7,8
 129 566 129 566 185 580.5 c 128,-1,9
 241 595 241 595 290 595 c 0,10,11
 473 595 473 595 473 383 c 2,12,-1
 473 0 l 1,13,-1
 419 0 l 1,14,-1
 407 61 l 1,15,-1
 401 61 l 1,16,-1
 376 42 l 1,17,18
 350 24 350 24 302.5 5.5 c 128,-1,19
 255 -13 255 -13 211 -13 c 0,20,21
 140 -13 140 -13 97 35.5 c 128,-1,22
 54 84 54 84 54 178.5 c 128,-1,23
 54 273 54 273 113 315.5 c 128,-1,24
 172 358 172 358 284 358 c 2,25,-1
 390 358 l 1,0,1
225 61 m 0,26,27
 301 61 301 61 390 115 c 1,28,-1
 390 281 l 1,29,30
 332 288 332 288 283 288 c 0,31,32
 190 288 190 288 168 269 c 1,33,34
 141 248 141 248 141 180.5 c 128,-1,35
 141 113 141 113 160.5 87 c 128,-1,36
 180 61 180 61 225 61 c 0,26,27
418 693 m 1,37,-1
 389 659 l 1,38,-1
 275 730 l 1,39,-1
 268 730 l 1,40,-1
 154 659 l 1,41,-1
 125 693 l 1,42,-1
 246 802 l 1,43,-1
 297 802 l 1,44,-1
 418 693 l 1,37,-1
EndSplineSet
EndChar

StartChar: atilde
Encoding: 227 227 164
Width: 568
GlyphClass: 2
Flags: W
LayerCount: 2
Fore
SplineSet
390 358 m 1,0,1
 390 475 390 475 372.5 499 c 128,-1,2
 355 523 355 523 307 523 c 0,3,4
 204 523 204 523 96 473 c 1,5,-1
 67 538 l 1,6,-1
 98 552 l 2,7,8
 129 566 129 566 185 580.5 c 128,-1,9
 241 595 241 595 290 595 c 0,10,11
 473 595 473 595 473 383 c 2,12,-1
 473 0 l 1,13,-1
 419 0 l 1,14,-1
 407 61 l 1,15,-1
 401 61 l 1,16,-1
 376 42 l 1,17,18
 350 24 350 24 302.5 5.5 c 128,-1,19
 255 -13 255 -13 211 -13 c 0,20,21
 140 -13 140 -13 97 35.5 c 128,-1,22
 54 84 54 84 54 178.5 c 128,-1,23
 54 273 54 273 113 315.5 c 128,-1,24
 172 358 172 358 284 358 c 2,25,-1
 390 358 l 1,0,1
225 61 m 0,26,27
 301 61 301 61 390 115 c 1,28,-1
 390 281 l 1,29,30
 332 288 332 288 283 288 c 0,31,32
 190 288 190 288 168 269 c 1,33,34
 141 248 141 248 141 180.5 c 128,-1,35
 141 113 141 113 160.5 87 c 128,-1,36
 180 61 180 61 225 61 c 0,26,27
85 675 m 1,37,38
 85 776 85 776 153 776 c 0,39,40
 184 776 184 776 264.5 752 c 128,-1,41
 345 728 345 728 352 728 c 0,42,43
 364 728 364 728 378 773 c 1,44,-1
 431 766 l 1,45,46
 431 712 431 712 413 688.5 c 128,-1,47
 395 665 395 665 364.5 665 c 128,-1,48
 334 665 334 665 252 690 c 128,-1,49
 170 715 170 715 164 715 c 0,50,51
 153 715 153 715 137 669 c 1,52,-1
 85 675 l 1,37,38
EndSplineSet
EndChar

StartChar: adieresis
Encoding: 228 228 165
Width: 568
GlyphClass: 2
Flags: W
LayerCount: 2
Fore
SplineSet
284 358 m 2,0,-1
 390 358 l 1,1,2
 390 475 390 475 372.5 499 c 128,-1,3
 355 523 355 523 308 523 c 128,-1,4
 261 523 261 523 208.5 510.5 c 128,-1,5
 156 498 156 498 96 473 c 1,6,-1
 67 538 l 1,7,8
 80 544 80 544 101.5 553.5 c 128,-1,9
 123 563 123 563 182 579 c 128,-1,10
 241 595 241 595 290 595 c 0,11,12
 473 595 473 595 473 383 c 2,13,-1
 473 0 l 1,14,-1
 419 0 l 1,15,-1
 407 61 l 1,16,-1
 401 61 l 1,17,18
 391 53 391 53 373 40.5 c 128,-1,19
 355 28 355 28 305 7.5 c 128,-1,20
 255 -13 255 -13 211 -13 c 0,21,22
 140 -13 140 -13 97 35.5 c 128,-1,23
 54 84 54 84 54 178.5 c 128,-1,24
 54 273 54 273 113 315.5 c 128,-1,25
 172 358 172 358 284 358 c 2,0,-1
390 281 m 1,26,27
 347 288 347 288 268.5 288 c 128,-1,28
 190 288 190 288 168 269 c 1,29,30
 141 248 141 248 141 180.5 c 128,-1,31
 141 113 141 113 160.5 87 c 128,-1,32
 180 61 180 61 219.5 61 c 128,-1,33
 259 61 259 61 300 74.5 c 128,-1,34
 341 88 341 88 390 115 c 1,35,-1
 390 281 l 1,26,27
225 684 m 1,36,-1
 126 684 l 1,37,-1
 126 766 l 1,38,-1
 225 766 l 1,39,-1
 225 684 l 1,36,-1
411 684 m 1,40,-1
 313 684 l 1,41,-1
 313 766 l 1,42,-1
 411 766 l 1,43,-1
 411 684 l 1,40,-1
EndSplineSet
EndChar

StartChar: aring
Encoding: 229 229 166
Width: 568
GlyphClass: 2
Flags: W
LayerCount: 2
Fore
SplineSet
284 358 m 2,0,-1
 390 358 l 1,1,2
 390 475 390 475 372.5 499 c 128,-1,3
 355 523 355 523 308 523 c 128,-1,4
 261 523 261 523 208.5 510.5 c 128,-1,5
 156 498 156 498 96 473 c 1,6,-1
 67 538 l 1,7,8
 80 544 80 544 101.5 553.5 c 128,-1,9
 123 563 123 563 182 579 c 128,-1,10
 241 595 241 595 290 595 c 0,11,12
 473 595 473 595 473 383 c 2,13,-1
 473 0 l 1,14,-1
 419 0 l 1,15,-1
 407 61 l 1,16,-1
 401 61 l 1,17,18
 391 53 391 53 373 40.5 c 128,-1,19
 355 28 355 28 305 7.5 c 128,-1,20
 255 -13 255 -13 211 -13 c 0,21,22
 140 -13 140 -13 97 35.5 c 128,-1,23
 54 84 54 84 54 178.5 c 128,-1,24
 54 273 54 273 113 315.5 c 128,-1,25
 172 358 172 358 284 358 c 2,0,-1
390 281 m 1,26,27
 347 288 347 288 268.5 288 c 128,-1,28
 190 288 190 288 168 269 c 1,29,30
 141 248 141 248 141 180.5 c 128,-1,31
 141 113 141 113 160.5 87 c 128,-1,32
 180 61 180 61 219.5 61 c 128,-1,33
 259 61 259 61 300 74.5 c 128,-1,34
 341 88 341 88 390 115 c 1,35,-1
 390 281 l 1,26,27
272 814 m 128,-1,37
 308 814 308 814 332 794.5 c 128,-1,38
 356 775 356 775 356 730.5 c 128,-1,39
 356 686 356 686 332 666.5 c 128,-1,40
 308 647 308 647 272 647 c 128,-1,41
 236 647 236 647 212 666.5 c 128,-1,42
 188 686 188 686 188 730.5 c 128,-1,43
 188 775 188 775 212 794.5 c 128,-1,36
 236 814 236 814 272 814 c 128,-1,37
272 768 m 128,-1,45
 253 768 253 768 244.5 760.5 c 128,-1,46
 236 753 236 753 236 730.5 c 128,-1,47
 236 708 236 708 244.5 700.5 c 128,-1,48
 253 693 253 693 272 693 c 128,-1,49
 291 693 291 693 298.5 700.5 c 128,-1,50
 306 708 306 708 306 730.5 c 128,-1,51
 306 753 306 753 298.5 760.5 c 128,-1,44
 291 768 291 768 272 768 c 128,-1,45
EndSplineSet
EndChar

StartChar: ae
Encoding: 230 230 167
Width: 883
GlyphClass: 2
Flags: W
LayerCount: 2
Fore
SplineSet
615 -13 m 0,0,1
 490 -13 490 -13 437 68 c 1,2,-1
 432 68 l 1,3,4
 419 59 419 59 397.5 45.5 c 128,-1,5
 376 32 376 32 319 9.5 c 128,-1,6
 262 -13 262 -13 215 -13 c 0,7,8
 140 -13 140 -13 97 33 c 128,-1,9
 54 79 54 79 54 171 c 0,10,11
 54 342 54 342 284 342 c 2,12,-1
 390 342 l 1,13,14
 390 471 390 471 372.5 497 c 128,-1,15
 355 523 355 523 308 523 c 128,-1,16
 261 523 261 523 208.5 510.5 c 128,-1,17
 156 498 156 498 96 473 c 1,18,-1
 67 538 l 1,19,20
 186 595 186 595 279 595 c 0,21,22
 400 595 400 595 443 519 c 1,23,-1
 447 519 l 1,24,25
 503 595 503 595 610 595 c 128,-1,26
 717 595 717 595 767.5 533 c 128,-1,27
 818 471 818 471 818 329 c 2,28,-1
 818 270 l 1,29,-1
 475 270 l 1,30,-1
 475 234 l 1,31,32
 479 124 479 124 517 84 c 1,33,34
 544 60 544 60 606 60 c 0,35,36
 671 60 671 60 754 88 c 1,37,-1
 781 98 l 1,38,-1
 802 30 l 1,39,40
 720 -13 720 -13 615 -13 c 0,0,1
390 265 m 1,41,42
 349 272 349 272 269.5 272 c 128,-1,43
 190 272 190 272 168 253 c 1,44,45
 141 235 141 235 141 171 c 128,-1,46
 141 107 141 107 161 84 c 128,-1,47
 181 61 181 61 220 61 c 0,48,49
 290 61 290 61 365 98 c 1,50,-1
 390 111 l 1,51,-1
 390 265 l 1,41,42
710 496 m 1,52,53
 692 523 692 523 614.5 523 c 128,-1,54
 537 523 537 523 505.5 484 c 128,-1,55
 474 445 474 445 474 336 c 1,56,-1
 733 341 l 1,57,58
 733 458 733 458 710 496 c 1,52,53
EndSplineSet
EndChar

StartChar: ccedilla
Encoding: 231 231 168
Width: 518
GlyphClass: 2
Flags: W
LayerCount: 2
Fore
SplineSet
305 522 m 0,0,1
 229 522 229 522 203 496 c 1,2,3
 183 474 183 474 170 417.5 c 128,-1,4
 157 361 157 361 157 287 c 0,5,6
 157 119 157 119 221 75 c 0,7,8
 243 59 243 59 279.5 59 c 128,-1,9
 316 59 316 59 358.5 70.5 c 128,-1,10
 401 82 401 82 451 105 c 1,11,-1
 477 40 l 1,12,13
 435 9 435 9 367 -5 c 1,14,15
 381 -45 381 -45 381 -85 c 128,-1,16
 381 -125 381 -125 350.5 -152 c 128,-1,17
 320 -179 320 -179 272 -179 c 0,18,19
 244 -179 244 -179 199 -170 c 1,20,-1
 199 -108 l 1,21,22
 243 -113 243 -113 269 -113 c 128,-1,23
 295 -113 295 -113 306 -107 c 128,-1,24
 317 -101 317 -101 317 -73 c 128,-1,25
 317 -45 317 -45 309 -13 c 1,26,-1
 300 -13 l 2,27,28
 192 -13 192 -13 131 61.5 c 128,-1,29
 70 136 70 136 70 297.5 c 128,-1,30
 70 459 70 459 137 527 c 128,-1,31
 204 595 204 595 321 595 c 0,32,33
 397 595 397 595 463 579 c 1,34,-1
 453 509 l 1,35,36
 345 522 345 522 305 522 c 0,0,1
EndSplineSet
EndChar

StartChar: egrave
Encoding: 232 232 169
Width: 569
GlyphClass: 2
Flags: W
LayerCount: 2
Fore
SplineSet
302 -13 m 0,0,1
 70 -13 70 -13 70 291 c 128,-1,2
 70 595 70 595 300 595 c 0,3,4
 402 595 402 595 453 531.5 c 128,-1,5
 504 468 504 468 504 321 c 2,6,-1
 504 259 l 1,7,-1
 158 259 l 1,8,9
 158 124 158 124 201 84 c 0,10,11
 228 60 228 60 275 60 c 0,12,13
 359 60 359 60 440 88 c 1,14,-1
 467 98 l 1,15,-1
 488 30 l 1,16,17
 404 -13 404 -13 302 -13 c 0,0,1
396 493 m 1,18,19
 376 523 376 523 298 523 c 128,-1,20
 220 523 220 523 189 482 c 128,-1,21
 158 441 158 441 158 325 c 1,22,-1
 419 330 l 1,23,24
 419 455 419 455 396 493 c 1,18,19
157 735 m 1,25,-1
 187 802 l 1,26,-1
 409 707 l 1,27,-1
 389 657 l 1,28,-1
 157 735 l 1,25,-1
EndSplineSet
EndChar

StartChar: eacute
Encoding: 233 233 170
Width: 569
GlyphClass: 2
Flags: W
LayerCount: 2
Fore
SplineSet
302 -13 m 0,0,1
 70 -13 70 -13 70 291 c 128,-1,2
 70 595 70 595 300 595 c 0,3,4
 402 595 402 595 453 531.5 c 128,-1,5
 504 468 504 468 504 321 c 2,6,-1
 504 259 l 1,7,-1
 158 259 l 1,8,9
 158 124 158 124 201 84 c 0,10,11
 228 60 228 60 284 60 c 0,12,13
 369 60 369 60 467 98 c 1,14,-1
 488 30 l 1,15,16
 440 8 440 8 393.5 -2.5 c 128,-1,17
 347 -13 347 -13 302 -13 c 0,0,1
158 325 m 1,18,-1
 419 330 l 1,19,20
 419 455 419 455 396 493 c 1,21,22
 376 523 376 523 298 523 c 128,-1,23
 220 523 220 523 189 482 c 128,-1,24
 158 441 158 441 158 325 c 1,18,-1
438 802 m 1,25,-1
 469 735 l 1,26,-1
 236 657 l 1,27,-1
 216 707 l 1,28,-1
 438 802 l 1,25,-1
EndSplineSet
EndChar

StartChar: ecircumflex
Encoding: 234 234 171
Width: 569
GlyphClass: 2
Flags: W
LayerCount: 2
Fore
SplineSet
302 -13 m 0,0,1
 70 -13 70 -13 70 291 c 128,-1,2
 70 595 70 595 300 595 c 0,3,4
 402 595 402 595 453 531.5 c 128,-1,5
 504 468 504 468 504 321 c 2,6,-1
 504 259 l 1,7,-1
 158 259 l 1,8,9
 158 124 158 124 201 84 c 0,10,11
 228 60 228 60 284 60 c 0,12,13
 369 60 369 60 467 98 c 1,14,-1
 488 30 l 1,15,16
 440 8 440 8 393.5 -2.5 c 128,-1,17
 347 -13 347 -13 302 -13 c 0,0,1
158 325 m 1,18,-1
 419 330 l 1,19,20
 419 455 419 455 396 493 c 1,21,22
 376 523 376 523 298 523 c 128,-1,23
 220 523 220 523 189 482 c 128,-1,24
 158 441 158 441 158 325 c 1,18,-1
431 693 m 1,25,-1
 402 659 l 1,26,-1
 288 730 l 1,27,-1
 281 730 l 1,28,-1
 167 659 l 1,29,-1
 138 693 l 1,30,-1
 259 802 l 1,31,-1
 310 802 l 1,32,-1
 431 693 l 1,25,-1
EndSplineSet
EndChar

StartChar: edieresis
Encoding: 235 235 172
Width: 569
GlyphClass: 2
Flags: W
LayerCount: 2
Fore
SplineSet
302 -13 m 0,0,1
 70 -13 70 -13 70 291 c 128,-1,2
 70 595 70 595 300 595 c 0,3,4
 402 595 402 595 453 531.5 c 128,-1,5
 504 468 504 468 504 321 c 2,6,-1
 504 259 l 1,7,-1
 158 259 l 1,8,9
 158 124 158 124 201 84 c 0,10,11
 228 60 228 60 275 60 c 0,12,13
 359 60 359 60 440 88 c 1,14,-1
 467 98 l 1,15,-1
 488 30 l 1,16,17
 404 -13 404 -13 302 -13 c 0,0,1
396 493 m 1,18,19
 376 523 376 523 298 523 c 128,-1,20
 220 523 220 523 189 482 c 128,-1,21
 158 441 158 441 158 325 c 1,22,-1
 419 330 l 1,23,24
 419 455 419 455 396 493 c 1,18,19
244 684 m 1,25,-1
 145 684 l 1,26,-1
 145 766 l 1,27,-1
 244 766 l 1,28,-1
 244 684 l 1,25,-1
430 684 m 1,29,-1
 332 684 l 1,30,-1
 332 766 l 1,31,-1
 430 766 l 1,32,-1
 430 684 l 1,29,-1
EndSplineSet
EndChar

StartChar: igrave
Encoding: 236 236 173
Width: 295
GlyphClass: 2
Flags: W
LayerCount: 2
Fore
SplineSet
-31 734 m 1,0,-1
 -3 802 l 1,1,-1
 215 707 l 1,2,-1
 195 657 l 1,3,-1
 -31 734 l 1,0,-1
189 0 m 1,4,-1
 106 0 l 1,5,-1
 106 582 l 1,6,-1
 189 582 l 1,7,-1
 189 0 l 1,4,-1
EndSplineSet
EndChar

StartChar: iacute
Encoding: 237 237 174
Width: 295
GlyphClass: 2
Flags: W
LayerCount: 2
Fore
SplineSet
275 802 m 1,0,-1
 302 734 l 1,1,-1
 76 657 l 1,2,-1
 56 707 l 1,3,-1
 275 802 l 1,0,-1
106 0 m 1,4,-1
 106 582 l 1,5,-1
 189 582 l 1,6,-1
 189 0 l 1,7,-1
 106 0 l 1,4,-1
EndSplineSet
EndChar

StartChar: icircumflex
Encoding: 238 238 175
Width: 295
GlyphClass: 2
Flags: W
LayerCount: 2
Fore
SplineSet
288 693 m 1,0,-1
 256 660 l 1,1,-1
 152 730 l 1,2,-1
 144 730 l 1,3,-1
 40 660 l 1,4,-1
 7 693 l 1,5,-1
 121 802 l 1,6,-1
 174 802 l 1,7,-1
 288 693 l 1,0,-1
106 0 m 1,8,-1
 106 582 l 1,9,-1
 189 582 l 1,10,-1
 189 0 l 1,11,-1
 106 0 l 1,8,-1
EndSplineSet
EndChar

StartChar: idieresis
Encoding: 239 239 176
Width: 295
GlyphClass: 2
Flags: W
LayerCount: 2
Fore
SplineSet
106 684 m 1,0,-1
 7 684 l 1,1,-1
 7 766 l 1,2,-1
 106 766 l 1,3,-1
 106 684 l 1,0,-1
288 684 m 1,4,-1
 190 684 l 1,5,-1
 190 766 l 1,6,-1
 288 766 l 1,7,-1
 288 684 l 1,4,-1
189 0 m 1,8,-1
 106 0 l 1,9,-1
 106 582 l 1,10,-1
 189 582 l 1,11,-1
 189 0 l 1,8,-1
EndSplineSet
EndChar

StartChar: eth
Encoding: 240 240 177
Width: 576
GlyphClass: 2
Flags: W
LayerCount: 2
Fore
SplineSet
506 286 m 0,0,1
 506 139 506 139 456 63 c 128,-1,2
 406 -13 406 -13 287.5 -13 c 128,-1,3
 169 -13 169 -13 119.5 60.5 c 128,-1,4
 70 134 70 134 70 276 c 0,5,6
 70 520 70 520 286 520 c 0,7,8
 362 520 362 520 415 479 c 1,9,-1
 420 482 l 1,10,11
 397 555 397 555 329 617 c 1,12,-1
 234 556 l 1,13,-1
 226 626 l 1,14,-1
 280 658 l 1,15,16
 252 678 252 678 210 706 c 1,17,-1
 247 766 l 1,18,19
 302 737 302 737 345 704 c 1,20,-1
 453 775 l 1,21,-1
 460 704 l 1,22,-1
 391 662 l 1,23,24
 506 545 506 545 506 286 c 0,0,1
392 413.5 m 128,-1,26
 363 448 363 448 287.5 448 c 128,-1,27
 212 448 212 448 183 413.5 c 128,-1,28
 154 379 154 379 154 280.5 c 128,-1,29
 154 182 154 182 167.5 136 c 128,-1,30
 181 90 181 90 207.5 74 c 128,-1,31
 234 58 234 58 288 58 c 128,-1,32
 342 58 342 58 368.5 74 c 128,-1,33
 395 90 395 90 408 136 c 128,-1,34
 421 182 421 182 421 280.5 c 128,-1,25
 421 379 421 379 392 413.5 c 128,-1,26
EndSplineSet
EndChar

StartChar: ntilde
Encoding: 241 241 178
Width: 601
GlyphClass: 2
Flags: W
LayerCount: 2
Fore
SplineSet
184 0 m 1,0,-1
 101 0 l 1,1,-1
 101 582 l 1,2,-1
 157 582 l 1,3,-1
 166 525 l 1,4,-1
 171 525 l 1,5,6
 291 595 291 595 379 595 c 0,7,8
 419 595 419 595 446 580 c 0,9,10
 513 541 513 541 513 387 c 2,11,-1
 513 0 l 1,12,-1
 429 0 l 1,13,-1
 429 358 l 2,14,15
 429 472 429 472 414.5 494 c 128,-1,16
 400 516 400 516 360 516 c 0,17,18
 284 516 284 516 184 463 c 1,19,-1
 184 0 l 1,0,-1
130 675 m 1,20,21
 130 776 130 776 198 776 c 0,22,23
 229 776 229 776 309.5 752 c 128,-1,24
 390 728 390 728 396 728 c 0,25,26
 409 728 409 728 423 773 c 1,27,-1
 476 766 l 1,28,29
 476 712 476 712 458 688.5 c 128,-1,30
 440 665 440 665 409.5 665 c 128,-1,31
 379 665 379 665 297 690 c 128,-1,32
 215 715 215 715 209 715 c 0,33,34
 198 715 198 715 182 669 c 1,35,-1
 130 675 l 1,20,21
EndSplineSet
EndChar

StartChar: ograve
Encoding: 242 242 179
Width: 576
GlyphClass: 2
Flags: W
LayerCount: 2
Fore
SplineSet
119.5 517.5 m 128,-1,1
 169 595 169 595 287.5 595 c 128,-1,2
 406 595 406 595 456 517.5 c 128,-1,3
 506 440 506 440 506 291 c 128,-1,4
 506 142 506 142 456 64.5 c 128,-1,5
 406 -13 406 -13 287.5 -13 c 128,-1,6
 169 -13 169 -13 119.5 64 c 128,-1,7
 70 141 70 141 70 290.5 c 128,-1,0
 70 440 70 440 119.5 517.5 c 128,-1,1
288 523 m 128,-1,9
 234 523 234 523 207.5 506 c 128,-1,10
 181 489 181 489 167.5 439.5 c 128,-1,11
 154 390 154 390 154 291 c 128,-1,12
 154 192 154 192 167 142 c 128,-1,13
 180 92 180 92 207 75 c 128,-1,14
 234 58 234 58 288 58 c 128,-1,15
 342 58 342 58 368.5 75 c 128,-1,16
 395 92 395 92 408 142 c 128,-1,17
 421 192 421 192 421 291 c 128,-1,18
 421 390 421 390 408 439.5 c 128,-1,19
 395 489 395 489 368.5 506 c 128,-1,8
 342 523 342 523 288 523 c 128,-1,9
151 735 m 1,20,-1
 181 802 l 1,21,-1
 403 707 l 1,22,-1
 383 657 l 1,23,-1
 151 735 l 1,20,-1
EndSplineSet
EndChar

StartChar: oacute
Encoding: 243 243 180
Width: 576
GlyphClass: 2
Flags: W
LayerCount: 2
Fore
SplineSet
456 517.5 m 128,-1,1
 506 440 506 440 506 291 c 128,-1,2
 506 142 506 142 456 64.5 c 128,-1,3
 406 -13 406 -13 287.5 -13 c 128,-1,4
 169 -13 169 -13 119.5 64 c 128,-1,5
 70 141 70 141 70 290.5 c 128,-1,6
 70 440 70 440 119.5 517.5 c 128,-1,7
 169 595 169 595 287.5 595 c 128,-1,0
 406 595 406 595 456 517.5 c 128,-1,1
288 523 m 128,-1,9
 234 523 234 523 207.5 506 c 128,-1,10
 181 489 181 489 167.5 439.5 c 128,-1,11
 154 390 154 390 154 291 c 128,-1,12
 154 192 154 192 167 142 c 128,-1,13
 180 92 180 92 207 75 c 128,-1,14
 234 58 234 58 288 58 c 128,-1,15
 342 58 342 58 368.5 75 c 128,-1,16
 395 92 395 92 408 142 c 128,-1,17
 421 192 421 192 421 291 c 128,-1,18
 421 390 421 390 408 439.5 c 128,-1,19
 395 489 395 489 368.5 506 c 128,-1,8
 342 523 342 523 288 523 c 128,-1,9
424 802 m 1,20,-1
 455 735 l 1,21,-1
 222 657 l 1,22,-1
 202 707 l 1,23,-1
 424 802 l 1,20,-1
EndSplineSet
EndChar

StartChar: ocircumflex
Encoding: 244 244 181
Width: 576
GlyphClass: 2
Flags: W
LayerCount: 2
Fore
SplineSet
456 517.5 m 128,-1,1
 506 440 506 440 506 291 c 128,-1,2
 506 142 506 142 456 64.5 c 128,-1,3
 406 -13 406 -13 287.5 -13 c 128,-1,4
 169 -13 169 -13 119.5 64 c 128,-1,5
 70 141 70 141 70 290.5 c 128,-1,6
 70 440 70 440 119.5 517.5 c 128,-1,7
 169 595 169 595 287.5 595 c 128,-1,0
 406 595 406 595 456 517.5 c 128,-1,1
288 523 m 128,-1,9
 234 523 234 523 207.5 506 c 128,-1,10
 181 489 181 489 167.5 439.5 c 128,-1,11
 154 390 154 390 154 291 c 128,-1,12
 154 192 154 192 167 142 c 128,-1,13
 180 92 180 92 207 75 c 128,-1,14
 234 58 234 58 288 58 c 128,-1,15
 342 58 342 58 368.5 75 c 128,-1,16
 395 92 395 92 408 142 c 128,-1,17
 421 192 421 192 421 291 c 128,-1,18
 421 390 421 390 408 439.5 c 128,-1,19
 395 489 395 489 368.5 506 c 128,-1,8
 342 523 342 523 288 523 c 128,-1,9
434 693 m 1,20,-1
 405 659 l 1,21,-1
 291 730 l 1,22,-1
 284 730 l 1,23,-1
 170 659 l 1,24,-1
 141 693 l 1,25,-1
 262 802 l 1,26,-1
 313 802 l 1,27,-1
 434 693 l 1,20,-1
EndSplineSet
EndChar

StartChar: otilde
Encoding: 245 245 182
Width: 576
GlyphClass: 2
Flags: W
LayerCount: 2
Fore
SplineSet
456 517.5 m 128,-1,1
 506 440 506 440 506 291 c 128,-1,2
 506 142 506 142 456 64.5 c 128,-1,3
 406 -13 406 -13 287.5 -13 c 128,-1,4
 169 -13 169 -13 119.5 64 c 128,-1,5
 70 141 70 141 70 290.5 c 128,-1,6
 70 440 70 440 119.5 517.5 c 128,-1,7
 169 595 169 595 287.5 595 c 128,-1,0
 406 595 406 595 456 517.5 c 128,-1,1
288 523 m 128,-1,9
 234 523 234 523 207.5 506 c 128,-1,10
 181 489 181 489 167.5 439.5 c 128,-1,11
 154 390 154 390 154 291 c 128,-1,12
 154 192 154 192 167 142 c 128,-1,13
 180 92 180 92 207 75 c 128,-1,14
 234 58 234 58 288 58 c 128,-1,15
 342 58 342 58 368.5 75 c 128,-1,16
 395 92 395 92 408 142 c 128,-1,17
 421 192 421 192 421 291 c 128,-1,18
 421 390 421 390 408 439.5 c 128,-1,19
 395 489 395 489 368.5 506 c 128,-1,8
 342 523 342 523 288 523 c 128,-1,9
115 675 m 1,20,21
 115 776 115 776 183 776 c 0,22,23
 214 776 214 776 294.5 752 c 128,-1,24
 375 728 375 728 382 728 c 0,25,26
 394 728 394 728 408 773 c 1,27,-1
 461 766 l 1,28,29
 461 712 461 712 443 688.5 c 128,-1,30
 425 665 425 665 394.5 665 c 128,-1,31
 364 665 364 665 282 690 c 128,-1,32
 200 715 200 715 194 715 c 0,33,34
 183 715 183 715 167 669 c 1,35,-1
 115 675 l 1,20,21
EndSplineSet
EndChar

StartChar: odieresis
Encoding: 246 246 183
Width: 576
GlyphClass: 2
Flags: W
LayerCount: 2
Fore
SplineSet
119.5 517.5 m 128,-1,1
 169 595 169 595 287.5 595 c 128,-1,2
 406 595 406 595 456 517.5 c 128,-1,3
 506 440 506 440 506 291 c 128,-1,4
 506 142 506 142 456 64.5 c 128,-1,5
 406 -13 406 -13 287.5 -13 c 128,-1,6
 169 -13 169 -13 119.5 64 c 128,-1,7
 70 141 70 141 70 290.5 c 128,-1,0
 70 440 70 440 119.5 517.5 c 128,-1,1
288 523 m 128,-1,9
 234 523 234 523 207.5 506 c 128,-1,10
 181 489 181 489 167.5 439.5 c 128,-1,11
 154 390 154 390 154 291 c 128,-1,12
 154 192 154 192 167 142 c 128,-1,13
 180 92 180 92 207 75 c 128,-1,14
 234 58 234 58 288 58 c 128,-1,15
 342 58 342 58 368.5 75 c 128,-1,16
 395 92 395 92 408 142 c 128,-1,17
 421 192 421 192 421 291 c 128,-1,18
 421 390 421 390 408 439.5 c 128,-1,19
 395 489 395 489 368.5 506 c 128,-1,8
 342 523 342 523 288 523 c 128,-1,9
245 684 m 1,20,-1
 146 684 l 1,21,-1
 146 766 l 1,22,-1
 245 766 l 1,23,-1
 245 684 l 1,20,-1
431 684 m 1,24,-1
 333 684 l 1,25,-1
 333 766 l 1,26,-1
 431 766 l 1,27,-1
 431 684 l 1,24,-1
EndSplineSet
EndChar

StartChar: divide
Encoding: 247 247 184
Width: 618
GlyphClass: 2
Flags: W
LayerCount: 2
Fore
SplineSet
256 445 m 1,0,-1
 256 535 l 1,1,-1
 364 535 l 1,2,-1
 364 445 l 1,3,-1
 256 445 l 1,0,-1
256 50 m 1,4,-1
 256 140 l 1,5,-1
 364 140 l 1,6,-1
 364 50 l 1,7,-1
 256 50 l 1,4,-1
52 257 m 1,8,-1
 52 328 l 1,9,-1
 567 328 l 1,10,-1
 567 257 l 1,11,-1
 52 257 l 1,8,-1
EndSplineSet
EndChar

StartChar: oslash
Encoding: 248 248 185
Width: 579
GlyphClass: 2
Flags: W
LayerCount: 2
Fore
SplineSet
124 60 m 1,0,1
 71 133 71 133 71 286.5 c 128,-1,2
 71 440 71 440 121 517.5 c 128,-1,3
 171 595 171 595 290 595 c 0,4,5
 336 595 336 595 370 583 c 1,6,-1
 390 627 l 1,7,-1
 466 627 l 1,8,-1
 429 550 l 1,9,10
 508 479 508 479 508 291 c 0,11,12
 508 142 508 142 458 64.5 c 128,-1,13
 408 -13 408 -13 290 -13 c 0,14,15
 222 -13 222 -13 176 13 c 1,16,-1
 153 -38 l 1,17,-1
 77 -38 l 1,18,-1
 124 60 l 1,0,1
206 77 m 1,19,20
 231 58 231 58 287.5 58 c 128,-1,21
 344 58 344 58 370.5 75 c 128,-1,22
 397 92 397 92 410 142 c 128,-1,23
 423 192 423 192 423 312 c 128,-1,24
 423 432 423 432 395 480 c 1,25,-1
 305 291 l 1,26,-1
 206 77 l 1,19,20
340 518 m 1,27,28
 322 523 322 523 279 523 c 128,-1,29
 236 523 236 523 209 506 c 128,-1,30
 182 489 182 489 169 439.5 c 128,-1,31
 156 390 156 390 156 292 c 128,-1,32
 156 194 156 194 167 147 c 1,33,-1
 251 322 l 1,34,-1
 340 518 l 1,27,28
EndSplineSet
EndChar

StartChar: ugrave
Encoding: 249 249 186
Width: 600
GlyphClass: 2
Flags: W
LayerCount: 2
Fore
SplineSet
416 582 m 1,0,-1
 499 582 l 1,1,-1
 499 0 l 1,2,-1
 443 0 l 1,3,-1
 433 56 l 1,4,-1
 428 56 l 2,5,6
 427 56 427 56 397.5 39.5 c 128,-1,7
 368 23 368 23 349 14 c 0,8,9
 288 -13 288 -13 234 -13 c 0,10,11
 88 -13 88 -13 88 195 c 2,12,-1
 88 582 l 1,13,-1
 171 582 l 1,14,-1
 171 224 l 2,15,16
 171 109 171 109 184.5 86.5 c 128,-1,17
 198 64 198 64 249.5 64 c 128,-1,18
 301 64 301 64 416 117 c 1,19,-1
 416 582 l 1,0,-1
143 735 m 1,20,-1
 173 802 l 1,21,-1
 395 707 l 1,22,-1
 375 657 l 1,23,-1
 143 735 l 1,20,-1
EndSplineSet
EndChar

StartChar: uacute
Encoding: 250 250 187
Width: 600
GlyphClass: 2
Flags: W
LayerCount: 2
Fore
SplineSet
416 582 m 1,0,-1
 499 582 l 1,1,-1
 499 0 l 1,2,-1
 443 0 l 1,3,-1
 433 56 l 1,4,-1
 428 56 l 2,5,6
 427 56 427 56 398 40 c 0,7,8
 304 -13 304 -13 234 -13 c 0,9,10
 88 -13 88 -13 88 195 c 2,11,-1
 88 582 l 1,12,-1
 171 582 l 1,13,-1
 171 224 l 2,14,15
 171 109 171 109 184.5 86.5 c 128,-1,16
 198 64 198 64 249.5 64 c 128,-1,17
 301 64 301 64 416 117 c 1,18,-1
 416 582 l 1,0,-1
449 802 m 1,19,-1
 480 735 l 1,20,-1
 247 657 l 1,21,-1
 227 707 l 1,22,-1
 449 802 l 1,19,-1
EndSplineSet
EndChar

StartChar: ucircumflex
Encoding: 251 251 188
Width: 600
GlyphClass: 2
Flags: W
LayerCount: 2
Fore
SplineSet
416 582 m 1,0,-1
 499 582 l 1,1,-1
 499 0 l 1,2,-1
 443 0 l 1,3,-1
 433 56 l 1,4,-1
 428 56 l 2,5,6
 427 56 427 56 398 40 c 0,7,8
 304 -13 304 -13 234 -13 c 0,9,10
 88 -13 88 -13 88 195 c 2,11,-1
 88 582 l 1,12,-1
 171 582 l 1,13,-1
 171 224 l 2,14,15
 171 109 171 109 184.5 86.5 c 128,-1,16
 198 64 198 64 249.5 64 c 128,-1,17
 301 64 301 64 416 117 c 1,18,-1
 416 582 l 1,0,-1
443 693 m 1,19,-1
 414 659 l 1,20,-1
 300 730 l 1,21,-1
 293 730 l 1,22,-1
 179 659 l 1,23,-1
 150 693 l 1,24,-1
 271 802 l 1,25,-1
 322 802 l 1,26,-1
 443 693 l 1,19,-1
EndSplineSet
EndChar

StartChar: udieresis
Encoding: 252 252 189
Width: 600
GlyphClass: 2
Flags: W
LayerCount: 2
Fore
SplineSet
416 582 m 1,0,-1
 499 582 l 1,1,-1
 499 0 l 1,2,-1
 443 0 l 1,3,-1
 433 56 l 1,4,-1
 428 56 l 2,5,6
 427 56 427 56 397.5 39.5 c 128,-1,7
 368 23 368 23 349 14 c 0,8,9
 288 -13 288 -13 234 -13 c 0,10,11
 88 -13 88 -13 88 195 c 2,12,-1
 88 582 l 1,13,-1
 171 582 l 1,14,-1
 171 224 l 2,15,16
 171 109 171 109 184.5 86.5 c 128,-1,17
 198 64 198 64 249.5 64 c 128,-1,18
 301 64 301 64 416 117 c 1,19,-1
 416 582 l 1,0,-1
249 684 m 1,20,-1
 150 684 l 1,21,-1
 150 766 l 1,22,-1
 249 766 l 1,23,-1
 249 684 l 1,20,-1
435 684 m 1,24,-1
 337 684 l 1,25,-1
 337 766 l 1,26,-1
 435 766 l 1,27,-1
 435 684 l 1,24,-1
EndSplineSet
EndChar

StartChar: yacute
Encoding: 253 253 190
Width: 479
GlyphClass: 2
Flags: W
LayerCount: 2
Fore
SplineSet
125 -166 m 1,0,-1
 204 57 l 1,1,-1
 3 582 l 1,2,-1
 101 582 l 1,3,-1
 238 155 l 1,4,-1
 243 155 l 1,5,-1
 379 582 l 1,6,-1
 469 582 l 1,7,-1
 267 37 l 1,8,-1
 213 -166 l 1,9,-1
 125 -166 l 1,0,-1
379 802 m 1,10,-1
 410 735 l 1,11,-1
 177 657 l 1,12,-1
 157 707 l 1,13,-1
 379 802 l 1,10,-1
EndSplineSet
EndChar

StartChar: thorn
Encoding: 254 254 191
Width: 591
GlyphClass: 2
Flags: W
LayerCount: 2
Fore
SplineSet
188 -166 m 1,0,-1
 105 -166 l 1,1,-1
 105 753 l 1,2,-1
 188 753 l 1,3,-1
 188 573 l 1,4,5
 280 595 280 595 341 595 c 0,6,7
 431 595 431 595 476 522.5 c 128,-1,8
 521 450 521 450 521 293 c 0,9,10
 521 -13 521 -13 316 -13 c 0,11,12
 273 -13 273 -13 188 3 c 1,13,-1
 188 -166 l 1,0,-1
188 77 m 1,14,15
 254 60 254 60 311.5 60 c 128,-1,16
 369 60 369 60 388 76 c 1,17,18
 405 92 405 92 419.5 147 c 128,-1,19
 434 202 434 202 434 298 c 0,20,21
 434 479 434 479 402 505 c 0,22,23
 381 521 381 521 341 521 c 0,24,25
 270 521 270 521 188 495 c 1,26,-1
 188 77 l 1,14,15
EndSplineSet
EndChar

StartChar: ydieresis
Encoding: 255 255 192
Width: 479
GlyphClass: 2
Flags: W
LayerCount: 2
Fore
SplineSet
125 -166 m 1,0,-1
 204 57 l 1,1,-1
 3 582 l 1,2,-1
 101 582 l 1,3,-1
 238 155 l 1,4,-1
 243 155 l 1,5,-1
 379 582 l 1,6,-1
 469 582 l 1,7,-1
 267 37 l 1,8,-1
 213 -166 l 1,9,-1
 125 -166 l 1,0,-1
196 684 m 1,10,-1
 97 684 l 1,11,-1
 97 766 l 1,12,-1
 196 766 l 1,13,-1
 196 684 l 1,10,-1
382 684 m 1,14,-1
 284 684 l 1,15,-1
 284 766 l 1,16,-1
 382 766 l 1,17,-1
 382 684 l 1,14,-1
EndSplineSet
EndChar

StartChar: hbar
Encoding: 295 295 193
Width: 596
GlyphClass: 2
Flags: W
LayerCount: 2
Fore
SplineSet
404 496 m 0,0,1
 389 517 389 517 333 517 c 128,-1,2
 277 517 277 517 179 475 c 1,3,-1
 179 0 l 1,4,-1
 96 0 l 1,5,-1
 96 650 l 1,6,-1
 16 650 l 1,7,-1
 16 715 l 1,8,-1
 96 715 l 1,9,-1
 96 753 l 1,10,-1
 179 753 l 1,11,-1
 179 715 l 1,12,-1
 350 715 l 1,13,-1
 350 650 l 1,14,-1
 179 650 l 1,15,-1
 179 546 l 1,16,17
 292 595 292 595 355 595 c 0,18,19
 441 595 441 595 474.5 544.5 c 128,-1,20
 508 494 508 494 508 387 c 2,21,-1
 508 0 l 1,22,-1
 424 0 l 1,23,-1
 424 358 l 2,24,25
 424 467 424 467 404 496 c 0,0,1
EndSplineSet
EndChar

StartChar: Itilde
Encoding: 296 296 194
Width: 295
GlyphClass: 2
Flags: W
LayerCount: 2
Fore
SplineSet
0 756 m 1,0,1
 0 857 0 857 68 857 c 0,2,3
 99 857 99 857 154.5 834.5 c 128,-1,4
 210 812 210 812 216 812 c 0,5,6
 229 812 229 812 243 854 c 1,7,-1
 296 847 l 1,8,9
 296 793 296 793 278 769.5 c 128,-1,10
 260 746 260 746 229.5 746 c 128,-1,11
 199 746 199 746 142 769 c 128,-1,12
 85 792 85 792 79 792 c 0,13,14
 68 792 68 792 52 750 c 1,15,-1
 0 756 l 1,0,1
185 388 m 1,16,-1
 190 0 l 1,17,-1
 105 -1 l 1,18,-1
 109 318 l 1,19,-1
 105 695 l 1,20,-1
 190 695 l 1,21,-1
 185 388 l 1,16,-1
EndSplineSet
EndChar

StartChar: itilde
Encoding: 297 297 195
Width: 295
GlyphClass: 2
Flags: W
LayerCount: 2
Fore
SplineSet
0 676 m 1,0,1
 0 776 0 776 58 776 c 0,2,3
 84 776 84 776 149 752 c 128,-1,4
 214 728 214 728 221 728 c 0,5,6
 229 728 229 728 243 773 c 1,7,-1
 295 766 l 1,8,9
 295 712 295 712 280 689 c 128,-1,10
 265 666 265 666 238.5 666 c 128,-1,11
 212 666 212 666 146.5 691 c 128,-1,12
 81 716 81 716 75 716 c 0,13,14
 66 716 66 716 52 670 c 1,15,-1
 0 676 l 1,0,1
106 0 m 1,16,-1
 106 582 l 1,17,-1
 189 582 l 1,18,-1
 189 0 l 1,19,-1
 106 0 l 1,16,-1
EndSplineSet
EndChar

StartChar: dotlessi
Encoding: 305 305 196
Width: 295
GlyphClass: 2
Flags: W
LayerCount: 2
Fore
SplineSet
189 0 m 1,0,-1
 106 0 l 1,1,-1
 106 582 l 1,2,-1
 189 582 l 1,3,-1
 189 0 l 1,0,-1
EndSplineSet
EndChar

StartChar: IJ
Encoding: 306 306 197
Width: 579
GlyphClass: 2
Flags: W
LayerCount: 2
Fore
SplineSet
185 388 m 1,0,-1
 190 0 l 1,1,-1
 105 0 l 1,2,-1
 109 318 l 1,3,-1
 105 695 l 1,4,-1
 190 695 l 1,5,-1
 185 388 l 1,0,-1
483 236 m 2,6,7
 483 -13 483 -13 319 -13 c 0,8,9
 299 -13 299 -13 256 -6 c 1,10,-1
 265 66 l 1,11,12
 313 60 313 60 335.5 60 c 128,-1,13
 358 60 358 60 370 69 c 0,14,15
 399 90 399 90 399 223 c 2,16,-1
 399 695 l 1,17,-1
 483 695 l 1,18,-1
 483 236 l 2,6,7
EndSplineSet
EndChar

StartChar: ij
Encoding: 307 307 198
Width: 569
GlyphClass: 2
Flags: W
LayerCount: 2
Fore
SplineSet
189 0 m 1,0,-1
 106 0 l 1,1,-1
 106 582 l 1,2,-1
 189 582 l 1,3,-1
 189 0 l 1,0,-1
199 668 m 1,4,-1
 97 668 l 1,5,-1
 97 753 l 1,6,-1
 199 753 l 1,7,-1
 199 668 l 1,4,-1
463 582 m 1,8,-1
 463 55 l 2,9,10
 463 -178 463 -178 305 -178 c 1,11,-1
 245 -173 l 1,12,-1
 254 -99 l 1,13,14
 282 -103 282 -103 313 -103 c 128,-1,15
 344 -103 344 -103 356 -94 c 0,16,17
 380 -78 380 -78 380 52 c 2,18,-1
 380 582 l 1,19,-1
 463 582 l 1,8,-1
472 668 m 1,20,-1
 370 668 l 1,21,-1
 370 753 l 1,22,-1
 472 753 l 1,23,-1
 472 668 l 1,20,-1
EndSplineSet
EndChar

StartChar: Jcircumflex
Encoding: 308 308 199
Width: 316
GlyphClass: 2
Flags: W
LayerCount: 2
Fore
SplineSet
318 773 m 1,0,-1
 292 733 l 1,1,-1
 182 794 l 1,2,-1
 175 794 l 1,3,-1
 65 733 l 1,4,-1
 39 773 l 1,5,-1
 153 866 l 1,6,-1
 204 866 l 1,7,-1
 318 773 l 1,0,-1
220 236 m 2,8,9
 220 -13 220 -13 56 -13 c 0,10,11
 36 -13 36 -13 -7 -6 c 1,12,-1
 2 66 l 1,13,14
 50 60 50 60 72.5 60 c 128,-1,15
 95 60 95 60 108 69 c 0,16,17
 136 90 136 90 136 223 c 2,18,-1
 136 695 l 1,19,-1
 220 695 l 1,20,-1
 220 236 l 2,8,9
EndSplineSet
EndChar

StartChar: jcircumflex
Encoding: 309 309 200
Width: 336
GlyphClass: 2
Flags: W
LayerCount: 2
Fore
SplineSet
214 55 m 2,0,1
 214 -178 214 -178 56 -178 c 0,2,3
 30 -178 30 -178 -4 -173 c 1,4,-1
 5 -99 l 1,5,-1
 66 -103 l 1,6,7
 95 -103 95 -103 107 -94 c 0,8,9
 131 -78 131 -78 131 52 c 2,10,-1
 131 582 l 1,11,-1
 214 582 l 1,12,-1
 214 55 l 2,0,1
313 693 m 1,13,-1
 281 660 l 1,14,-1
 177 730 l 1,15,-1
 169 730 l 1,16,-1
 65 660 l 1,17,-1
 32 693 l 1,18,-1
 146 802 l 1,19,-1
 199 802 l 1,20,-1
 313 693 l 1,13,-1
EndSplineSet
EndChar

StartChar: kcommaaccent
Encoding: 311 311 201
Width: 522
GlyphClass: 2
Flags: W
LayerCount: 2
Fore
SplineSet
233 -55 m 1,0,-1
 317 -55 l 1,1,2
 315 -141 315 -141 285.5 -178.5 c 128,-1,3
 256 -216 256 -216 208 -233 c 1,4,-1
 186 -192 l 1,5,6
 218 -176 218 -176 225.5 -151 c 128,-1,7
 233 -126 233 -126 233 -55 c 1,0,-1
173 753 m 1,8,-1
 173 0 l 1,9,-1
 90 0 l 1,10,-1
 95 321 l 1,11,-1
 90 753 l 1,12,-1
 173 753 l 1,8,-1
174 314 m 1,13,-1
 406 582 l 1,14,-1
 513 582 l 1,15,-1
 266 319 l 1,16,-1
 266 314 l 1,17,-1
 531 0 l 1,18,-1
 423 0 l 1,19,-1
 174 314 l 1,13,-1
EndSplineSet
EndChar

StartChar: kgreenlandic
Encoding: 312 312 202
Width: 533
GlyphClass: 2
Flags: W
LayerCount: 2
Fore
SplineSet
185 314 m 1,0,-1
 417 582 l 1,1,-1
 524 582 l 1,2,-1
 277 319 l 1,3,-1
 277 314 l 1,4,-1
 542 0 l 1,5,-1
 434 0 l 1,6,-1
 185 314 l 1,0,-1
101 582 m 1,7,-1
 158 582 l 1,8,-1
 184 506 l 1,9,-1
 184 0 l 1,10,-1
 101 0 l 1,11,-1
 101 582 l 1,7,-1
EndSplineSet
EndChar

StartChar: Ldotaccent
Encoding: 319 319 203
Width: 446
GlyphClass: 2
Flags: W
LayerCount: 2
Fore
SplineSet
105 0 m 1,0,-1
 105 695 l 1,1,-1
 189 695 l 1,2,-1
 184 75 l 1,3,-1
 435 77 l 1,4,-1
 435 0 l 1,5,-1
 105 0 l 1,0,-1
275 333 m 1,6,-1
 275 420 l 1,7,-1
 373 420 l 1,8,-1
 373 333 l 1,9,-1
 275 333 l 1,6,-1
EndSplineSet
EndChar

StartChar: ldot
Encoding: 320 320 204
Width: 367
GlyphClass: 2
Flags: W
LayerCount: 2
Fore
SplineSet
244 361 m 1,0,-1
 244 447 l 1,1,-1
 342 447 l 1,2,-1
 342 361 l 1,3,-1
 244 361 l 1,0,-1
172 0 m 1,4,-1
 90 0 l 1,5,-1
 90 753 l 1,6,-1
 172 753 l 1,7,-1
 172 0 l 1,4,-1
EndSplineSet
EndChar

StartChar: Lslash
Encoding: 321 321 205
Width: 438
GlyphClass: 2
Flags: W
LayerCount: 2
Fore
SplineSet
102 695 m 1,0,-1
 186 695 l 1,1,-1
 183 389 l 1,2,-1
 346 502 l 1,3,-1
 346 419 l 1,4,-1
 183 306 l 1,5,-1
 181 75 l 1,6,-1
 433 77 l 1,7,-1
 433 0 l 1,8,-1
 102 0 l 1,9,-1
 102 251 l 1,10,-1
 41 209 l 1,11,-1
 41 291 l 1,12,-1
 102 333 l 1,13,-1
 102 695 l 1,0,-1
EndSplineSet
EndChar

StartChar: lslash
Encoding: 322 322 206
Width: 286
GlyphClass: 2
Flags: W
LayerCount: 2
Fore
SplineSet
189 0 m 1,0,-1
 106 0 l 1,1,-1
 106 320 l 1,2,-1
 29 270 l 1,3,-1
 29 349 l 1,4,-1
 106 400 l 1,5,-1
 106 753 l 1,6,-1
 189 753 l 1,7,-1
 189 456 l 1,8,-1
 257 502 l 1,9,-1
 257 420 l 1,10,-1
 189 375 l 1,11,-1
 189 0 l 1,0,-1
EndSplineSet
EndChar

StartChar: Nacute
Encoding: 323 323 207
Width: 677
GlyphClass: 2
Flags: W
LayerCount: 2
Fore
SplineSet
488 869 m 1,0,-1
 516 796 l 1,1,-1
 281 736 l 1,2,-1
 263 787 l 1,3,-1
 488 869 l 1,0,-1
105 695 m 1,4,-1
 222 695 l 1,5,-1
 500 79 l 1,6,-1
 505 79 l 1,7,-1
 490 695 l 1,8,-1
 572 695 l 1,9,-1
 572 0 l 1,10,-1
 455 0 l 1,11,-1
 178 616 l 1,12,-1
 174 616 l 1,13,-1
 187 0 l 1,14,-1
 105 0 l 1,15,-1
 105 695 l 1,4,-1
EndSplineSet
EndChar

StartChar: nacute
Encoding: 324 324 208
Width: 601
GlyphClass: 2
Flags: W
LayerCount: 2
Fore
SplineSet
184 0 m 1,0,-1
 101 0 l 1,1,-1
 101 582 l 1,2,-1
 157 582 l 1,3,-1
 166 525 l 1,4,-1
 171 525 l 1,5,6
 291 595 291 595 379 595 c 0,7,8
 419 595 419 595 446 580 c 0,9,10
 513 541 513 541 513 387 c 2,11,-1
 513 0 l 1,12,-1
 429 0 l 1,13,-1
 429 358 l 2,14,15
 429 472 429 472 414.5 494 c 128,-1,16
 400 516 400 516 360 516 c 0,17,18
 284 516 284 516 184 463 c 1,19,-1
 184 0 l 1,0,-1
444 802 m 1,20,-1
 475 735 l 1,21,-1
 242 657 l 1,22,-1
 222 707 l 1,23,-1
 444 802 l 1,20,-1
EndSplineSet
EndChar

StartChar: OE
Encoding: 338 338 209
Width: 909
GlyphClass: 2
Flags: W
LayerCount: 2
Fore
SplineSet
499 642 m 1,0,-1
 499 695 l 1,1,-1
 841 695 l 1,2,-1
 841 619 l 1,3,-1
 583 622 l 1,4,-1
 578 389 l 1,5,-1
 817 389 l 1,6,-1
 817 318 l 1,7,-1
 578 318 l 1,8,-1
 583 73 l 1,9,-1
 841 75 l 1,10,-1
 841 0 l 1,11,-1
 499 0 l 1,12,-1
 499 54 l 1,13,-1
 495 54 l 1,14,15
 437 -13 437 -13 328 -13 c 0,16,17
 271 -13 271 -13 228 3 c 128,-1,18
 185 19 185 19 148 58 c 0,19,20
 72 137 72 137 72 349 c 0,21,22
 72 560 72 560 148 638 c 0,23,24
 185 676 185 676 228 692 c 128,-1,25
 271 708 271 708 328 708 c 0,26,27
 435 708 435 708 495 642 c 1,28,-1
 499 642 l 1,0,-1
180 531.5 m 128,-1,30
 162 469 162 469 162 361 c 128,-1,31
 162 253 162 253 171 197 c 128,-1,32
 180 141 180 141 202.5 111.5 c 128,-1,33
 225 82 225 82 253 73 c 128,-1,34
 281 64 281 64 336 64 c 128,-1,35
 391 64 391 64 424 82 c 0,36,37
 495 121 495 121 495 346 c 0,38,39
 495 573 495 573 425 613 c 0,40,41
 392 632 392 632 328 632 c 128,-1,42
 264 632 264 632 231 613 c 128,-1,29
 198 594 198 594 180 531.5 c 128,-1,30
EndSplineSet
EndChar

StartChar: oe
Encoding: 339 339 210
Width: 916
GlyphClass: 2
Flags: W
LayerCount: 2
Fore
SplineSet
119.5 517.5 m 128,-1,1
 169 595 169 595 290 595 c 128,-1,2
 411 595 411 595 463 502 c 1,3,-1
 467 502 l 1,4,5
 522 595 522 595 649 595 c 0,6,7
 749 595 749 595 800 531 c 128,-1,8
 851 467 851 467 851 321 c 2,9,-1
 851 259 l 1,10,-1
 507 259 l 1,11,-1
 507 225 l 1,12,13
 510 118 510 118 550 84 c 0,14,15
 577 60 577 60 638 60 c 0,16,17
 671 60 671 60 715 69.5 c 128,-1,18
 759 79 759 79 814 98 c 1,19,-1
 835 30 l 1,20,21
 752 -13 752 -13 648 -13 c 0,22,23
 526 -13 526 -13 470 80 c 1,24,-1
 466 80 l 1,25,26
 415 -13 415 -13 292 -13 c 128,-1,27
 169 -13 169 -13 119.5 64 c 128,-1,28
 70 141 70 141 70 290.5 c 128,-1,0
 70 440 70 440 119.5 517.5 c 128,-1,1
288 523 m 128,-1,30
 234 523 234 523 207.5 506 c 128,-1,31
 181 489 181 489 167.5 439.5 c 128,-1,32
 154 390 154 390 154 291 c 128,-1,33
 154 192 154 192 167 142 c 128,-1,34
 180 92 180 92 207 75 c 128,-1,35
 234 58 234 58 288 58 c 128,-1,36
 342 58 342 58 368.5 75 c 128,-1,37
 395 92 395 92 408 142 c 128,-1,38
 421 192 421 192 421 291 c 128,-1,39
 421 390 421 390 408 439.5 c 128,-1,40
 395 489 395 489 368.5 506 c 128,-1,29
 342 523 342 523 288 523 c 128,-1,30
743 493 m 0,41,42
 726 523 726 523 648 523 c 128,-1,43
 570 523 570 523 538.5 482 c 128,-1,44
 507 441 507 441 507 325 c 1,45,-1
 766 330 l 1,46,47
 766 455 766 455 743 493 c 0,41,42
EndSplineSet
EndChar

StartChar: Racute
Encoding: 340 340 211
Width: 635
GlyphClass: 2
Flags: W
LayerCount: 2
Fore
SplineSet
190 0 m 1,0,-1
 105 0 l 1,1,-1
 110 329 l 1,2,-1
 107 695 l 1,3,4
 204 708 204 708 328 708 c 0,5,6
 550 708 550 708 550 492 c 0,7,8
 550 321 550 321 402 286 c 1,9,-1
 402 282 l 1,10,-1
 559 0 l 1,11,-1
 459 0 l 1,12,-1
 316 276 l 1,13,-1
 190 281 l 1,14,-1
 190 0 l 1,0,-1
189 356 m 1,15,16
 283 346 283 346 346 346 c 128,-1,17
 409 346 409 346 435 379.5 c 128,-1,18
 461 413 461 413 461 493 c 0,19,20
 461 607 461 607 422 630 c 0,21,22
 399 644 399 644 336.5 644 c 128,-1,23
 274 644 274 644 191 633 c 1,24,-1
 189 356 l 1,15,16
431 877 m 1,25,-1
 462 810 l 1,26,-1
 229 732 l 1,27,-1
 209 782 l 1,28,-1
 431 877 l 1,25,-1
EndSplineSet
EndChar

StartChar: Rcommaaccent
Encoding: 342 342 212
Width: 635
GlyphClass: 2
Flags: W
LayerCount: 2
Fore
SplineSet
279 -55 m 1,0,-1
 362 -55 l 1,1,2
 360 -147 360 -147 325 -186 c 0,3,4
 297 -217 297 -217 254 -233 c 1,5,-1
 232 -192 l 1,6,7
 264 -176 264 -176 271.5 -151 c 128,-1,8
 279 -126 279 -126 279 -55 c 1,0,-1
190 0 m 1,9,-1
 105 0 l 1,10,-1
 110 329 l 1,11,-1
 107 695 l 1,12,13
 204 708 204 708 328 708 c 0,14,15
 550 708 550 708 550 492 c 0,16,17
 550 321 550 321 402 286 c 1,18,-1
 402 282 l 1,19,-1
 559 0 l 1,20,-1
 459 0 l 1,21,-1
 316 276 l 1,22,-1
 190 281 l 1,23,-1
 190 0 l 1,9,-1
189 356 m 1,24,25
 283 346 283 346 346 346 c 128,-1,26
 409 346 409 346 435 379.5 c 128,-1,27
 461 413 461 413 461 493 c 0,28,29
 461 607 461 607 422 630 c 0,30,31
 399 644 399 644 336.5 644 c 128,-1,32
 274 644 274 644 191 633 c 1,33,-1
 189 356 l 1,24,25
EndSplineSet
EndChar

StartChar: rcommaaccent
Encoding: 343 343 213
Width: 395
GlyphClass: 2
Flags: W
LayerCount: 2
Fore
SplineSet
368 510 m 1,0,1
 345 512 345 512 318.5 512 c 128,-1,2
 292 512 292 512 250 496 c 128,-1,3
 208 480 208 480 184 461 c 1,4,-1
 184 0 l 1,5,-1
 101 0 l 1,6,-1
 101 582 l 1,7,-1
 154 582 l 1,8,-1
 165 523 l 1,9,-1
 171 523 l 1,10,11
 212 553 212 553 258 574 c 128,-1,12
 304 595 304 595 334 595 c 1,13,-1
 375 590 l 1,14,-1
 368 510 l 1,0,1
101 -55 m 1,15,-1
 184 -55 l 1,16,17
 182 -147 182 -147 147 -186 c 0,18,19
 119 -217 119 -217 76 -233 c 1,20,-1
 54 -192 l 1,21,22
 86 -176 86 -176 93.5 -151 c 128,-1,23
 101 -126 101 -126 101 -55 c 1,15,-1
EndSplineSet
EndChar

StartChar: Rcaron
Encoding: 344 344 214
Width: 635
GlyphClass: 2
Flags: W
LayerCount: 2
Fore
SplineSet
190 0 m 1,0,-1
 105 0 l 1,1,-1
 110 329 l 1,2,-1
 107 695 l 1,3,4
 204 708 204 708 328 708 c 0,5,6
 550 708 550 708 550 492 c 0,7,8
 550 321 550 321 402 286 c 1,9,-1
 402 282 l 1,10,-1
 559 0 l 1,11,-1
 459 0 l 1,12,-1
 316 276 l 1,13,-1
 190 281 l 1,14,-1
 190 0 l 1,0,-1
189 356 m 1,15,16
 283 346 283 346 346 346 c 128,-1,17
 409 346 409 346 435 379.5 c 128,-1,18
 461 413 461 413 461 493 c 0,19,20
 461 607 461 607 422 630 c 0,21,22
 399 644 399 644 336.5 644 c 128,-1,23
 274 644 274 644 191 633 c 1,24,-1
 189 356 l 1,15,16
437 879 m 1,25,-1
 465 841 l 1,26,-1
 344 746 l 1,27,-1
 293 746 l 1,28,-1
 172 841 l 1,29,-1
 200 879 l 1,30,-1
 315 818 l 1,31,-1
 322 818 l 1,32,-1
 437 879 l 1,25,-1
EndSplineSet
EndChar

StartChar: rcaron
Encoding: 345 345 215
Width: 395
GlyphClass: 2
Flags: W
LayerCount: 2
Fore
SplineSet
368 510 m 1,0,1
 345 512 345 512 318.5 512 c 128,-1,2
 292 512 292 512 250 496 c 128,-1,3
 208 480 208 480 184 461 c 1,4,-1
 184 0 l 1,5,-1
 101 0 l 1,6,-1
 101 582 l 1,7,-1
 154 582 l 1,8,-1
 165 523 l 1,9,-1
 171 523 l 1,10,11
 212 553 212 553 258 574 c 128,-1,12
 304 595 304 595 334 595 c 1,13,-1
 375 590 l 1,14,-1
 368 510 l 1,0,1
345 806 m 1,15,-1
 374 772 l 1,16,-1
 253 663 l 1,17,-1
 202 663 l 1,18,-1
 81 772 l 1,19,-1
 110 806 l 1,20,-1
 224 735 l 1,21,-1
 231 735 l 1,22,-1
 345 806 l 1,15,-1
EndSplineSet
EndChar

StartChar: dotlessj
Encoding: 567 567 216
Width: 307
GlyphClass: 2
Flags: W
LayerCount: 2
Fore
SplineSet
201 582 m 1,0,-1
 201 55 l 2,1,2
 201 -178 201 -178 43 -178 c 1,3,-1
 -17 -173 l 1,4,-1
 -8 -99 l 1,5,6
 20 -103 20 -103 51 -103 c 128,-1,7
 82 -103 82 -103 94 -94 c 0,8,9
 118 -78 118 -78 118 52 c 2,10,-1
 118 582 l 1,11,-1
 201 582 l 1,0,-1
EndSplineSet
EndChar

StartChar: circumflex
Encoding: 710 710 217
Width: 501
GlyphClass: 2
Flags: W
LayerCount: 2
Fore
SplineSet
398 693 m 1,0,-1
 369 659 l 1,1,-1
 255 730 l 1,2,-1
 248 730 l 1,3,-1
 134 659 l 1,4,-1
 105 693 l 1,5,-1
 226 802 l 1,6,-1
 277 802 l 1,7,-1
 398 693 l 1,0,-1
EndSplineSet
EndChar

StartChar: caron
Encoding: 711 711 218
Width: 317
GlyphClass: 2
Flags: W
LayerCount: 2
Fore
SplineSet
277 806 m 1,0,-1
 306 772 l 1,1,-1
 185 663 l 1,2,-1
 134 663 l 1,3,-1
 13 772 l 1,4,-1
 42 806 l 1,5,-1
 156 735 l 1,6,-1
 163 735 l 1,7,-1
 277 806 l 1,0,-1
EndSplineSet
EndChar

StartChar: ring
Encoding: 730 730 219
Width: 284
GlyphClass: 2
Flags: W
LayerCount: 2
Fore
SplineSet
142 814 m 128,-1,1
 178 814 178 814 202 794.5 c 128,-1,2
 226 775 226 775 226 730.5 c 128,-1,3
 226 686 226 686 202 666.5 c 128,-1,4
 178 647 178 647 142 647 c 128,-1,5
 106 647 106 647 82 666.5 c 128,-1,6
 58 686 58 686 58 730.5 c 128,-1,7
 58 775 58 775 82 794.5 c 128,-1,0
 106 814 106 814 142 814 c 128,-1,1
142 768 m 128,-1,9
 123 768 123 768 114.5 760.5 c 128,-1,10
 106 753 106 753 106 730.5 c 128,-1,11
 106 708 106 708 114.5 700.5 c 128,-1,12
 123 693 123 693 142 693 c 128,-1,13
 161 693 161 693 168.5 700.5 c 128,-1,14
 176 708 176 708 176 730.5 c 128,-1,15
 176 753 176 753 168.5 760.5 c 128,-1,8
 161 768 161 768 142 768 c 128,-1,9
EndSplineSet
EndChar

StartChar: tilde
Encoding: 732 732 220
Width: 536
GlyphClass: 2
Flags: W
LayerCount: 2
Fore
SplineSet
95 675 m 1,0,1
 95 776 95 776 163 776 c 0,2,3
 194 776 194 776 274.5 752 c 128,-1,4
 355 728 355 728 362 728 c 0,5,6
 374 728 374 728 388 773 c 1,7,-1
 441 766 l 1,8,9
 441 712 441 712 423 688.5 c 128,-1,10
 405 665 405 665 374.5 665 c 128,-1,11
 344 665 344 665 262 690 c 128,-1,12
 180 715 180 715 174 715 c 0,13,14
 163 715 163 715 147 669 c 1,15,-1
 95 675 l 1,0,1
EndSplineSet
EndChar

StartChar: dotaccentcmb
Encoding: 775 775 221
Width: 370
GlyphClass: 2
Flags: W
LayerCount: 2
Fore
SplineSet
136 682 m 1,0,-1
 136 766 l 1,1,-1
 234 766 l 1,2,-1
 234 682 l 1,3,-1
 136 682 l 1,0,-1
EndSplineSet
EndChar

StartChar: endash
Encoding: 8211 8211 222
Width: 577
GlyphClass: 2
Flags: W
LayerCount: 2
Fore
SplineSet
50 292 m 1,0,-1
 50 363 l 1,1,-1
 527 363 l 1,2,-1
 527 292 l 1,3,-1
 50 292 l 1,0,-1
EndSplineSet
EndChar

StartChar: emdash
Encoding: 8212 8212 223
Width: 801
GlyphClass: 2
Flags: W
LayerCount: 2
Fore
SplineSet
70 292 m 1,0,-1
 70 363 l 1,1,-1
 731 363 l 1,2,-1
 731 292 l 1,3,-1
 70 292 l 1,0,-1
EndSplineSet
EndChar

StartChar: quoteleft
Encoding: 8216 8216 224
Width: 226
GlyphClass: 2
Flags: W
LayerCount: 2
Fore
SplineSet
128 728 m 1,0,-1
 167 696 l 1,1,2
 136 656 136 656 136 598 c 1,3,-1
 142 481 l 1,4,-1
 63 481 l 1,5,6
 59 514 59 514 59 548 c 0,7,8
 60 666 60 666 128 728 c 1,0,-1
EndSplineSet
EndChar

StartChar: quoteright
Encoding: 8217 8217 225
Width: 226
GlyphClass: 2
Flags: W
LayerCount: 2
Fore
SplineSet
98 466 m 1,0,-1
 59 498 l 1,1,2
 91 537 91 537 91 596 c 1,3,-1
 84 713 l 1,4,-1
 163 713 l 1,5,6
 167 680 167 680 167 646 c 0,7,8
 166 526 166 526 98 466 c 1,0,-1
EndSplineSet
EndChar

StartChar: quotesinglbase
Encoding: 8218 8218 226
Width: 264
GlyphClass: 2
Flags: W
LayerCount: 2
Fore
SplineSet
101 -114 m 1,0,-1
 62 -82 l 1,1,2
 93 -42 93 -42 93 16 c 1,3,-1
 87 133 l 1,4,-1
 166 133 l 1,5,6
 170 100 170 100 170 66 c 0,7,8
 169 -52 169 -52 101 -114 c 1,0,-1
EndSplineSet
EndChar

StartChar: quotedblleft
Encoding: 8220 8220 227
Width: 366
GlyphClass: 2
Flags: W
LayerCount: 2
Fore
SplineSet
128 728 m 1,0,-1
 167 696 l 1,1,2
 136 656 136 656 136 598 c 1,3,-1
 142 481 l 1,4,-1
 63 481 l 1,5,6
 59 514 59 514 59 548 c 0,7,8
 60 666 60 666 128 728 c 1,0,-1
268 728 m 1,9,-1
 307 696 l 1,10,11
 276 656 276 656 276 598 c 1,12,-1
 282 481 l 1,13,-1
 203 481 l 1,14,15
 199 514 199 514 199 548 c 0,16,17
 200 666 200 666 268 728 c 1,9,-1
EndSplineSet
EndChar

StartChar: quotedblright
Encoding: 8221 8221 228
Width: 366
GlyphClass: 2
Flags: W
LayerCount: 2
Fore
SplineSet
238 466 m 1,0,-1
 199 498 l 1,1,2
 230 538 230 538 230 596 c 1,3,-1
 224 713 l 1,4,-1
 303 713 l 1,5,6
 307 680 307 680 307 646 c 0,7,8
 306 528 306 528 238 466 c 1,0,-1
98 466 m 1,9,-1
 59 498 l 1,10,11
 90 538 90 538 90 596 c 1,12,-1
 84 713 l 1,13,-1
 163 713 l 1,14,15
 167 680 167 680 167 646 c 0,16,17
 166 528 166 528 98 466 c 1,9,-1
EndSplineSet
EndChar

StartChar: quotedblbase
Encoding: 8222 8222 229
Width: 404
GlyphClass: 2
Flags: W
LayerCount: 2
Fore
SplineSet
241 -115 m 1,0,-1
 202 -83 l 1,1,2
 233 -43 233 -43 233 15 c 1,3,-1
 227 132 l 1,4,-1
 306 132 l 1,5,6
 310 99 310 99 310 65 c 0,7,8
 309 -53 309 -53 241 -115 c 1,0,-1
101 -115 m 1,9,-1
 62 -83 l 1,10,11
 93 -43 93 -43 93 15 c 1,12,-1
 87 132 l 1,13,-1
 166 132 l 1,14,15
 170 99 170 99 170 65 c 0,16,17
 169 -53 169 -53 101 -115 c 1,9,-1
EndSplineSet
EndChar

StartChar: bullet
Encoding: 8226 8226 230
Width: 372
GlyphClass: 2
Flags: W
LayerCount: 2
Fore
SplineSet
103.5 530 m 128,-1,1
 137 558 137 558 186 558 c 128,-1,2
 235 558 235 558 268.5 529.5 c 128,-1,3
 302 501 302 501 302 441 c 128,-1,4
 302 381 302 381 268.5 352.5 c 128,-1,5
 235 324 235 324 186 324 c 128,-1,6
 137 324 137 324 103.5 352.5 c 128,-1,7
 70 381 70 381 70 441.5 c 128,-1,0
 70 502 70 502 103.5 530 c 128,-1,1
EndSplineSet
EndChar

StartChar: guilsinglleft
Encoding: 8249 8249 231
Width: 282
GlyphClass: 2
Flags: W
LayerCount: 2
Fore
SplineSet
243 127 m 1,0,-1
 181 88 l 1,1,-1
 40 330 l 1,2,-1
 181 572 l 1,3,-1
 243 534 l 1,4,-1
 121 334 l 1,5,-1
 121 327 l 1,6,-1
 243 127 l 1,0,-1
EndSplineSet
EndChar

StartChar: guilsinglright
Encoding: 8250 8250 232
Width: 282
GlyphClass: 2
Flags: W
LayerCount: 2
Fore
SplineSet
101 88 m 1,0,-1
 39 127 l 1,1,-1
 161 327 l 1,2,-1
 161 334 l 1,3,-1
 39 534 l 1,4,-1
 101 572 l 1,5,-1
 242 330 l 1,6,-1
 101 88 l 1,0,-1
EndSplineSet
EndChar

StartChar: Euro
Encoding: 8364 8364 233
Width: 594
GlyphClass: 2
Flags: W
LayerCount: 2
Fore
SplineSet
46 256 m 1,0,-1
 46 322 l 1,1,-1
 493 322 l 1,2,-1
 493 256 l 1,3,-1
 196 256 l 1,4,5
 208 129 208 129 254 83 c 0,6,7
 279 58 279 58 328 58 c 128,-1,8
 377 58 377 58 426 72 c 128,-1,9
 475 86 475 86 501 100 c 2,10,-1
 527 114 l 1,11,-1
 556 48 l 1,12,13
 546 41 546 41 528 31 c 128,-1,14
 510 21 510 21 455 4 c 128,-1,15
 400 -13 400 -13 346 -13 c 0,16,17
 244 -13 244 -13 182 50 c 128,-1,18
 120 113 120 113 106 256 c 1,19,-1
 46 256 l 1,0,-1
46 379 m 1,20,-1
 46 445 l 1,21,-1
 107 445 l 1,22,23
 123 600 123 600 194 657 c 0,24,25
 256 708 256 708 359 708 c 128,-1,26
 462 708 462 708 526 692 c 1,27,-1
 517 620 l 1,28,29
 413 632 413 632 340.5 632 c 128,-1,30
 268 632 268 632 244 605 c 0,31,32
 207 564 207 564 196 445 c 1,33,-1
 493 445 l 1,34,-1
 493 379 l 1,35,-1
 46 379 l 1,20,-1
EndSplineSet
EndChar

StartChar: commaaccent
Encoding: 65540 -1 235
Width: 234
GlyphClass: 2
Flags: W
LayerCount: 2
Fore
SplineSet
92 77 m 2,0,-1
 92 197 l 1,1,-1
 174 197 l 1,2,-1
 174 127 l 1,3,4
 173 7 173 7 100 -53 c 1,5,-1
 60 -24 l 1,6,7
 92 15 92 15 92 77 c 2,0,-1
EndSplineSet
EndChar

StartChar: grave.cap
Encoding: 65541 -1 236
Width: 464
GlyphClass: 2
Flags: W
LayerCount: 2
Fore
SplineSet
124 797 m 1,0,-1
 150 868 l 1,1,-1
 376 787 l 1,2,-1
 356 736 l 1,3,-1
 124 797 l 1,0,-1
EndSplineSet
EndChar

StartChar: acute.cap
Encoding: 65542 -1 237
Width: 473
GlyphClass: 2
Flags: W
LayerCount: 2
Fore
SplineSet
385 869 m 1,0,-1
 413 796 l 1,1,-1
 178 736 l 1,2,-1
 160 787 l 1,3,-1
 385 869 l 1,0,-1
EndSplineSet
EndChar

StartChar: tilde.cap
Encoding: 65543 -1 238
Width: 502
GlyphClass: 2
Flags: W
LayerCount: 2
Fore
SplineSet
75 756 m 1,0,1
 75 857 75 857 143 857 c 0,2,3
 174 857 174 857 254.5 834 c 128,-1,4
 335 811 335 811 342 811 c 0,5,6
 354 811 354 811 368 854 c 1,7,-1
 421 847 l 1,8,9
 421 793 421 793 403 769.5 c 128,-1,10
 385 746 385 746 354.5 746 c 128,-1,11
 324 746 324 746 242 770 c 128,-1,12
 160 794 160 794 154 794 c 0,13,14
 143 794 143 794 127 750 c 1,15,-1
 75 756 l 1,0,1
EndSplineSet
EndChar

StartChar: ring.cap
Encoding: 65544 -1 239
Width: 284
GlyphClass: 2
Flags: W
LayerCount: 2
Fore
SplineSet
142 887 m 128,-1,1
 178 887 178 887 202 867.5 c 128,-1,2
 226 848 226 848 226 804.5 c 128,-1,3
 226 761 226 761 202 741.5 c 128,-1,4
 178 722 178 722 142 722 c 128,-1,5
 106 722 106 722 82 741.5 c 128,-1,6
 58 761 58 761 58 804.5 c 128,-1,7
 58 848 58 848 82 867.5 c 128,-1,0
 106 887 106 887 142 887 c 128,-1,1
142 841 m 128,-1,9
 123 841 123 841 114.5 833.5 c 128,-1,10
 106 826 106 826 106 804.5 c 128,-1,11
 106 783 106 783 114.5 775.5 c 128,-1,12
 123 768 123 768 142 768 c 128,-1,13
 161 768 161 768 168.5 775 c 128,-1,14
 176 782 176 782 176 804 c 128,-1,15
 176 826 176 826 168.5 833.5 c 128,-1,8
 161 841 161 841 142 841 c 128,-1,9
EndSplineSet
EndChar

StartChar: circumflex.cap
Encoding: 65545 -1 240
Width: 297
GlyphClass: 2
Flags: W
LayerCount: 2
Fore
SplineSet
295 771 m 1,0,-1
 267 733 l 1,1,-1
 152 794 l 1,2,-1
 145 794 l 1,3,-1
 30 733 l 1,4,-1
 2 771 l 1,5,-1
 123 866 l 1,6,-1
 174 866 l 1,7,-1
 295 771 l 1,0,-1
EndSplineSet
EndChar

StartChar: caron.cap
Encoding: 65546 -1 241
Width: 317
GlyphClass: 2
Flags: W
LayerCount: 2
Fore
SplineSet
277 879 m 1,0,-1
 305 841 l 1,1,-1
 184 746 l 1,2,-1
 133 746 l 1,3,-1
 12 841 l 1,4,-1
 40 879 l 1,5,-1
 155 818 l 1,6,-1
 162 818 l 1,7,-1
 277 879 l 1,0,-1
EndSplineSet
EndChar

StartChar: dieresis.cap
Encoding: 65547 -1 242
Width: 433
GlyphClass: 2
Flags: W
LayerCount: 2
Fore
SplineSet
169 762 m 1,0,-1
 70 762 l 1,1,-1
 70 844 l 1,2,-1
 169 844 l 1,3,-1
 169 762 l 1,0,-1
355 762 m 1,4,-1
 257 762 l 1,5,-1
 257 844 l 1,6,-1
 355 844 l 1,7,-1
 355 762 l 1,4,-1
EndSplineSet
EndChar

StartChar: dotaccentcmb.cap
Encoding: 65548 -1 243
Width: 370
GlyphClass: 2
Flags: W
LayerCount: 2
Fore
SplineSet
136 762 m 1,0,-1
 136 846 l 1,1,-1
 234 846 l 1,2,-1
 234 762 l 1,3,-1
 136 762 l 1,0,-1
EndSplineSet
EndChar
